<svg xmlns="http://www.w3.org/2000/svg" id="Layer_1" data-name="Layer 1" viewBox="0 0 365 351"><path d="M77.287,272.283H52.435A22.973,22.973,0,0,1,29.461,249.31V53.633A22.974,22.974,0,0,1,52.435,30.66H266.8a22.974,22.974,0,0,1,22.973,22.973V81.8" fill="#66a0ff"/><path d="M335.539,137.682V297.367a22.974,22.974,0,0,1-22.974,22.973H98.205a22.974,22.974,0,0,1-22.973-22.973V100.835A22.119,22.119,0,0,1,97.35,78.717H312.565a22.973,22.973,0,0,1,22.974,22.973v25.222" fill="#f9c01e"/><path d="M312.565,322.34H98.205a25,25,0,0,1-24.973-24.974V101.69A25,25,0,0,1,98.205,76.717h214.36a25,25,0,0,1,24.973,24.973v27.222H91.167a2,2,0,0,1,0-4H333.538V101.69a21,21,0,0,0-20.973-20.973H98.205A21,21,0,0,0,77.232,101.69V297.366A21,21,0,0,0,98.205,318.34h214.36a21,21,0,0,0,20.973-20.974V142.777a2,2,0,0,1,4,0V297.366A25,25,0,0,1,312.565,322.34Z" fill="#4d4d4f"/><path d="M59.993,274.283H52.435A25,25,0,0,1,27.462,249.31V53.634A25,25,0,0,1,52.435,28.66H266.8a25,25,0,0,1,24.973,24.974V65.227a2,2,0,1,1-4,0V53.634A21,21,0,0,0,266.8,32.66H52.435A21,21,0,0,0,31.462,53.634V249.31a21,21,0,0,0,20.973,20.973h7.558a2,2,0,0,1,0,4Z" fill="#4d4d4f"/><circle cx="103.025" cy="103.632" r="9.198" fill="#fff"/><path d="M103.024,114.83a11.2,11.2,0,1,1,11.2-11.2A11.211,11.211,0,0,1,103.024,114.83Zm0-18.4a7.2,7.2,0,1,0,7.2,7.2A7.207,7.207,0,0,0,103.024,96.434Z" fill="#4d4d4f"/><circle cx="132.459" cy="103.632" r="9.198" fill="#fff"/><path d="M132.459,114.83a11.2,11.2,0,1,1,11.2-11.2A11.21,11.21,0,0,1,132.459,114.83Zm0-18.4a7.2,7.2,0,1,0,7.2,7.2A7.206,7.206,0,0,0,132.459,96.434Z" fill="#4d4d4f"/><circle cx="161.076" cy="103.632" r="9.198" fill="#fff"/><path d="M161.076,114.83a11.2,11.2,0,1,1,11.2-11.2A11.21,11.21,0,0,1,161.076,114.83Zm0-18.4a7.2,7.2,0,1,0,7.2,7.2A7.206,7.206,0,0,0,161.076,96.434Z" fill="#4d4d4f"/><circle cx="55.842" cy="56.369" r="9.198" fill="#fff"/><path d="M55.842,67.567a11.2,11.2,0,1,1,11.2-11.2A11.21,11.21,0,0,1,55.842,67.567Zm0-18.4a7.2,7.2,0,1,0,7.2,7.2A7.206,7.206,0,0,0,55.842,49.171Z" fill="#4d4d4f"/><circle cx="85.276" cy="56.369" r="9.198" fill="#fff"/><path d="M85.276,67.567a11.2,11.2,0,1,1,11.2-11.2A11.211,11.211,0,0,1,85.276,67.567Zm0-18.4a7.2,7.2,0,1,0,7.2,7.2A7.207,7.207,0,0,0,85.276,49.171Z" fill="#4d4d4f"/><circle cx="113.893" cy="56.369" r="9.198" fill="#fff"/><path d="M113.893,67.567a11.2,11.2,0,1,1,11.2-11.2A11.211,11.211,0,0,1,113.893,67.567Zm0-18.4a7.2,7.2,0,1,0,7.2,7.2A7.207,7.207,0,0,0,113.893,49.171Z" fill="#4d4d4f"/><circle cx="61.091" cy="288.701" r="5.345" fill="#f9c01e"/><path d="M42.909,317.129a10.915,10.915,0,1,1,10.914-10.914A10.928,10.928,0,0,1,42.909,317.129Zm0-17.829a6.915,6.915,0,1,0,6.914,6.915A6.923,6.923,0,0,0,42.909,299.3Z" fill="#4d4d4f"/><path d="M126.758,230.473a9.634,9.634,0,0,1-.045-14.8l28.212-23.69a7.377,7.377,0,0,1,10.393.906h0a7.377,7.377,0,0,1-.906,10.393l-21.771,18.28a1.9,1.9,0,0,0,.009,2.916l21.687,17.973a7.376,7.376,0,0,1,.972,10.387h0a7.376,7.376,0,0,1-10.387.972Z" fill="#fff"/><path d="M159.621,257.508a9.328,9.328,0,0,1-5.975-2.153L125.48,232.012a11.632,11.632,0,0,1-.052-17.866l28.211-23.689A9.377,9.377,0,1,1,165.7,204.819l-21.678,18.2,21.593,17.9a9.373,9.373,0,0,1-5.992,16.592Zm-31.587-28.575L156.2,252.275A5.377,5.377,0,0,0,163.061,244l-21.687-17.974a3.9,3.9,0,0,1-.02-5.987l21.772-18.279a5.377,5.377,0,1,0-6.915-8.236L128,217.209a7.633,7.633,0,0,0,.036,11.725Z" fill="#4d4d4f"/><rect x="155.112" y="216.784" width="105.236" height="14.753" rx="7.377" transform="translate(-70.695 350.175) rotate(-71.53)" fill="#fff"/><path d="M193.406,276.453a9.39,9.39,0,0,1-8.9-12.351l28.666-85.823a9.377,9.377,0,1,1,17.787,5.942l-28.665,85.822a9.39,9.39,0,0,1-8.885,6.41ZM188.3,265.369h0a5.376,5.376,0,1,0,10.2,3.406l28.666-85.822a5.376,5.376,0,1,0-10.2-3.406Z" fill="#4d4d4f"/><path d="M251.158,242.456l21.686-17.973a1.9,1.9,0,0,0,.009-2.916l-21.771-18.28a7.377,7.377,0,0,1-.906-10.393h0a7.377,7.377,0,0,1,10.393-.906l29.412,24.7a1.439,1.439,0,0,1,.255.271c3.119,4.525,2.488,10.208-1.5,13.516l-28.166,23.344a7.376,7.376,0,0,1-10.387-.972h0A7.376,7.376,0,0,1,251.158,242.456Z" fill="#fff"/><path d="M255.882,257.514c-.3,0-.593-.015-.891-.042a9.378,9.378,0,0,1-5.11-16.556l21.593-17.9-21.678-18.2a9.376,9.376,0,1,1,12.059-14.361l29.413,24.695a3.45,3.45,0,0,1,.616.668c3.72,5.4,2.933,12.205-1.869,16.19l-28.166,23.345A9.305,9.305,0,0,1,255.882,257.514Zm-.047-65.254q-.237,0-.477.021a5.377,5.377,0,0,0-2.99,9.474l21.771,18.28a3.9,3.9,0,0,1-.019,5.987L252.434,244a5.377,5.377,0,1,0,6.862,8.279l28.165-23.344c3.146-2.61,3.638-7.119,1.186-10.756L259.283,193.52A5.334,5.334,0,0,0,255.835,192.26Z" fill="#4d4d4f"/></svg>