<svg xmlns="http://www.w3.org/2000/svg" id="Layer_1" data-name="Layer 1" viewBox="0 0 365 351"><circle cx="204.238" cy="162.681" r="131.1" fill="#66a0ff"/><circle cx="204.238" cy="162.681" r="107.463" fill="#fff"/><path d="M204.238,295.78c-73.391,0-133.1-59.708-133.1-133.1A132.614,132.614,0,0,1,92.37,90.534a2,2,0,0,1,3.359,2.171,129.265,129.265,0,1,0,14.15-18.133,2,2,0,1,1-2.922-2.731,133.587,133.587,0,0,1,97.281-42.259c73.392,0,133.1,59.708,133.1,133.1S277.63,295.78,204.238,295.78Z" fill="#4d4d4f"/><path d="M232.768,264.586V28.249c0-8.711,4.647-13.357,10.379-13.357h36.3a10.379,10.379,0,0,1,10.379,10.379V226.508s-22.279,28.713-57.059,38.078" fill="#1fc482"/><path d="M175.709,265.22V161.013a10.379,10.379,0,0,0-10.379-10.379h-36.3a10.379,10.379,0,0,0-10.379,10.379v66.659c13.362,17.379,31.255,30.69,55.321,38.456" fill="#f04b46"/><path d="M175.709,266.127V94.466a10.379,10.379,0,0,1,10.379-10.379h36.3a10.379,10.379,0,0,1,10.379,10.379V266.308c-19.163,4.973-38.2,5.326-57.059-.181" fill="#f9c01e"/><path d="M204.238,272.144a109.463,109.463,0,1,1,29-215.042,2,2,0,1,1-1.056,3.857A105.479,105.479,0,1,0,309.7,162.681a104.567,104.567,0,0,0-21.033-63.21,2,2,0,1,1,3.2-2.4,109.47,109.47,0,0,1-87.629,175.072Z" fill="#4d4d4f"/><path d="M289.827,229.666a2,2,0,0,1-2-2V25.271a8.388,8.388,0,0,0-8.379-8.379h-36.3a8.387,8.387,0,0,0-8.379,8.379V157.422a2,2,0,0,1-4,0V25.271a12.393,12.393,0,0,1,12.379-12.379h36.3a12.393,12.393,0,0,1,12.379,12.379v202.4A2,2,0,0,1,289.827,229.666Z" fill="#4d4d4f"/><path d="M232.768,261.394a2,2,0,0,1-2-2V175.062a2,2,0,0,1,4,0v84.332A2,2,0,0,1,232.768,261.394Z" fill="#4d4d4f"/><path d="M232.768,268.308a2,2,0,0,1-2-2V175.062a2,2,0,0,1,4,0v91.246A2,2,0,0,1,232.768,268.308Z" fill="#4d4d4f"/><path d="M175.708,268.128a2,2,0,0,1-2-2V94.466a12.394,12.394,0,0,1,12.38-12.379h36.3a12.393,12.393,0,0,1,12.379,12.379v53.962a2,2,0,0,1-4,0V94.466a8.389,8.389,0,0,0-8.379-8.379h-36.3a8.389,8.389,0,0,0-8.38,8.379V266.128A2,2,0,0,1,175.708,268.128Z" fill="#4d4d4f"/><path d="M175.708,268.128a2,2,0,0,1-2-2V161.013a8.388,8.388,0,0,0-8.378-8.379h-36.3a8.389,8.389,0,0,0-8.379,8.379V183.24a2,2,0,0,1-4,0V161.013a12.393,12.393,0,0,1,12.379-12.379h36.3a12.393,12.393,0,0,1,12.378,12.379V266.128A2,2,0,0,1,175.708,268.128Z" fill="#4d4d4f"/><path d="M118.649,229.672a2,2,0,0,1-2-2V201.551a2,2,0,0,1,4,0v26.121A2,2,0,0,1,118.649,229.672Z" fill="#4d4d4f"/><path d="M48.343,256.421H85.277a5.664,5.664,0,0,1,5.664,5.664V317.37A24.131,24.131,0,0,1,66.81,341.5h0A24.131,24.131,0,0,1,42.679,317.37V262.085a5.664,5.664,0,0,1,5.664-5.664Z" transform="translate(230.965 40.322) rotate(45)" fill="#66a0ff"/><path d="M53.793,338.109A26.131,26.131,0,0,1,35.316,293.5l36.838-36.838a10.849,10.849,0,0,1,15.346,0l21.608,21.608a10.851,10.851,0,0,1,0,15.345L88.28,314.444a2,2,0,0,1-2.828-2.828l20.828-20.828a6.852,6.852,0,0,0,0-9.689L84.672,259.491a6.85,6.85,0,0,0-9.689,0L38.144,296.329a22.131,22.131,0,1,0,31.3,31.3l6.924-6.923a2,2,0,1,1,2.828,2.828l-6.923,6.923A25.96,25.96,0,0,1,53.793,338.109Z" fill="#4d4d4f"/><path d="M97.494,271.485a2,2,0,0,1-1.405-3.423l14.175-14a2,2,0,1,1,2.81,2.845l-14.175,14A1.991,1.991,0,0,1,97.494,271.485Z" fill="#4d4d4f"/><path d="M99.463,302.434a2,2,0,0,1-1.414-.586L63.923,267.722a2,2,0,0,1,2.828-2.828l34.126,34.126a2,2,0,0,1-1.414,3.414Z" fill="#4d4d4f"/><path d="M59.513,245.732a13.652,13.652,0,1,1,4.942-.933A13.579,13.579,0,0,1,59.513,245.732Zm.008-23.257a9.644,9.644,0,1,0,3.872.82A9.6,9.6,0,0,0,59.521,222.475Z" fill="#4d4d4f"/><circle cx="40.455" cy="210.589" r="6.186" fill="#f04b46"/><circle cx="309.219" cy="49.032" r="6.186" fill="#f04b46"/></svg>