<svg xmlns="http://www.w3.org/2000/svg" id="Layer_1" data-name="Layer 1" viewBox="0 0 365 351"><path d="M319.064,227.38c-4.64,11.83-11.3,19.54-20,19.54h-47.69v48.8c0,8.39-11.49,14.39-27.93,18-12.41,2.73-27.64,4.09-42.88,4.09s-30.47-1.36-42.88-4.09c-16.44-3.61-27.93-9.61-27.93-18V212.14a37.812,37.812,0,0,1,37.81-37.81h66a37.812,37.812,0,0,0,37.81-37.81V105.3h47.69v.01c8.7,0,15.36,7.71,20,19.54C329.654,151.87,329.654,200.36,319.064,227.38Z" fill="#f9c01e"/><path d="M251.374,56.72v79.8a37.812,37.812,0,0,1-37.81,37.81h-66a37.812,37.812,0,0,0-37.81,37.81v34.78H62.064c-16.05,0-24.07-35.4-24.07-70.81s8.02-70.8,24.07-70.8v-.01h47.69V56.72c0-15.69,35.4-23.53,70.81-23.53S251.374,41.03,251.374,56.72Z" fill="#66a0ff"/><path d="M180.563,319.81c-15.8,0-31.185-1.469-43.309-4.137-19.3-4.237-29.5-11.137-29.5-19.953v-46.8H62.063c-10.326,0-18.145-11.854-22.611-34.279a2,2,0,1,1,3.923-.782c3.931,19.74,10.743,31.061,18.688,31.061h49.69v50.8c0,6.519,9.608,12.369,26.359,16.047,11.851,2.607,26.927,4.043,42.451,4.043s30.6-1.436,42.451-4.043c16.752-3.678,26.36-9.527,26.36-16.047v-50.8h49.689c9.069,0,14.87-9.936,18.139-18.271,6.307-16.1,9.085-41.1,7.248-65.248a2,2,0,1,1,3.988-.3c1.88,24.7-1,50.38-7.512,67.01-5.34,13.615-12.9,20.811-21.863,20.811H253.374v46.8c0,8.816-10.2,15.716-29.5,19.953C211.75,318.341,196.369,319.81,180.563,319.81Z" fill="#4d4d4f"/><path d="M38.632,195.25A2,2,0,0,1,36.64,193.4c-.429-5.591-.646-11.409-.646-17.293,0-34.868,7.462-70.038,24.069-72.645v-.155l2-.01h45.69V56.72c0-8.248,8.147-15.014,23.56-19.567,13.02-3.844,30.511-5.963,49.25-5.963,36.242,0,72.811,7.894,72.811,25.53V103.3h47.689v.132c8.089,1,14.925,8.1,19.862,20.687a99.931,99.931,0,0,1,4.566,15.719,2,2,0,0,1-3.914.824,96.157,96.157,0,0,0-4.376-15.084c-3.268-8.333-9.069-18.268-18.138-18.268l-49.689-.01V56.72c0-12.274-29.582-21.53-68.811-21.53s-68.81,9.256-68.81,21.53V107.3l-49.69.01c-8.6,0-13.8,12.971-16.139,20.7-3.824,12.657-5.93,29.738-5.93,48.1,0,5.783.213,11.5.634,16.987a2,2,0,0,1-1.841,2.147C38.735,195.248,38.683,195.25,38.632,195.25Z" fill="#4d4d4f"/><path d="M109.755,248.921a2,2,0,0,1-2-2V213.032a39.857,39.857,0,0,1,39.812-39.81h66a35.853,35.853,0,0,0,35.811-35.812V105.3a2,2,0,0,1,4,0V137.41a39.857,39.857,0,0,1-39.811,39.812H147.567a35.851,35.851,0,0,0-35.812,35.81v33.889A2,2,0,0,1,109.755,248.921Z" fill="#4d4d4f"/><path d="M180.564,107.3H109.755a2,2,0,0,1,0-4h70.809a2,2,0,0,1,0,4Z" fill="#4d4d4f"/><path d="M251.818,248.921H181.01a2,2,0,0,1,0-4h70.808a2,2,0,1,1,0,4Z" fill="#4d4d4f"/><circle cx="142.711" cy="73.458" r="11.579" fill="#fff"/><path d="M142.71,87.036a13.579,13.579,0,1,1,13.58-13.578A13.593,13.593,0,0,1,142.71,87.036Zm0-23.157a9.579,9.579,0,1,0,9.58,9.579A9.589,9.589,0,0,0,142.71,63.879Z" fill="#4d4d4f"/><circle cx="218.418" cy="279.876" r="11.579" fill="#fff"/><path d="M218.418,293.454A13.579,13.579,0,1,1,232,279.876,13.594,13.594,0,0,1,218.418,293.454Zm0-23.157A9.579,9.579,0,1,0,228,279.876,9.59,9.59,0,0,0,218.418,270.3Z" fill="#4d4d4f"/></svg>