<svg xmlns="http://www.w3.org/2000/svg" id="Layer_1" data-name="Layer 1" viewBox="0 0 372.404 351"><g id="USER"><path d="M140.5,243.14H38.834a27.532,27.532,0,0,1-27.411-30.108l.607-6.455A77.978,77.978,0,0,1,89.666,135.9h0a77.979,77.979,0,0,1,77.636,70.68l.606,6.455A27.53,27.53,0,0,1,140.5,243.14Z" fill="#66a0ff"/><circle cx="89.666" cy="88.626" r="40.014" fill="#66a0ff"/><path d="M342.156,243.142H240.489a27.516,27.516,0,0,1-27.41-30.1l.611-6.454a77.977,77.977,0,0,1,77.642-70.677c.65,0,1.279,0,1.928.02a77.934,77.934,0,0,1,75.695,70.657l.61,6.454A27.523,27.523,0,0,1,342.156,243.142Z" fill="#1fc482"/><path d="M331.336,88.624a40.019,40.019,0,0,1-33.726,39.529,41.111,41.111,0,0,1-6.276.492,40.015,40.015,0,1,1,40-40.021Z" fill="#1fc482"/><path d="M140.5,245.14H38.834a29.531,29.531,0,0,1-29.4-32.295,2,2,0,1,1,3.982.374,25.532,25.532,0,0,0,25.42,27.921H140.5a25.532,25.532,0,0,0,25.419-27.921l-.606-6.455a75.981,75.981,0,0,0-150.444-6.246,2,2,0,1,1-3.937-.7,79.98,79.98,0,0,1,158.363,6.573l.607,6.455a29.532,29.532,0,0,1-29.4,32.295Z" fill="#4d4d4f"/><path d="M89.666,130.64A42.014,42.014,0,1,1,131.68,88.626,42.061,42.061,0,0,1,89.666,130.64Zm0-80.027A38.014,38.014,0,1,0,127.68,88.626,38.056,38.056,0,0,0,89.666,50.613Z" fill="#4d4d4f"/><path d="M342.157,245.142H322.969a2,2,0,0,1,0-4h19.188a25.523,25.523,0,0,0,25.418-27.918l-.611-6.453a75.935,75.935,0,0,0-73.753-68.846c-.64-.019-1.237-.011-1.879-.019a75.978,75.978,0,0,0-75.651,68.864l-.61,6.456a25.513,25.513,0,0,0,25.418,27.916h68.6a2,2,0,0,1,0,4h-68.6a29.513,29.513,0,0,1-29.4-32.288l.611-6.459a79.978,79.978,0,0,1,79.633-72.489c.67,0,1.321,0,1.99.021A79.936,79.936,0,0,1,370.947,206.4l.61,6.454a29.522,29.522,0,0,1-29.4,32.293Z" fill="#4d4d4f"/><path d="M291.333,130.646A42.012,42.012,0,1,1,324.245,62.53a42.02,42.02,0,0,1-26.324,67.6A42.844,42.844,0,0,1,291.333,130.646Zm0-80.024a38.012,38.012,0,1,0,0,76.024,38.961,38.961,0,0,0,5.974-.469,38.014,38.014,0,0,0-5.974-75.555Z" fill="#4d4d4f"/><path d="M253.491,302.387H130.829a33.091,33.091,0,0,1-33.056-36.322l.728-7.792a94.072,94.072,0,0,1,156.8-60.938c.059.059.137.118.2.177a93.921,93.921,0,0,1,30.341,60.761l.728,7.792A33.21,33.21,0,0,1,253.491,302.387Z" fill="#f9c01e"/><circle cx="192.166" cy="115.97" r="48.277" fill="#f9c01e"/><path d="M253.492,304.387H130.829A35.062,35.062,0,0,1,96.034,274.7a35.588,35.588,0,0,1-.252-8.828l.728-7.786a96.071,96.071,0,0,1,160.136-62.233c.026.024.052.048.076.073.042.033.1.079.145.127a95.98,95.98,0,0,1,30.963,62.031l.729,7.794a35.211,35.211,0,0,1-35.067,38.508ZM192.16,175a92.088,92.088,0,0,0-91.668,83.464l-.728,7.791a31.667,31.667,0,0,0,.222,7.833,31.076,31.076,0,0,0,30.843,26.3H253.492a31.211,31.211,0,0,0,31.084-34.135l-.728-7.793a91.978,91.978,0,0,0-29.7-59.468c-.026-.023-.05-.046-.074-.07-.041-.032-.092-.077-.141-.124A91.786,91.786,0,0,0,192.16,175Z" fill="#4d4d4f"/><path d="M192.166,166.248a50.271,50.271,0,1,1,48.341-64.143,2,2,0,1,1-3.846,1.1,45.907,45.907,0,0,0-2.766-7.267,46.3,46.3,0,1,0,4.549,20.031,2,2,0,0,1,4,0A50.335,50.335,0,0,1,192.166,166.248Z" fill="#4d4d4f"/></g><ellipse cx="39.092" cy="130.154" rx="6.232" ry="6.13" transform="translate(-77.755 60.764) rotate(-42.578)" fill="#1fc482"/><ellipse cx="310.982" cy="274.39" rx="8.152" ry="8.019" transform="translate(-96.003 354.16) rotate(-52.513)" fill="#1fc482"/><path d="M19.2,124.865q-.429,0-.859-.021A16.929,16.929,0,0,1,2.321,107.412a16.348,16.348,0,0,1,17.215-15.82A16.771,16.771,0,0,1,31.1,97.043a16.658,16.658,0,0,1-.824,23.514A16.263,16.263,0,0,1,19.2,124.865Zm-.513-29.294A12.347,12.347,0,0,0,6.318,107.548a12.931,12.931,0,0,0,12.221,13.3,12.309,12.309,0,0,0,9.029-3.238,12.653,12.653,0,0,0,.586-17.861,12.8,12.8,0,0,0-8.819-4.163Q19.008,95.57,18.684,95.571Z" fill="#4d4d4f"/></svg>