<svg xmlns="http://www.w3.org/2000/svg" id="Layer_1" data-name="Layer 1" viewBox="0 0 365 351"><rect x="69.786" y="30.435" width="247.206" height="290.129" rx="16.032" fill="#66a0ff"/><path d="M300.125,322.564h-53.8a2,2,0,0,1,0-4h53.8a14.342,14.342,0,0,0,14.326-14.325V46.761a14.342,14.342,0,0,0-14.326-14.325H85.571A14.342,14.342,0,0,0,71.245,46.761V304.239a14.342,14.342,0,0,0,14.326,14.325H226.834a2,2,0,0,1,0,4H85.571a18.346,18.346,0,0,1-18.326-18.325V46.761A18.346,18.346,0,0,1,85.571,28.436H300.125a18.346,18.346,0,0,1,18.326,18.325V304.239A18.346,18.346,0,0,1,300.125,322.564Z" fill="#4d4d4f"/><path d="M85.319,30.435h31.034a0,0,0,0,1,0,0V320.565a0,0,0,0,1,0,0H85.319a16.073,16.073,0,0,1-16.073-16.073V46.509A16.073,16.073,0,0,1,85.319,30.435Z" fill="#f04b46"/><path d="M118.353,322.564H85.571a18.346,18.346,0,0,1-18.326-18.325V46.761A18.346,18.346,0,0,1,85.571,28.436h32.782v98.685a2,2,0,0,1-4,0V32.436H85.571A14.342,14.342,0,0,0,71.245,46.761V304.239a14.342,14.342,0,0,0,14.326,14.325h28.782v-169.6a2,2,0,0,1,4,0Z" fill="#4d4d4f"/><path d="M284.478,30.435V76.1a1.214,1.214,0,0,1-1.86,1.028l-15.282-9.605a8.819,8.819,0,0,0-9.388,0l-15.282,9.605a1.214,1.214,0,0,1-1.86-1.028V30.435Z" fill="#f9c01e"/><path d="M242.02,79.312a3.213,3.213,0,0,1-3.214-3.214V28.436h47.673V76.1a3.215,3.215,0,0,1-4.925,2.721l-15.282-9.605a6.86,6.86,0,0,0-7.26,0L243.73,78.819A3.21,3.21,0,0,1,242.02,79.312Zm20.623-15.134a10.824,10.824,0,0,1,5.758,1.649l14.078,8.849V32.436H242.806v42.24l14.077-8.849A10.828,10.828,0,0,1,262.643,64.178Z" fill="#4d4d4f"/><path d="M156.381,196.41v-72.2A7.216,7.216,0,0,1,163.6,117h30.736a7.217,7.217,0,0,1,7.217,7.216v.016a7.217,7.217,0,0,1-7.217,7.216H173.312a2.484,2.484,0,0,0-2.483,2.484V150.6a2.483,2.483,0,0,0,2.483,2.483h21.021a7.217,7.217,0,0,1,7.217,7.216v.015a7.217,7.217,0,0,1-7.217,7.217H173.312a2.483,2.483,0,0,0-2.483,2.483V186.7a2.483,2.483,0,0,0,2.483,2.483h21.021a7.217,7.217,0,0,1,7.217,7.216v.016a7.216,7.216,0,0,1-7.217,7.216H163.6A7.215,7.215,0,0,1,156.381,196.41Z" fill="#fff"/><path d="M194.333,205.626H163.6a9.226,9.226,0,0,1-9.216-9.216v-72.2A9.226,9.226,0,0,1,163.6,115h30.736a9.224,9.224,0,0,1,0,18.448H173.312a.484.484,0,0,0-.483.484V150.6a.484.484,0,0,0,.483.484h21.021a9.224,9.224,0,0,1,0,18.448H173.312a.483.483,0,0,0-.483.483V186.7a.484.484,0,0,0,.483.483h21.021a9.224,9.224,0,0,1,0,18.448ZM163.6,119a5.222,5.222,0,0,0-5.216,5.216v72.2a5.221,5.221,0,0,0,5.216,5.216h30.736a5.224,5.224,0,0,0,0-10.448H173.312a4.489,4.489,0,0,1-4.483-4.483V170.019a4.489,4.489,0,0,1,4.483-4.483h21.021a5.224,5.224,0,0,0,0-10.448H173.312a4.489,4.489,0,0,1-4.483-4.484V133.929a4.489,4.489,0,0,1,4.483-4.484h21.021a5.224,5.224,0,0,0,0-10.448Z" fill="#4d4d4f"/><path d="M262.217,199.681l-28.684-48.5a1.534,1.534,0,0,0-2.855.781v45.288a7.215,7.215,0,0,1-7.216,7.216h-.015a7.216,7.216,0,0,1-7.217-7.216v-69.69a9.723,9.723,0,0,1,9.723-9.723h0a9.723,9.723,0,0,1,8.393,4.816l28.7,49.1a1.534,1.534,0,0,0,2.858-.775V125.05a7.217,7.217,0,0,1,7.216-7.217h0a7.217,7.217,0,0,1,7.217,7.217v69.675a9.737,9.737,0,0,1-9.738,9.737h0A9.737,9.737,0,0,1,262.217,199.681Z" fill="#fff"/><path d="M270.6,206.462a11.789,11.789,0,0,1-10.1-5.762l-27.817-47.039v43.585a9.225,9.225,0,0,1-18.449,0v-69.69a11.723,11.723,0,0,1,21.843-5.916L263.9,169.25v-44.2a9.217,9.217,0,1,1,18.433,0v69.675A11.751,11.751,0,0,1,270.6,206.462Zm-38.365-58.043a3.493,3.493,0,0,1,3.021,1.74l28.684,48.505a7.738,7.738,0,0,0,14.4-3.939V125.05a5.217,5.217,0,1,0-10.433,0v45.92a3.534,3.534,0,0,1-6.585,1.784l-28.7-49.095a7.723,7.723,0,0,0-14.39,3.9v69.69a5.225,5.225,0,0,0,10.449,0V151.958a3.5,3.5,0,0,1,2.6-3.409A3.587,3.587,0,0,1,232.234,148.419Z" fill="#4d4d4f"/><path d="M277.522,246.836H157.381a2,2,0,1,1,0-4H277.522a2,2,0,0,1,0,4Z" fill="#fff"/><path d="M277.522,271.243H157.381a2,2,0,0,1,0-4H277.522a2,2,0,0,1,0,4Z" fill="#fff"/><circle cx="44.541" cy="280.001" r="10.19" fill="#fff"/><path d="M44.541,292.191A12.19,12.19,0,1,1,56.731,280,12.2,12.2,0,0,1,44.541,292.191Zm0-20.38a8.19,8.19,0,1,0,8.19,8.19A8.2,8.2,0,0,0,44.541,271.811Z" fill="#4d4d4f"/><circle cx="34.351" cy="257.642" r="7.206" fill="#f9c01e"/><circle cx="332.76" cy="84.263" r="5.095" fill="#f9c01e"/></svg>