<svg xmlns="http://www.w3.org/2000/svg" xmlns:xlink="http://www.w3.org/1999/xlink" id="Layer_1" data-name="Layer 1" viewBox="0 0 365 351"><defs><linearGradient id="linear-gradient" x1="190.266" y1="170.413" x2="174.113" y2="377.169" gradientUnits="userSpaceOnUse"><stop offset="0.01" stop-color="#d6ebf3"/><stop offset="0.31" stop-color="#dbedf4"/><stop offset="0.64" stop-color="#e8f4f8"/><stop offset="0.99" stop-color="#feffff"/><stop offset="1" stop-color="#fff"/></linearGradient></defs><g id="BG"><path d="M339.922,256.3c0-10.792-23.836-19.541-53.239-19.541-27.639,0-50.355,7.731-52.98,17.623-21.9-8.951-53.664-14.583-89.019-14.583-66.056,0-119.606,19.655-119.606,43.9,0,19.525,34.736,36.071,82.762,41.773,21.651,11.267,57.383,18.626,97.8,18.626,66.056,0,119.6-19.654,119.6-43.9,0-9.438-8.117-18.18-21.925-25.338C324.574,272.293,339.922,264.955,339.922,256.3Z" fill="url(#linear-gradient)"/><path d="M107.842,327.469a2.138,2.138,0,0,1-.238-.014c-50.558-6-84.526-23.589-84.526-43.76,0-11.475,10.343-21.976,29.912-30.368,18.512-7.938,44.041-13.243,71.883-14.935a2,2,0,0,1,.243,3.992c-55.891,3.4-98.038,21.158-98.038,41.311,0,17.764,33.308,34.125,81,39.787a2,2,0,0,1-.234,3.987Z" fill="#4d4d4f"/><path d="M205.643,346.1a2,2,0,0,1,0-4c31.718,0,61.509-4.523,83.884-12.736,21.43-7.865,33.721-18.5,33.721-29.164,0-8.345-7.208-16.493-20.846-23.562l-5.756-2.984,6.438-.777c20.187-2.437,34.838-9.408,34.838-16.576,0-4.257-5.206-8.609-14.282-11.941-9.841-3.611-22.966-5.6-36.957-5.6-13.894,0-26.953,1.966-36.771,5.535a2,2,0,0,1-1.367-3.76c10.246-3.724,23.79-5.775,38.138-5.775,30.975,0,55.239,9.462,55.239,21.541,0,8.832-12.565,16.327-32.5,19.7,11.692,7.176,17.828,15.471,17.828,24.2C327.248,325.935,273.833,346.1,205.643,346.1Z" fill="#4d4d4f"/><path d="M185.343,345.466c-.042,0-.085,0-.127,0-9.207-.578-18.228-1.554-26.811-2.9a2,2,0,1,1,.619-3.951c8.462,1.327,17.358,2.288,26.442,2.859a2,2,0,0,1-.123,4Z" fill="#4d4d4f"/></g><path d="M303.735,128.639a111.352,111.352,0,0,1-55.716,101.932,21.648,21.648,0,0,0-10.806,18.768v.3a21.728,21.728,0,0,1-21.729,21.728H169.923A21.728,21.728,0,0,1,148.2,249.643h0a21.672,21.672,0,0,0-10.914-18.83A111.43,111.43,0,0,1,197.729,22.7C254.762,25.338,301.061,71.608,303.735,128.639Z" fill="#f9c01e"/><path d="M215.484,273.371H169.923A23.754,23.754,0,0,1,146.2,249.643a19.713,19.713,0,0,0-9.905-17.093A113.734,113.734,0,0,1,79.025,134a113.424,113.424,0,0,1,226.707-5.455h0A113.186,113.186,0,0,1,249.018,232.3a19.7,19.7,0,0,0-9.805,17.036v.3A23.755,23.755,0,0,1,215.484,273.371Zm-23.1-248.8A109.427,109.427,0,0,0,83.025,134a109.724,109.724,0,0,0,55.247,95.075A23.721,23.721,0,0,1,150.2,249.643a19.75,19.75,0,0,0,19.728,19.728h45.561a19.751,19.751,0,0,0,19.729-19.728v-.3a23.71,23.71,0,0,1,11.807-20.5A109.489,109.489,0,0,0,197.637,24.693Q195,24.57,192.381,24.571Z" fill="#4d4d4f"/><path d="M306.471,106.611h-.3a116.836,116.836,0,0,0-85.334-87.6h-.012a19.2,19.2,0,0,0-17.837-12.1H181.666a19.2,19.2,0,0,0-17.837,12.1h-.012a116.836,116.836,0,0,0-85.334,87.6h-.068a16.8,16.8,0,0,0-16.8,16.8v12.733a8.714,8.714,0,0,0,8.715,8.714H314.557a8.714,8.714,0,0,0,8.715-8.714V123.411A16.8,16.8,0,0,0,306.471,106.611Z" fill="#66a0ff"/><path d="M306.187,108.608a2,2,0,0,1-1.951-1.563,114.843,114.843,0,0,0-83.882-86.1,2,2,0,0,1,.975-3.879,118.848,118.848,0,0,1,86.812,89.1,2,2,0,0,1-1.516,2.389A2.059,2.059,0,0,1,306.187,108.608Z" fill="#4d4d4f"/><path d="M146.417,26.882a2,2,0,0,1-.789-3.839,118.227,118.227,0,0,1,17.7-5.975,2,2,0,0,1,.975,3.879,114.168,114.168,0,0,0-17.1,5.772A2,2,0,0,1,146.417,26.882Z" fill="#4d4d4f"/><path d="M78.472,108.608a2.059,2.059,0,0,1-.438-.047,2,2,0,0,1-1.515-2.389,118.9,118.9,0,0,1,57.332-77.287,2,2,0,1,1,1.974,3.478,114.9,114.9,0,0,0-55.4,74.682A2,2,0,0,1,78.472,108.608Z" fill="#4d4d4f"/><path d="M222.317,62.062a2,2,0,0,1-2-1.993L220.2,26.123A17.233,17.233,0,0,0,202.993,8.9H181.666a17.231,17.231,0,0,0-17.211,17.212l.113,33.94a2,2,0,0,1-1.993,2.006h-.007a2,2,0,0,1-2-1.993l-.113-33.946A21.237,21.237,0,0,1,181.666,4.9h21.327A21.236,21.236,0,0,1,224.2,26.116l.113,33.94a2,2,0,0,1-1.993,2.006Z" fill="#4d4d4f"/><path d="M314.557,146.858H70.329a10.727,10.727,0,0,1-10.715-10.714V123.411a18.822,18.822,0,0,1,18.8-18.8h70.877a2,2,0,0,1,0,4H78.415a14.817,14.817,0,0,0-14.8,14.8v12.733a6.722,6.722,0,0,0,6.715,6.714H314.557a6.722,6.722,0,0,0,6.714-6.714V123.411a14.817,14.817,0,0,0-14.8-14.8h-72.4a2,2,0,0,1,0-4h72.4a18.821,18.821,0,0,1,18.8,18.8v12.733A10.726,10.726,0,0,1,314.557,146.858Z" fill="#4d4d4f"/><path d="M200.7,83.536h15.284a2.967,2.967,0,0,1,2.364,4.76l-32.575,42.948a2.967,2.967,0,0,1-5.207-2.642l7.574-25.344a2.967,2.967,0,0,0-2.842-3.817H166.375a2.966,2.966,0,0,1-2.285-4.858l35.71-43.15a2.967,2.967,0,0,1,5.145,2.683l-7.109,25.661A2.967,2.967,0,0,0,200.7,83.536Z" fill="#fff"/><path d="M183.436,134.434a5.021,5.021,0,0,1-2.28-.554,4.9,4.9,0,0,1-2.511-5.851l7.575-25.343a.969.969,0,0,0-.927-1.245H166.375a4.968,4.968,0,0,1-3.827-8.134l16.285-20.5a2,2,0,1,1,3.132,2.488l-16.31,20.53a.964.964,0,0,0-.155,1.06.94.94,0,0,0,.875.555h18.918a4.969,4.969,0,0,1,4.759,6.389l-7.575,25.344a.967.967,0,0,0,1.7.861l32.575-42.948a.966.966,0,0,0-.77-1.551H200.7a4.968,4.968,0,0,1-4.787-6.293l7.109-25.661a.966.966,0,0,0-1.676-.874L190.224,66.142a2,2,0,0,1-3.082-2.551l11.117-13.434a4.967,4.967,0,0,1,8.613,4.493l-7.108,25.662a.967.967,0,0,0,.931,1.224h15.284a4.967,4.967,0,0,1,3.958,7.969l-32.576,42.948A4.91,4.91,0,0,1,183.436,134.434Z" fill="#4d4d4f"/><path d="M168.773,273.371a2,2,0,0,1-2-2v-98.3a2,2,0,0,1,4,0v98.3A2,2,0,0,1,168.773,273.371Z" fill="#4d4d4f"/><path d="M216.113,273.371a2,2,0,0,1-2-2v-98.3a2,2,0,0,1,4,0v98.3A2,2,0,0,1,216.113,273.371Z" fill="#4d4d4f"/><path d="M233.393,192.354h-81.9a19.28,19.28,0,1,1,19.28-19.279,2,2,0,0,1-4,0,15.28,15.28,0,1,0-15.28,15.279h81.9a15.28,15.28,0,1,0-15.28-15.279,2,2,0,0,1-4,0,19.28,19.28,0,1,1,19.28,19.279Z" fill="#4d4d4f"/><path d="M224.416,227.194H160.65a2,2,0,0,1,0-4h63.766a2,2,0,0,1,0,4Z" fill="#4d4d4f"/><path d="M192.443,298.605a25.7,25.7,0,0,1-25.67-25.669v-1.565a2,2,0,0,1,4,0v1.565a21.67,21.67,0,0,0,43.34,0v-1.565a2,2,0,0,1,4,0v1.565A25.7,25.7,0,0,1,192.443,298.605Z" fill="#4d4d4f"/><path d="M303.86,224.223a10.861,10.861,0,1,1,10.862-10.861A10.873,10.873,0,0,1,303.86,224.223Zm0-17.722a6.861,6.861,0,1,0,6.862,6.861A6.868,6.868,0,0,0,303.86,206.5Z" fill="#4d4d4f"/><circle cx="142.02" cy="337.535" r="6.56" fill="#66a0ff"/><circle cx="318.448" cy="196.081" r="5.726" fill="#66a0ff"/></svg>