<svg xmlns="http://www.w3.org/2000/svg" id="Layer_1" data-name="Layer 1" viewBox="0 0 365 351"><path d="M227.172,198.375a2,2,0,0,1-1.374-.547l-15.74-14.889a2,2,0,1,1,2.748-2.906l15.74,14.889a2,2,0,0,1-1.374,3.453Z" fill="#4d4d4f"/><path d="M304.894,167.26V134.681a7.433,7.433,0,0,0-6.517-7.377l-17.461-2.168a25.453,25.453,0,0,1-20.344-15.665c-.038-.09-.075-.18-.112-.27a25.487,25.487,0,0,1,3.292-25.493l10.816-13.889A7.433,7.433,0,0,0,273.959,60L250.926,36.962a7.433,7.433,0,0,0-9.824-.608L227.214,47.169a25.491,25.491,0,0,1-25.493,3.293l-.274-.114A25.448,25.448,0,0,1,185.783,30.01l-2.174-17.467a7.432,7.432,0,0,0-7.376-6.515H143.661a7.432,7.432,0,0,0-7.376,6.517l-2.169,17.461A25.451,25.451,0,0,1,118.452,50.35l-.27.112a25.49,25.49,0,0,1-25.493-3.293L78.8,36.354a7.432,7.432,0,0,0-9.823.608L45.943,60a7.432,7.432,0,0,0-.608,9.823L56.15,83.708A25.49,25.49,0,0,1,59.443,109.2c-.038.09-.075.18-.112.27a25.456,25.456,0,0,1-20.344,15.665L21.526,127.3a7.433,7.433,0,0,0-6.518,7.377V167.26a7.434,7.434,0,0,0,6.518,7.377l17.461,2.168A25.452,25.452,0,0,1,59.331,192.47c.037.09.074.18.112.27a25.49,25.49,0,0,1-3.293,25.493L45.335,232.121a7.433,7.433,0,0,0,.608,9.824l23.034,23.033a7.433,7.433,0,0,0,9.823.609l13.889-10.816a25.49,25.49,0,0,1,25.493-3.292l.27.112a25.451,25.451,0,0,1,15.664,20.344l2.169,17.461a7.433,7.433,0,0,0,7.376,6.517h32.572a7.433,7.433,0,0,0,7.376-6.516l2.174-17.467a25.451,25.451,0,0,1,15.664-20.338l.274-.113a25.49,25.49,0,0,1,25.493,3.292L241.1,265.587a7.435,7.435,0,0,0,9.824-.609l23.033-23.033a7.435,7.435,0,0,0,.609-9.824l-10.816-13.888a25.488,25.488,0,0,1-3.292-25.493c.037-.09.074-.18.112-.27a25.449,25.449,0,0,1,20.344-15.665l17.461-2.168A7.434,7.434,0,0,0,304.894,167.26ZM132.483,226.635a80.528,80.528,0,1,1,28.994,4.8A80.5,80.5,0,0,1,132.483,226.635Z" fill="#f9c01e"/><path d="M151.534,297.913h-7.873a9.447,9.447,0,0,1-9.361-8.27l-2.168-17.462a23.521,23.521,0,0,0-14.443-18.742l-.288-.119a23.551,23.551,0,0,0-23.484,3.03L80.028,267.165a9.449,9.449,0,0,1-12.466-.772L44.529,243.359a9.446,9.446,0,0,1-.772-12.466l10.815-13.888a23.563,23.563,0,0,0,3.024-23.5l-.114-.275A23.519,23.519,0,0,0,38.74,178.789l-17.46-2.168a9.445,9.445,0,0,1-8.271-9.361V134.681a9.446,9.446,0,0,1,8.271-9.362l17.46-2.168a23.516,23.516,0,0,0,18.742-14.443l.109-.265a23.562,23.562,0,0,0-3.019-23.506L43.757,71.048a9.446,9.446,0,0,1,.772-12.466L67.562,35.548a9.448,9.448,0,0,1,12.466-.773L93.917,45.591a23.56,23.56,0,0,0,23.5,3.024l.281-.117A23.513,23.513,0,0,0,132.132,29.76L134.3,12.3a9.447,9.447,0,0,1,9.361-8.272h32.571a9.447,9.447,0,0,1,9.362,8.269l2.173,17.468A23.522,23.522,0,0,0,202.209,48.5l.285.117a23.556,23.556,0,0,0,23.491-3.026l13.889-10.816a9.445,9.445,0,0,1,12.466.773l23.033,23.034a9.447,9.447,0,0,1,.773,12.466L265.33,84.937a23.562,23.562,0,0,0-3.023,23.5l.113.274a23.517,23.517,0,0,0,18.742,14.444l17.461,2.168a9.447,9.447,0,0,1,8.272,9.362v11.281a2,2,0,0,1-4,0V134.681a5.442,5.442,0,0,0-4.764-5.393L280.67,127.12a27.523,27.523,0,0,1-21.947-16.887l-.115-.276a27.565,27.565,0,0,1,3.566-27.478l10.815-13.888a5.442,5.442,0,0,0-.444-7.181L249.512,38.376a5.442,5.442,0,0,0-7.181-.444L228.442,48.747a27.575,27.575,0,0,1-27.489,3.562L200.7,52.2a27.533,27.533,0,0,1-16.9-21.945L181.625,12.79a5.442,5.442,0,0,0-5.393-4.763H143.661a5.441,5.441,0,0,0-5.392,4.765L136.1,30.252A27.522,27.522,0,0,1,119.215,52.2l-.27.113A27.571,27.571,0,0,1,91.46,48.747L77.571,37.932a5.443,5.443,0,0,0-7.18.444L47.357,61.41a5.442,5.442,0,0,0-.444,7.181L57.729,82.479a27.568,27.568,0,0,1,3.56,27.489l-.109.266A27.523,27.523,0,0,1,39.232,127.12l-17.46,2.168a5.442,5.442,0,0,0-4.763,5.393V167.26a5.441,5.441,0,0,0,4.763,5.392l17.46,2.168A27.527,27.527,0,0,1,61.18,191.707l.111.27a27.57,27.57,0,0,1-3.562,27.485L46.913,233.35a5.442,5.442,0,0,0,.444,7.181l23.034,23.033a5.439,5.439,0,0,0,7.18.445L91.46,253.193a27.57,27.57,0,0,1,27.489-3.561l.26.107A27.528,27.528,0,0,1,136.1,271.688l2.168,17.461a5.441,5.441,0,0,0,5.392,4.764h7.873a2,2,0,0,1,0,4Z" fill="#4d4d4f"/><path d="M349.646,224.819l-7.987-20.33a4.984,4.984,0,0,0-5.876-3l-11.427,2.927a17.065,17.065,0,0,1-16.535-4.787l-.136-.142a17.089,17.089,0,0,1-4.195-16.715l3.344-11.318a4.984,4.984,0,0,0-2.788-5.981l-20.02-8.726a4.984,4.984,0,0,0-6.279,2.028l-6.015,10.154a17.09,17.09,0,0,1-15.1,8.3l-.2,0a17.062,17.062,0,0,1-14.76-8.851l-5.638-10.367a4.984,4.984,0,0,0-6.2-2.257l-20.325,7.984a4.984,4.984,0,0,0-3.005,5.876l2.927,11.427a17.064,17.064,0,0,1-4.787,16.535l-.142.136a17.085,17.085,0,0,1-16.715,4.195l-11.318-3.344a4.984,4.984,0,0,0-5.981,2.788l-8.726,20.02a4.984,4.984,0,0,0,2.028,6.279l10.154,6.015a17.09,17.09,0,0,1,8.3,15.1l0,.2a17.063,17.063,0,0,1-8.854,14.762l-10.365,5.634a4.984,4.984,0,0,0-2.258,6.2l7.986,20.33a4.983,4.983,0,0,0,5.876,3l11.427-2.927a17.062,17.062,0,0,1,16.535,4.788l.136.141a17.085,17.085,0,0,1,4.195,16.715l-3.344,11.318a4.983,4.983,0,0,0,2.788,5.981l20.02,8.727a4.984,4.984,0,0,0,6.279-2.029l6.015-10.154a17.09,17.09,0,0,1,15.1-8.3l.2,0A17.062,17.062,0,0,1,268.738,332l5.634,10.364a4.984,4.984,0,0,0,6.2,2.259l20.325-7.985a4.985,4.985,0,0,0,3.006-5.874l-2.926-11.433a17.063,17.063,0,0,1,4.789-16.531l.143-.138a17.089,17.089,0,0,1,16.715-4.195l11.318,3.344a4.983,4.983,0,0,0,5.981-2.788l8.727-20.02a4.984,4.984,0,0,0-2.029-6.279l-10.154-6.015a17.09,17.09,0,0,1-8.3-15.1l0-.2a17.062,17.062,0,0,1,8.855-14.762l10.364-5.634A4.984,4.984,0,0,0,349.646,224.819Z" fill="#f04b46"/><path d="M278.761,346.971a7,7,0,0,1-6.146-3.648l-5.634-10.364a15.108,15.108,0,0,0-13.038-7.811l-.193,0a15.208,15.208,0,0,0-13.351,7.323l-6.014,10.154a6.989,6.989,0,0,1-8.8,2.842l-20.019-8.727a6.993,6.993,0,0,1-3.907-8.381L205,317.04a15.138,15.138,0,0,0-3.715-14.76l-.142-.146a15.1,15.1,0,0,0-14.595-4.235l-11.427,2.928a7,7,0,0,1-8.233-4.212l-7.987-20.33a6.993,6.993,0,0,1,3.165-8.689l10.365-5.633a15.108,15.108,0,0,0,7.809-13.039l0-.11a15.177,15.177,0,0,0-7.323-13.433l-10.153-6.016a6.992,6.992,0,0,1-2.842-8.8l8.726-20.019a7,7,0,0,1,8.38-3.907l11.319,3.344a15.135,15.135,0,0,0,14.758-3.715l.077-.074a15.15,15.15,0,0,0,4.305-14.663L204.565,170.1a6.993,6.993,0,0,1,4.211-8.232l20.326-7.984a7,7,0,0,1,8.689,3.162l5.638,10.368a15.105,15.105,0,0,0,13.037,7.807l.2,0a15.067,15.067,0,0,0,13.342-7.324l6.014-10.153a7,7,0,0,1,8.8-2.844l20.02,8.729a6.992,6.992,0,0,1,3.907,8.381l-3.344,11.317a15.138,15.138,0,0,0,3.715,14.759l.141.144a15.105,15.105,0,0,0,14.6,4.237l11.427-2.928a7,7,0,0,1,8.234,4.212l7.986,20.33a6.992,6.992,0,0,1-3.165,8.689l-10.364,5.634a15.1,15.1,0,0,0-7.81,13.038l0,.11a15.177,15.177,0,0,0,7.323,13.433l10.154,6.016a6.993,6.993,0,0,1,2.841,8.8l-8.726,20.019a6.993,6.993,0,0,1-8.38,3.907l-11.318-3.344A15.145,15.145,0,0,0,307.3,304.1l-.149.143a15.108,15.108,0,0,0-4.236,14.592l2.926,11.432a6.991,6.991,0,0,1-4.213,8.232l-20.323,7.985A6.945,6.945,0,0,1,278.761,346.971Zm-25.324-25.828.382,0,.188,0a19.116,19.116,0,0,1,16.488,9.9l5.634,10.364a2.993,2.993,0,0,0,3.714,1.353l20.323-7.986a2.986,2.986,0,0,0,1.8-3.516l-2.926-11.433a19.116,19.116,0,0,1,5.341-18.47l.144-.138a19.143,19.143,0,0,1,18.666-4.67L334.51,299.9a2.988,2.988,0,0,0,3.581-1.669l8.726-20.019a2.989,2.989,0,0,0-1.214-3.76l-10.154-6.015a19.145,19.145,0,0,1-9.285-16.861l0-.1a19.147,19.147,0,0,1,9.9-16.574l10.365-5.632a2.989,2.989,0,0,0,1.352-3.713l-7.986-20.33a2.986,2.986,0,0,0-3.519-1.8l-11.426,2.928a19.114,19.114,0,0,1-18.474-5.34l-.133-.137a19.144,19.144,0,0,1-4.674-18.672l3.344-11.317a2.985,2.985,0,0,0-1.669-3.58l-20.019-8.729a2.994,2.994,0,0,0-3.76,1.216l-6.015,10.153a19.189,19.189,0,0,1-16.861,9.285l-.193,0a19.115,19.115,0,0,1-16.484-9.9l-5.638-10.367a2.991,2.991,0,0,0-3.713-1.351L210.239,165.6a2.988,2.988,0,0,0-1.8,3.517l2.928,11.428a19.112,19.112,0,0,1-5.34,18.474l-.072.069a19.179,19.179,0,0,1-18.736,4.737L175.9,200.476a2.99,2.99,0,0,0-3.581,1.67l-8.726,20.018a2.989,2.989,0,0,0,1.215,3.76l10.153,6.015a19.147,19.147,0,0,1,9.285,16.861l0,.1a19.147,19.147,0,0,1-9.9,16.574l-10.365,5.632a2.989,2.989,0,0,0-1.352,3.713l7.986,20.33a2.984,2.984,0,0,0,3.519,1.8l11.427-2.928a19.122,19.122,0,0,1,18.474,5.34l.122.127a19.149,19.149,0,0,1,4.684,18.683L205.5,329.49a2.989,2.989,0,0,0,1.669,3.582l20.02,8.727a2.985,2.985,0,0,0,3.759-1.215l6.015-10.154A19.135,19.135,0,0,1,253.437,321.143Z" fill="#4d4d4f"/><path d="M218.975,216.039a49.838,49.838,0,1,1-8.9,13.161" fill="#fff"/><path d="M255.192,301.989a51.8,51.8,0,0,1-46.935-73.632,2,2,0,0,1,3.627,1.686,47.626,47.626,0,1,0,8.547-12.633,2,2,0,0,1-2.912-2.742A51.31,51.31,0,0,1,236.273,202a51.775,51.775,0,1,1,18.919,99.992Z" fill="#4d4d4f"/><path d="M251.893,267.789a17.913,17.913,0,1,1,9.861-.934" fill="#fff"/><path d="M251.9,269.789a2,2,0,0,1-.375-.035,19.915,19.915,0,1,1,10.964-1.037,2,2,0,0,1-1.463-3.723,15.9,15.9,0,1,0-8.756.83,2,2,0,0,1-.37,3.965Z" fill="#4d4d4f"/><circle cx="304.894" cy="100.153" r="7.878" fill="#1fc482"/><path d="M322.356,90.15a13.212,13.212,0,1,1,9.342-3.87h0A13.12,13.12,0,0,1,322.356,90.15Zm0-22.424a9.212,9.212,0,1,0,6.514,15.726h0a9.212,9.212,0,0,0-6.514-15.726Z" fill="#4d4d4f"/><path d="M94.743,326.188a13.205,13.205,0,1,1,9.343-3.863A13.169,13.169,0,0,1,94.743,326.188Zm0-22.413a9.208,9.208,0,1,0,6.515,2.694A9.185,9.185,0,0,0,94.743,303.775Z" fill="#4d4d4f"/><path d="M144.492,231.211a2.012,2.012,0,0,1-.4-.04,81.855,81.855,0,1,1,96.95-94.309,2,2,0,1,1-3.941.684,77.855,77.855,0,1,0-92.216,89.705,2,2,0,0,1-.4,3.96Z" fill="#4d4d4f"/><path d="M159.815,179.2a29.043,29.043,0,1,1,29.043-29.043A29.076,29.076,0,0,1,159.815,179.2Zm0-54.085a25.043,25.043,0,1,0,25.043,25.042A25.071,25.071,0,0,0,159.815,125.115Z" fill="#4d4d4f"/></svg>