<svg xmlns="http://www.w3.org/2000/svg" id="Layer_1" data-name="Layer 1" viewBox="0 0 365 351"><path d="M57.371,306.639h81.147A10.557,10.557,0,0,1,149.075,317.2v14.818a0,0,0,0,1,0,0H46.814a0,0,0,0,1,0,0V317.2A10.557,10.557,0,0,1,57.371,306.639Z" fill="#f9c01e"/><path d="M151.075,334.015H44.814V317.2A12.57,12.57,0,0,1,57.371,304.64h81.147A12.57,12.57,0,0,1,151.075,317.2Zm-102.261-4h98.261V317.2a8.567,8.567,0,0,0-8.557-8.556H57.371a8.567,8.567,0,0,0-8.557,8.556Z" fill="#4d4d4f"/><path d="M77.56,18.985h40.768a3.081,3.081,0,0,1,3.081,3.081V306.639a0,0,0,0,1,0,0H74.48a0,0,0,0,1,0,0V22.066a3.081,3.081,0,0,1,3.081-3.081Z" fill="#f9c01e"/><path d="M123.409,308.64H72.479V228.161a2,2,0,0,1,4,0V304.64h42.93V24.215a3.234,3.234,0,0,0-3.229-3.23H79.709a3.234,3.234,0,0,0-3.23,3.23v184.73a2,2,0,0,1-4,0V24.215a7.239,7.239,0,0,1,7.23-7.23H116.18a7.238,7.238,0,0,1,7.229,7.23Z" fill="#4d4d4f"/><path d="M34.073,101.2V77.137a5.229,5.229,0,0,1,3.515-4.94L73.647,59.681a5.237,5.237,0,0,1,1.714-.289H328.205a5.23,5.23,0,0,1,5.23,5.23V101.2a5.229,5.229,0,0,1-5.23,5.23H39.3A5.229,5.229,0,0,1,34.073,101.2Z" fill="#f9c01e"/><path d="M328.206,108.429H39.3a7.238,7.238,0,0,1-7.229-7.23V77.137a7.234,7.234,0,0,1,4.859-6.83L72.991,57.792a7.218,7.218,0,0,1,2.37-.4H229.774a2,2,0,0,1,0,4H75.361a3.239,3.239,0,0,0-1.059.178L38.244,74.086a3.231,3.231,0,0,0-2.171,3.051V101.2a3.233,3.233,0,0,0,3.229,3.23h288.9a3.234,3.234,0,0,0,3.229-3.23V64.622a3.233,3.233,0,0,0-3.229-3.229H247.448a2,2,0,0,1,0-4h80.758a7.237,7.237,0,0,1,7.229,7.229V101.2A7.238,7.238,0,0,1,328.206,108.429Z" fill="#4d4d4f"/><path d="M302.7,332.015H168.611a5.23,5.23,0,0,1-5.229-5.23V147.875a5.229,5.229,0,0,1,5.229-5.23h88.808a5.23,5.23,0,0,1,5.23,5.23v80.407a5.23,5.23,0,0,0,5.229,5.23H302.7a5.229,5.229,0,0,1,5.23,5.229v88.044A5.23,5.23,0,0,1,302.7,332.015Z" fill="#66a0ff"/><path d="M302.7,334.015H168.611a7.239,7.239,0,0,1-7.23-7.23V147.875a7.238,7.238,0,0,1,7.23-7.229h88.808a7.238,7.238,0,0,1,7.23,7.229v80.407a3.234,3.234,0,0,0,3.229,3.23H302.7a7.238,7.238,0,0,1,7.23,7.229v88.044A7.238,7.238,0,0,1,302.7,334.015ZM168.611,144.646a3.233,3.233,0,0,0-3.23,3.229v178.91a3.234,3.234,0,0,0,3.23,3.23H302.7a3.234,3.234,0,0,0,3.23-3.23V238.741a3.233,3.233,0,0,0-3.23-3.229H267.878a7.238,7.238,0,0,1-7.229-7.23V147.875a3.233,3.233,0,0,0-3.23-3.229Z" fill="#4d4d4f"/><rect x="274.545" y="169.176" width="52.113" height="36.316" rx="3.081" fill="#1fc482"/><path d="M323.577,207.492H277.625a5.087,5.087,0,0,1-5.081-5.081V172.257a5.087,5.087,0,0,1,5.081-5.08h45.952a5.086,5.086,0,0,1,5.08,5.08v30.154A5.086,5.086,0,0,1,323.577,207.492Zm-45.952-36.315a1.081,1.081,0,0,0-1.081,1.08v30.154a1.082,1.082,0,0,0,1.081,1.081h45.952a1.082,1.082,0,0,0,1.08-1.081V172.257a1.081,1.081,0,0,0-1.08-1.08Z" fill="#4d4d4f"/><path d="M300.6,171.177a2,2,0,0,1-2-2V106.429a2,2,0,1,1,4,0v62.748A2,2,0,0,1,300.6,171.177Z" fill="#4d4d4f"/><rect x="175.899" y="161.074" width="29.083" height="27.14" rx="3.139" fill="#fff"/><path d="M201.843,190.214H179.037a5.146,5.146,0,0,1-5.139-5.139V164.212a5.146,5.146,0,0,1,5.139-5.139h22.806a5.145,5.145,0,0,1,5.138,5.139v20.863A5.145,5.145,0,0,1,201.843,190.214Zm-22.806-27.141a1.14,1.14,0,0,0-1.139,1.139v20.863a1.14,1.14,0,0,0,1.139,1.139h22.806a1.139,1.139,0,0,0,1.138-1.139V164.212a1.139,1.139,0,0,0-1.138-1.139Z" fill="#fff"/><rect x="175.899" y="286.446" width="29.083" height="27.14" rx="3.139" fill="#fff"/><path d="M201.843,315.586H179.037a5.146,5.146,0,0,1-5.139-5.139V289.584a5.146,5.146,0,0,1,5.139-5.139h22.806a5.145,5.145,0,0,1,5.138,5.139v20.863A5.145,5.145,0,0,1,201.843,315.586Zm-22.806-27.141a1.14,1.14,0,0,0-1.139,1.139v20.863a1.14,1.14,0,0,0,1.139,1.139h22.806a1.139,1.139,0,0,0,1.138-1.139V289.584a1.139,1.139,0,0,0-1.138-1.139Z" fill="#fff"/><rect x="220.114" y="202.864" width="29.083" height="27.14" rx="3.139" fill="#fff"/><path d="M246.058,232.005H223.252a5.145,5.145,0,0,1-5.138-5.139V206a5.145,5.145,0,0,1,5.138-5.139h22.806A5.145,5.145,0,0,1,251.2,206v20.863A5.145,5.145,0,0,1,246.058,232.005Zm-22.806-27.141A1.14,1.14,0,0,0,222.114,206v20.863a1.14,1.14,0,0,0,1.138,1.139h22.806a1.139,1.139,0,0,0,1.138-1.139V206a1.139,1.139,0,0,0-1.138-1.139Z" fill="#fff"/><rect x="262.003" y="288.446" width="29.083" height="27.14" rx="3.139" fill="#fff"/><path d="M287.947,317.586H265.142A5.146,5.146,0,0,1,260,312.447V291.584a5.146,5.146,0,0,1,5.139-5.139h22.805a5.145,5.145,0,0,1,5.139,5.139v20.863A5.145,5.145,0,0,1,287.947,317.586Zm-22.805-27.141A1.14,1.14,0,0,0,264,291.584v20.863a1.14,1.14,0,0,0,1.139,1.139h22.805a1.14,1.14,0,0,0,1.139-1.139V291.584a1.14,1.14,0,0,0-1.139-1.139Z" fill="#fff"/><path d="M201.843,190.214H179.037a5.146,5.146,0,0,1-5.139-5.139V164.212a5.146,5.146,0,0,1,5.139-5.139h22.806a5.145,5.145,0,0,1,5.138,5.139v20.863A5.145,5.145,0,0,1,201.843,190.214Zm-22.806-27.141a1.14,1.14,0,0,0-1.139,1.139v20.863a1.14,1.14,0,0,0,1.139,1.139h22.806a1.139,1.139,0,0,0,1.138-1.139V164.212a1.139,1.139,0,0,0-1.138-1.139Z" fill="#4d4d4f"/><path d="M201.843,315.586H179.037a5.146,5.146,0,0,1-5.139-5.139V289.584a5.146,5.146,0,0,1,5.139-5.139h22.806a5.145,5.145,0,0,1,5.138,5.139v20.863A5.145,5.145,0,0,1,201.843,315.586Zm-22.806-27.141a1.14,1.14,0,0,0-1.139,1.139v20.863a1.14,1.14,0,0,0,1.139,1.139h22.806a1.139,1.139,0,0,0,1.138-1.139V289.584a1.139,1.139,0,0,0-1.138-1.139Z" fill="#4d4d4f"/><path d="M246.058,232.005H223.252a5.145,5.145,0,0,1-5.138-5.139V206a5.145,5.145,0,0,1,5.138-5.139h22.806A5.145,5.145,0,0,1,251.2,206v20.863A5.145,5.145,0,0,1,246.058,232.005Zm-22.806-27.141A1.14,1.14,0,0,0,222.114,206v20.863a1.14,1.14,0,0,0,1.138,1.139h22.806a1.139,1.139,0,0,0,1.138-1.139V206a1.139,1.139,0,0,0-1.138-1.139Z" fill="#4d4d4f"/><path d="M287.947,317.586H265.142A5.146,5.146,0,0,1,260,312.447V291.584a5.146,5.146,0,0,1,5.139-5.139h22.805a5.145,5.145,0,0,1,5.139,5.139v20.863A5.145,5.145,0,0,1,287.947,317.586Zm-22.805-27.141A1.14,1.14,0,0,0,264,291.584v20.863a1.14,1.14,0,0,0,1.139,1.139h22.805a1.14,1.14,0,0,0,1.139-1.139V291.584a1.14,1.14,0,0,0-1.139-1.139Z" fill="#4d4d4f"/><circle cx="97.944" cy="82.911" r="11.019" fill="#fff"/><path d="M97.944,95.93a13.019,13.019,0,1,1,13.02-13.02A13.034,13.034,0,0,1,97.944,95.93Zm0-22.038a9.019,9.019,0,1,0,9.02,9.018A9.029,9.029,0,0,0,97.944,73.892Z" fill="#4d4d4f"/><circle cx="52.7" cy="131.569" r="6.728" fill="#66a0ff"/><circle cx="137.595" cy="290.653" r="6.034" fill="#66a0ff"/><path d="M41.117,166.907a11.6,11.6,0,1,1,1.507-.1A11.777,11.777,0,0,1,41.117,166.907Zm.039-19.153a7.834,7.834,0,0,0-.987.063,7.561,7.561,0,1,0,.987-.063Z" fill="#4d4d4f"/></svg>