<svg xmlns="http://www.w3.org/2000/svg" id="Layer_1" data-name="Layer 1" viewBox="0 0 365 351"><path d="M294.007,82.547,68,82.408V55.42H49.2A20.616,20.616,0,0,0,28.579,76.036V277.141A20.617,20.617,0,0,0,49.2,297.758H294.007a7.706,7.706,0,0,0,7.706-7.706V90.253A7.706,7.706,0,0,0,294.007,82.547Z" fill="#66a0ff"/><path d="M294.007,299.758H49.2a22.617,22.617,0,0,1,0-45.234H66V57.42H49.2A18.637,18.637,0,0,0,30.579,76.036v175.34a2,2,0,0,1-4,0V76.036A22.642,22.642,0,0,1,49.2,53.42H70v205.1H49.2a18.617,18.617,0,0,0,0,37.234H294.007a5.713,5.713,0,0,0,5.706-5.706V90.254a5.713,5.713,0,0,0-5.706-5.707H82.974a2,2,0,0,1,0-4H294.007a9.717,9.717,0,0,1,9.706,9.707v199.8A9.718,9.718,0,0,1,294.007,299.758Z" fill="#4d4d4f"/><path d="M282.271,128.746a2,2,0,0,1-2-2V101.972H255.812a2,2,0,0,1,0-4h28.459v28.774A2,2,0,0,1,282.271,128.746Z" fill="#4d4d4f"/><path d="M112.174,282.827H83.715V254.053a2,2,0,0,1,4,0v24.774h24.459a2,2,0,0,1,0,4Z" fill="#4d4d4f"/><path d="M193.392,55.275a32.015,32.015,0,0,0-34.145,0h-.019A32.07,32.07,0,0,0,171.2,114.059a30.52,30.52,0,0,0,5.12.414,30.21,30.21,0,0,0,5.572-.509,32.049,32.049,0,0,0,11.5-58.689ZM176.319,94.652A12.244,12.244,0,1,1,188.554,82.4,12.243,12.243,0,0,1,176.319,94.652Z" fill="#f04b46"/><path d="M176.319,96.652A14.244,14.244,0,1,1,190.554,82.4,14.27,14.27,0,0,1,176.319,96.652Zm0-24.488A10.244,10.244,0,1,0,186.554,82.4,10.256,10.256,0,0,0,176.319,72.164Z" fill="#4d4d4f"/><path d="M188.554,82.4a12.245,12.245,0,1,1-12.235-12.235A12.238,12.238,0,0,1,188.554,82.4Z" fill="#fff"/><path d="M193.937,37.92V55.275h-.545a32.015,32.015,0,0,0-34.145,0h-.019V37.92a17.355,17.355,0,1,1,34.709,0Z" fill="#f9c01e"/><path d="M225.465,235.184a11.356,11.356,0,0,1-13.853-8.094L181.891,113.964a31.919,31.919,0,0,0,20.178-12.479L233.54,221.33A11.329,11.329,0,0,1,225.465,235.184Z" fill="#f9c01e"/><path d="M171.2,114.059,141.516,227.09a11.358,11.358,0,0,1-13.854,8.094,9.672,9.672,0,0,1-1.242-.414H126.4a11.325,11.325,0,0,1-6.814-13.44l31.34-119.356A31.984,31.984,0,0,0,171.2,114.059Z" fill="#f9c01e"/><path d="M229.411,251.438a2,2,0,0,1-1.926-1.466l-3.952-14.257a2,2,0,0,1,3.855-1.069l3.951,14.257a2,2,0,0,1-1.928,2.535Z" fill="#4d4d4f"/><path d="M122.538,250.733a2.022,2.022,0,0,1-.535-.073,2,2,0,0,1-1.393-2.462l3.731-13.462a2,2,0,1,1,3.855,1.069l-3.732,13.462A2,2,0,0,1,122.538,250.733Z" fill="#4d4d4f"/><path d="M176.319,116.473a32.566,32.566,0,0,1-5.456-.443,34.06,34.06,0,0,1-12.7-62.446l.519-.31a34.052,34.052,0,1,1,23.554,62.662A32.391,32.391,0,0,1,176.319,116.473Zm-16.5-59.2a30.07,30.07,0,0,0,11.7,54.81A29.473,29.473,0,0,0,181.523,112a30.049,30.049,0,0,0,10.8-55.031l-.006,0a30.017,30.017,0,0,0-32.007,0Zm16.5,39.378A14.244,14.244,0,1,1,190.554,82.4,14.27,14.27,0,0,1,176.319,96.652Zm0-24.488A10.244,10.244,0,1,0,186.554,82.4,10.256,10.256,0,0,0,176.319,72.164Z" fill="#4d4d4f"/><path d="M176.319,96.652A14.244,14.244,0,1,1,190.554,82.4,14.27,14.27,0,0,1,176.319,96.652Zm0-24.488A10.244,10.244,0,1,0,186.554,82.4,10.256,10.256,0,0,0,176.319,72.164Z" fill="#4d4d4f"/><path d="M176.319,96.652A14.244,14.244,0,1,1,190.554,82.4,14.27,14.27,0,0,1,176.319,96.652Zm0-24.488A10.244,10.244,0,1,0,186.554,82.4,10.256,10.256,0,0,0,176.319,72.164Z" fill="#4d4d4f"/><path d="M195.937,57.274h-3.125l-.491-.31a30.017,30.017,0,0,0-32.007,0l-.489.308h-2.578l-.019-2V37.92a19.355,19.355,0,1,1,38.709,0Zm-19.618-8.931a33.884,33.884,0,0,1,15.618,3.792V37.92a15.355,15.355,0,1,0-30.709,0V51.872A33.95,33.95,0,0,1,176.319,48.343Z" fill="#4d4d4f"/><path d="M222.607,237.551a13.393,13.393,0,0,1-12.929-9.95L179.4,112.366l2.146-.372a29.79,29.79,0,0,0,18.912-11.7l2.483-3.353,15.422,58.731a2,2,0,0,1-3.869,1.016l-13.378-50.947a33.694,33.694,0,0,1-16.758,9.755l29.185,111.086a9.34,9.34,0,0,0,17.1,2.341,9.268,9.268,0,0,0,.959-7.082L217.8,169.272a2,2,0,1,1,3.869-1.015l13.8,52.565a13.316,13.316,0,0,1-12.868,16.729Z" fill="#4d4d4f"/><path d="M130.521,237.552a13.318,13.318,0,0,1-3.364-.433,11.543,11.543,0,0,1-1.114-.349h0l-.37-.138a13.32,13.32,0,0,1-8.019-15.813L150.026,97.53l2.485,3.224a29.894,29.894,0,0,0,19,11.33l2.178.349L143.45,227.6A13.4,13.4,0,0,1,130.521,237.552Zm-3.708-4.776.366.143a7.488,7.488,0,0,0,.985.329,9.383,9.383,0,0,0,11.418-6.669l29.141-110.963a33.813,33.813,0,0,1-16.825-9.467L121.521,221.838A9.322,9.322,0,0,0,126.813,232.776Z" fill="#4d4d4f"/><path d="M229.411,251.438a2,2,0,0,1-1.926-1.466l-3.952-14.257a2,2,0,0,1,3.855-1.069l3.951,14.257a2,2,0,0,1-1.928,2.535Z" fill="#4d4d4f"/><path d="M122.538,250.733a2.022,2.022,0,0,1-.535-.073,2,2,0,0,1-1.393-2.462l3.653-13.177a2,2,0,1,1,3.854,1.068l-3.653,13.178A2,2,0,0,1,122.538,250.733Z" fill="#4d4d4f"/><path d="M181.684,330.435a1.854,1.854,0,0,1-1.315-3.161l76.458-76.919,74.4-74.849a1.854,1.854,0,0,1,3.169,1.307V328.581a1.854,1.854,0,0,1-1.854,1.854Z" fill="#1fc482"/><path d="M301.732,249v48.634a.973.973,0,0,1-.973.972H252.466a.972.972,0,0,1-.69-1.657l48.293-48.635A.973.973,0,0,1,301.732,249Z" fill="#fff"/><path d="M332.542,332.435H181.684a3.855,3.855,0,0,1-2.734-6.572l83.322-83.824a2,2,0,0,1,2.837,2.82l-83.074,83.576H332.4V177.167l-54.443,54.772a2,2,0,1,1-2.837-2.82L329.809,174.1a3.854,3.854,0,0,1,6.587,2.717V328.581A3.858,3.858,0,0,1,332.542,332.435Z" fill="#4d4d4f"/><path d="M300.759,300.608H252.466a2.972,2.972,0,0,1-2.109-5.067l48.293-48.634A2.972,2.972,0,0,1,303.731,249v48.634A2.976,2.976,0,0,1,300.759,300.608Zm-45.824-4h44.8V251.5Z" fill="#4d4d4f"/><circle cx="164.065" cy="318.464" r="5.918" fill="#1fc482"/><circle cx="128.649" cy="59.248" r="5.918" fill="#1fc482"/><path d="M113.821,52.023c-.224,0-.449-.005-.676-.018a11.981,11.981,0,1,1,.676.018ZM113.8,32.09a7.967,7.967,0,1,0,7.965,8.412h0a7.964,7.964,0,0,0-7.508-8.4C114.108,32.094,113.956,32.09,113.8,32.09Z" fill="#4d4d4f"/><path d="M326.471,155.222q-.342,0-.687-.02A11.967,11.967,0,1,1,338.4,143.925h0a11.967,11.967,0,0,1-11.931,11.3Zm-.027-19.934a7.966,7.966,0,1,0,7.964,8.412h0a7.962,7.962,0,0,0-7.508-8.4C326.748,135.292,326.6,135.288,326.444,135.288Z" fill="#4d4d4f"/></svg>