<svg xmlns="http://www.w3.org/2000/svg" xmlns:xlink="http://www.w3.org/1999/xlink" id="Layer_1" data-name="Layer 1" viewBox="0 0 365 351"><defs><linearGradient id="linear-gradient" x1="52.921" y1="175.413" x2="304.372" y2="175.413" gradientUnits="userSpaceOnUse"><stop offset="0.006" stop-color="#d6ebf3"/><stop offset="0.31" stop-color="#dbedf4"/><stop offset="0.64" stop-color="#e8f4f8"/><stop offset="0.99" stop-color="#feffff"/><stop offset="1" stop-color="#fff"/></linearGradient></defs><rect x="52.921" y="69.718" width="251.451" height="211.391" rx="10.58" fill="url(#linear-gradient)"/><path d="M171.1,126.143H137.664a9.9,9.9,0,0,1-9.9-9.9V23.191a9.9,9.9,0,0,1,9.9-9.9H232.18a9.9,9.9,0,0,1,9.9,9.9v93.054a9.9,9.9,0,0,1-9.9,9.9H187.051" fill="#66a0ff"/><rect x="128.315" y="224.857" width="114.312" height="112.85" rx="4.956" fill="#66a0ff"/><path d="M232.18,128.143H187.051a2,2,0,0,1,0-4H232.18a7.907,7.907,0,0,0,7.9-7.9V23.19a7.907,7.907,0,0,0-7.9-7.9H137.664a7.907,7.907,0,0,0-7.9,7.9v93.055a7.907,7.907,0,0,0,7.9,7.9H171.1a2,2,0,0,1,0,4H137.664a11.912,11.912,0,0,1-11.9-11.9V23.19a11.912,11.912,0,0,1,11.9-11.9H232.18a11.912,11.912,0,0,1,11.9,11.9v93.055A11.912,11.912,0,0,1,232.18,128.143Z" fill="#4d4d4f"/><path d="M237.67,339.707h-104.4a6.964,6.964,0,0,1-6.956-6.956V229.813a6.965,6.965,0,0,1,6.956-6.956h104.4a6.964,6.964,0,0,1,6.956,6.956V332.751A6.963,6.963,0,0,1,237.67,339.707Zm-104.4-112.85a2.96,2.96,0,0,0-2.956,2.956V332.751a2.959,2.959,0,0,0,2.956,2.956h104.4a2.959,2.959,0,0,0,2.956-2.956V229.813a2.96,2.96,0,0,0-2.956-2.956Z" fill="#4d4d4f"/><polygon points="323.564 95.192 323.564 44.244 353.873 69.718 323.564 95.192" fill="#f04b46"/><polygon points="275.738 255.673 275.738 306.621 245.428 281.147 275.738 255.673" fill="#f04b46"/><polygon points="78.395 244.668 27.447 244.668 52.921 214.358 78.395 244.668" fill="#f04b46"/><polygon points="94.715 95.192 94.715 44.244 125.025 69.718 94.715 95.192" fill="#f04b46"/><path d="M323.563,97.191a2,2,0,0,1-2-2V44.244a2,2,0,0,1,3.287-1.531l30.31,25.474a2,2,0,0,1,0,3.062L324.85,96.723A2,2,0,0,1,323.563,97.191Zm2-48.653V90.9l25.2-21.18Z" fill="#4d4d4f"/><path d="M275.738,308.621a2,2,0,0,1-1.287-.469l-30.309-25.473a2,2,0,0,1,0-3.063l30.309-25.473a2,2,0,0,1,3.287,1.531v50.947a2,2,0,0,1-2,2Zm-27.2-27.474,25.2,21.181V259.967Z" fill="#4d4d4f"/><path d="M78.4,246.668H27.447a2,2,0,0,1-1.531-3.287l25.474-30.31a2.068,2.068,0,0,1,3.062,0l25.474,30.31a2,2,0,0,1-1.531,3.287Zm-46.654-4H74.1l-21.181-25.2Z" fill="#4d4d4f"/><path d="M94.715,97.191a2,2,0,0,1-2-2V44.244A2,2,0,0,1,96,42.713l30.309,25.474a2,2,0,0,1,0,3.062L96,96.723A2,2,0,0,1,94.715,97.191Zm2-48.653V90.9l25.2-21.18Z" fill="#4d4d4f"/><path d="M323.563,71.718H242.992a2,2,0,0,1,0-4h80.571a2,2,0,0,1,0,4Z" fill="#4d4d4f"/><path d="M295.118,283.147H276.956a2,2,0,0,1,0-4h18.162a7.261,7.261,0,0,0,7.254-7.253v-99.5a2,2,0,0,1,4,0v99.5A11.267,11.267,0,0,1,295.118,283.147Z" fill="#4d4d4f"/><path d="M304.372,155.12a2,2,0,0,1-2-2v-83.4a2,2,0,0,1,4,0v83.4A2,2,0,0,1,304.372,155.12Z" fill="#4d4d4f"/><circle cx="52.921" cy="170.625" r="41.794" fill="#f9c01e"/><path d="M52.921,214.42a43.794,43.794,0,1,1,43.794-43.795A43.845,43.845,0,0,1,52.921,214.42Zm0-83.588a39.794,39.794,0,1,0,39.794,39.793A39.839,39.839,0,0,0,52.921,130.832Z" fill="#4d4d4f"/><path d="M52.921,130.832a2,2,0,0,1-2-2v-50.1A11.267,11.267,0,0,1,62.174,67.479H94.715a2,2,0,0,1,0,4H62.174a7.262,7.262,0,0,0-7.253,7.254v50.1A2,2,0,0,1,52.921,130.832Z" fill="#4d4d4f"/><path d="M128.315,283.417H62.174a11.266,11.266,0,0,1-11.253-11.253v-27.5a2,2,0,0,1,4,0v27.5a7.262,7.262,0,0,0,7.253,7.253h66.141a2,2,0,0,1,0,4Z" fill="#4d4d4f"/><path d="M81.651,201.355a1.993,1.993,0,0,1-1.414-.585l-57.46-57.46a2,2,0,0,1,2.828-2.828l57.46,57.459a2,2,0,0,1-1.414,3.414Z" fill="#4d4d4f"/><path d="M39.621,185.926a2,2,0,0,1-1.414-3.414l42.03-42.03a2,2,0,0,1,2.828,2.828l-42.03,42.03A2,2,0,0,1,39.621,185.926Z" fill="#4d4d4f"/><path d="M24.191,201.355a2,2,0,0,1-1.414-3.414l9.415-9.416a2,2,0,0,1,2.829,2.829l-9.416,9.416A1.993,1.993,0,0,1,24.191,201.355Z" fill="#4d4d4f"/><path d="M270.6,232.124A15.422,15.422,0,1,1,286.021,216.7,15.439,15.439,0,0,1,270.6,232.124Zm0-26.843A11.422,11.422,0,1,0,282.021,216.7,11.435,11.435,0,0,0,270.6,205.281Z" fill="#4d4d4f"/><circle cx="257.178" cy="188.955" r="6.392" fill="#f04b46"/><circle cx="31.857" cy="111.419" r="5.42" fill="#f04b46"/><path d="M211.191,92.38H159.75a4.572,4.572,0,0,1-3.933-6.9L181.538,42.1a4.572,4.572,0,0,1,7.865,0l25.721,43.376A4.572,4.572,0,0,1,211.191,92.38Z" fill="#f9c01e"/><path d="M211.191,94.38H159.75a6.572,6.572,0,0,1-5.653-9.924L179.818,41.08a6.572,6.572,0,0,1,11.306,0l25.72,43.376a6.571,6.571,0,0,1-5.653,9.924Zm-25.72-52.52a2.518,2.518,0,0,0-2.213,1.26L157.538,86.5a2.571,2.571,0,0,0,2.212,3.884h51.441A2.572,2.572,0,0,0,213.4,86.5L187.683,43.12A2.517,2.517,0,0,0,185.471,41.86Z" fill="#4d4d4f"/><circle cx="184.922" cy="281.731" r="29.089" fill="#f9c01e"/><path d="M184.922,312.2a31.089,31.089,0,1,1,31.088-31.089A31.124,31.124,0,0,1,184.922,312.2Zm0-58.177a27.089,27.089,0,1,0,27.088,27.088A27.119,27.119,0,0,0,184.922,254.02Z" fill="#4d4d4f"/></svg>