<svg xmlns="http://www.w3.org/2000/svg" xmlns:xlink="http://www.w3.org/1999/xlink" id="Layer_1" data-name="Layer 1" viewBox="0 0 365 351"><defs><linearGradient id="linear-gradient" x1="56.293" y1="392.683" x2="159.316" y2="290.641" gradientUnits="userSpaceOnUse"><stop offset="0.01" stop-color="#d6ebf3"/><stop offset="0.31" stop-color="#dbedf4"/><stop offset="0.64" stop-color="#e8f4f8"/><stop offset="0.99" stop-color="#feffff"/><stop offset="1" stop-color="#fff"/></linearGradient></defs><path d="M320.608,44.922V271.685a10.047,10.047,0,0,1-10.047,10.047H65.274a10.047,10.047,0,0,1-10.047-10.047V91.9a4.165,4.165,0,0,1,5.821-3.821L136.9,120.96a16.139,16.139,0,0,0,13.448-.28L314.629,41.173A4.165,4.165,0,0,1,320.608,44.922Z" fill="#f9c01e"/><path d="M310.561,283.732H65.273a12.06,12.06,0,0,1-12.046-12.047v-132.3a2,2,0,0,1,4,0v132.3a8.055,8.055,0,0,0,8.046,8.047H310.561a8.056,8.056,0,0,0,8.047-8.047V44.922a2.164,2.164,0,0,0-3.108-1.948l-39.777,19.25a2,2,0,1,1-1.742-3.6l39.776-19.251a6.165,6.165,0,0,1,8.851,5.549V271.685A12.06,12.06,0,0,1,310.561,283.732Z" fill="#4d4d4f"/><path d="M55.227,129.281a2,2,0,0,1-2-2V91.9a6.165,6.165,0,0,1,8.617-5.656l75.85,32.885a14.125,14.125,0,0,0,11.782-.246L265.682,62.64a2,2,0,1,1,1.742,3.6L151.218,122.48a18.12,18.12,0,0,1-15.114.314L60.253,89.91A2.165,2.165,0,0,0,57.227,91.9v35.385A2,2,0,0,1,55.227,129.281Z" fill="#4d4d4f"/><path d="M232.147,283.732a2,2,0,0,1-2-2V139.344a2,2,0,0,1,4,0V281.732A2,2,0,0,1,232.147,283.732Z" fill="#4d4d4f"/><path d="M232.147,131.371a2,2,0,0,1-2-2V81.091a2,2,0,0,1,4,0v48.28A2,2,0,0,1,232.147,131.371Z" fill="#4d4d4f"/><path d="M143.687,283.732a2,2,0,0,1-2-2v-52.12a2,2,0,1,1,4,0v52.12A2,2,0,0,1,143.687,283.732Z" fill="#4d4d4f"/><path d="M143.687,218.417a2,2,0,0,1-2-2V123.9a2,2,0,0,1,4,0v92.514A2,2,0,0,1,143.687,218.417Z" fill="#4d4d4f"/><path d="M143.457,101.024a12.056,12.056,0,0,1-4.8-1L57.021,64.635a2,2,0,1,1,1.59-3.67l81.635,35.392a8.062,8.062,0,0,0,6.727-.14l170-82.274a2,2,0,1,1,1.742,3.6l-170,82.274A12.069,12.069,0,0,1,143.457,101.024Z" fill="#4d4d4f"/><path d="M298.082,9.45l22.127,3.656a1.9,1.9,0,0,1,1.359,2.78L310.855,35.6a.837.837,0,0,1-1.57-.353l-.823-14.694L297.4,10.906A.836.836,0,0,1,298.082,9.45Z" fill="#f04b46"/><rect x="137.407" y="85.775" width="12.56" height="24.701" rx="1.875" fill="#f04b46"/><rect x="223.338" y="46.379" width="12.56" height="24.701" rx="1.875" fill="#f04b46"/><rect x="51.536" y="52.884" width="12.56" height="24.701" rx="1.875" fill="#f04b46"/><circle cx="342.553" cy="110.476" r="6.314" fill="#f9c01e"/><circle cx="14.953" cy="287.605" r="6.314" fill="#f9c01e"/><path d="M345.4,157.415a12.963,12.963,0,1,1,3.351-.443A12.982,12.982,0,0,1,345.4,157.415Zm.012-21.923a9,9,0,0,0-2.333.309,8.908,8.908,0,1,0,2.333-.309Z" fill="#4d4d4f"/><rect x="36.859" y="181.905" width="302.117" height="159.658" rx="6.875" fill="#1fc482"/><path d="M332.1,343.563H43.734a8.885,8.885,0,0,1-8.875-8.875V188.78a8.885,8.885,0,0,1,8.875-8.875H332.1a8.885,8.885,0,0,1,8.875,8.875V334.688A8.885,8.885,0,0,1,332.1,343.563ZM43.734,183.905a4.881,4.881,0,0,0-4.875,4.875V334.688a4.881,4.881,0,0,0,4.875,4.875H332.1a4.881,4.881,0,0,0,4.875-4.875V188.78a4.881,4.881,0,0,0-4.875-4.875Z" fill="#4d4d4f"/><path d="M249.92,203.652h45.036a4.429,4.429,0,0,1,4.263,3.061c1.984,6.484,5.808,10.22,10.979,11.944a4.426,4.426,0,0,1,2.982,4.216V301.58a4.418,4.418,0,0,1-3.135,4.271A15.271,15.271,0,0,0,299.253,316a4.409,4.409,0,0,1-4.187,2.888H82.046a4.48,4.48,0,0,1-4.261-3.119c-1.821-5.675-5.969-8.7-11.628-10a4.492,4.492,0,0,1-3.5-4.367V224.013a4.437,4.437,0,0,1,3.129-4.267c6.162-1.842,10.345-5.951,12.1-12.841a4.417,4.417,0,0,1,4.31-3.253H237.484" fill="url(#linear-gradient)"/><path d="M295.066,320.891H82.045a6.461,6.461,0,0,1-6.165-4.509c-1.493-4.656-4.726-7.41-10.172-8.667a6.467,6.467,0,0,1-5.053-6.316V224.013a6.471,6.471,0,0,1,4.556-6.184c5.7-1.7,9.212-5.438,10.737-11.418a6.4,6.4,0,0,1,6.248-4.759H237.484a2,2,0,0,1,0,4H82.2a2.431,2.431,0,0,0-2.372,1.746c-1.875,7.355-6.407,12.154-13.467,14.264a2.444,2.444,0,0,0-1.7,2.351V301.4a2.484,2.484,0,0,0,1.952,2.418c6.768,1.562,11.169,5.379,13.082,11.343a2.473,2.473,0,0,0,2.356,1.731H295.066a2.4,2.4,0,0,0,2.3-1.549,17.244,17.244,0,0,1,12.128-11.413,2.416,2.416,0,0,0,1.687-2.349V222.874a2.415,2.415,0,0,0-1.614-2.32c-6.062-2.02-10.186-6.48-12.259-13.256a2.435,2.435,0,0,0-2.351-1.646H249.92a2,2,0,0,1,0-4h45.036a6.461,6.461,0,0,1,6.176,4.475c1.7,5.545,4.868,9.023,9.7,10.632a6.409,6.409,0,0,1,4.349,6.115V301.58a6.433,6.433,0,0,1-4.584,6.194,13.272,13.272,0,0,0-9.455,8.888A6.4,6.4,0,0,1,295.066,320.891Z" fill="#4d4d4f"/><path d="M187.916,303.807a5.1,5.1,0,0,1-5.089-5.089v-2.159l-1.361-.459a20.524,20.524,0,0,1-13.807-19.2,5.089,5.089,0,0,1,10.178,0,10.08,10.08,0,1,0,10.079-10.079,20.28,20.28,0,0,1-20.257-20.257,20.516,20.516,0,0,1,13.807-19.193l1.361-.46V224.75a5.089,5.089,0,0,1,10.178,0v2.165l1.361.459a20.508,20.508,0,0,1,13.809,19.192,5.089,5.089,0,1,1-10.178,0,10.08,10.08,0,1,0-10.081,10.079A20.281,20.281,0,0,1,208.175,276.9a20.52,20.52,0,0,1-13.809,19.2l-1.361.459v2.159A5.1,5.1,0,0,1,187.916,303.807Z" fill="#1fc482" stroke="#4d4d4f" stroke-linecap="round" stroke-miterlimit="10" stroke-width="3"/></svg>