<svg xmlns="http://www.w3.org/2000/svg" id="Layer_1" data-name="Layer 1" viewBox="0 0 365 351"><path d="M83.128,95.079a21.068,21.068,0,0,1-4.994-41.536,21.328,21.328,0,0,1,7.073-.5,14.525,14.525,0,1,1,18.558,16.735,21.692,21.692,0,0,1,.425,3.824A21.028,21.028,0,0,1,83.128,95.079Zm.021-38.133a17.453,17.453,0,0,0-4.081.487,17.266,17.266,0,0,0-13,17.2h0A17.075,17.075,0,0,0,86.857,90.674a17.238,17.238,0,0,0,13.334-16.981,17.663,17.663,0,0,0-.427-3.494,3.51,3.51,0,0,1,2.518-4.152A10.525,10.525,0,1,0,89.07,54.152,3.5,3.5,0,0,1,85.2,57.069,17.262,17.262,0,0,0,83.149,56.946Z" fill="#4d4d4f"/><path d="M57.457,77.471H103.64a3.161,3.161,0,0,1,3.161,3.161V119.97a0,0,0,0,1,0,0H54.3a0,0,0,0,1,0,0V80.632A3.161,3.161,0,0,1,57.457,77.471Z" fill="#ff6cb5"/><path d="M129.273,325.642H36.95a4.643,4.643,0,0,1-4.621-5.1L54.3,119.97H106.8Z" fill="#f04b46"/><polygon points="54.296 119.97 106.801 119.97 110.751 157.293 50.209 157.293 54.296 119.97" fill="#1fc482"/><path d="M129.273,325.642H327.125A4.644,4.644,0,0,0,331.769,321V216.648A4.644,4.644,0,0,0,327.125,212H117.307Z" fill="#1fc482"/><path d="M211.229,212V142.762l94.109-26.421a4.051,4.051,0,0,1,5.147,3.9V212Z" fill="#f9c01e"/><path d="M109.368,143.467l96.714-27.126a4.051,4.051,0,0,1,5.147,3.9V212H117.307Z" fill="#f9c01e"/><path d="M277.352,197.529a2,2,0,0,1-2-2V161.5a2,2,0,0,1,4,0v34.031A2,2,0,0,1,277.352,197.529Z" fill="#4d4d4f"/><path d="M244.362,197.529a2,2,0,0,1-2-2V161.5a2,2,0,0,1,4,0v34.031A2,2,0,0,1,244.362,197.529Z" fill="#4d4d4f"/><path d="M178.1,197.529a2,2,0,0,1-2-2V161.5a2,2,0,0,1,4,0v34.031A2,2,0,0,1,178.1,197.529Z" fill="#4d4d4f"/><path d="M145.106,197.529a2,2,0,0,1-2-2V161.5a2,2,0,0,1,4,0v34.031A2,2,0,0,1,145.106,197.529Z" fill="#4d4d4f"/><path d="M156.583,239.619h21.809a3.292,3.292,0,0,1,3.292,3.292v52.616a0,0,0,0,1,0,0H153.291a0,0,0,0,1,0,0V242.911A3.292,3.292,0,0,1,156.583,239.619Z" fill="#fff"/><path d="M215.886,239.619H237.7a3.292,3.292,0,0,1,3.292,3.292v52.616a0,0,0,0,1,0,0H212.594a0,0,0,0,1,0,0V242.911A3.292,3.292,0,0,1,215.886,239.619Z" fill="#fff"/><path d="M275.19,239.619H297a3.292,3.292,0,0,1,3.292,3.292v52.616a0,0,0,0,1,0,0H271.9a0,0,0,0,1,0,0V242.911A3.292,3.292,0,0,1,275.19,239.619Z" fill="#fff"/><circle cx="132.772" cy="68.235" r="10.8" fill="#f04b46"/><path d="M161.6,63.415a20.029,20.029,0,1,1,20.028-20.029A20.052,20.052,0,0,1,161.6,63.415Zm0-36.058a16.029,16.029,0,1,0,16.028,16.029A16.047,16.047,0,0,0,161.6,27.357Z" fill="#4d4d4f"/><circle cx="326.722" cy="195.53" r="5.972" fill="#f04b46"/><path d="M57.457,77.471H103.64a3.161,3.161,0,0,1,3.161,3.161V119.97a0,0,0,0,1,0,0H54.3a0,0,0,0,1,0,0V80.632A3.161,3.161,0,0,1,57.457,77.471Z" fill="#f04b46"/><path d="M108.8,121.97H52.3V80.632a5.167,5.167,0,0,1,5.162-5.161H103.64a5.167,5.167,0,0,1,5.161,5.161Zm-52.5-4H104.8V80.632a1.163,1.163,0,0,0-1.161-1.161H57.458A1.163,1.163,0,0,0,56.3,80.632Z" fill="#4d4d4f"/><path d="M131.5,327.643H36.95a6.644,6.644,0,0,1-6.611-7.3l9.425-86.061a2,2,0,0,1,3.977.436L34.317,320.76a2.645,2.645,0,0,0,2.633,2.883h90.092L105.008,121.97H56.089L45.7,216.873a2,2,0,1,1-3.976-.435L52.5,117.97H108.6Z" fill="#4d4d4f"/><path d="M82.765,159.293H50.829a2,2,0,0,1,0-4H82.765a2,2,0,0,1,0,4Z" fill="#4d4d4f"/><path d="M110.5,159.293H97.308a2,2,0,1,1,0-4H110.5a2,2,0,0,1,0,4Z" fill="#4d4d4f"/><path d="M327.125,327.643H127.473L115.085,210h212.04a6.651,6.651,0,0,1,6.644,6.643V321A6.652,6.652,0,0,1,327.125,327.643Zm-196.052-4H327.125A2.647,2.647,0,0,0,329.769,321V216.647A2.646,2.646,0,0,0,327.125,214h-207.6Z" fill="#4d4d4f"/><path d="M310.485,214a2,2,0,0,1-2-2V120.241a2.052,2.052,0,0,0-2.606-1.975l-92.65,26.011V186.39a2,2,0,0,1-4,0V141.246L304.8,114.415a6.052,6.052,0,0,1,7.687,5.826V212A2,2,0,0,1,310.485,214Z" fill="#4d4d4f"/><path d="M211.229,214a2,2,0,0,1-2-2V199.677a2,2,0,0,1,4,0V212A2,2,0,0,1,211.229,214Z" fill="#4d4d4f"/><path d="M213.229,214H117.307a2,2,0,1,1,0-4h91.922V199.677a2,2,0,0,1,4,0Z" fill="#4d4d4f"/><path d="M211.229,188.39a2,2,0,0,1-2-2V120.241a2.051,2.051,0,0,0-2.606-1.975l-94.109,26.422a2,2,0,1,1-1.081-3.852l94.109-26.421a6.051,6.051,0,0,1,7.687,5.826V186.39A2,2,0,0,1,211.229,188.39Z" fill="#4d4d4f"/><path d="M277.352,197.529a2,2,0,0,1-2-2V161.5a2,2,0,0,1,4,0v34.031A2,2,0,0,1,277.352,197.529Z" fill="#4d4d4f"/><path d="M244.362,197.529a2,2,0,0,1-2-2V161.5a2,2,0,0,1,4,0v34.031A2,2,0,0,1,244.362,197.529Z" fill="#4d4d4f"/><path d="M178.1,197.529a2,2,0,0,1-2-2V161.5a2,2,0,0,1,4,0v34.031A2,2,0,0,1,178.1,197.529Z" fill="#4d4d4f"/><path d="M145.106,197.529a2,2,0,0,1-2-2V161.5a2,2,0,0,1,4,0v34.031A2,2,0,0,1,145.106,197.529Z" fill="#4d4d4f"/><path d="M183.684,297.526H151.291V242.911a5.3,5.3,0,0,1,5.292-5.292h21.809a5.3,5.3,0,0,1,5.292,5.292Zm-28.393-4h24.393V242.911a1.293,1.293,0,0,0-1.292-1.292H156.583a1.293,1.293,0,0,0-1.292,1.292Z" fill="#4d4d4f"/><path d="M242.987,297.526H210.594V242.911a5.3,5.3,0,0,1,5.292-5.292H237.7a5.3,5.3,0,0,1,5.292,5.292Zm-28.393-4h24.393V242.911a1.293,1.293,0,0,0-1.292-1.292H215.886a1.293,1.293,0,0,0-1.292,1.292Z" fill="#4d4d4f"/><path d="M302.291,297.526H269.9V242.911a5.3,5.3,0,0,1,5.293-5.292H297a5.3,5.3,0,0,1,5.292,5.292Zm-28.394-4h24.394V242.911A1.293,1.293,0,0,0,297,241.619H275.19a1.294,1.294,0,0,0-1.293,1.292Z" fill="#4d4d4f"/><path d="M331.769,297.661H127.892a2,2,0,0,1,0-4H331.769a2,2,0,0,1,0,4Z" fill="#4d4d4f"/></svg>