<svg xmlns="http://www.w3.org/2000/svg" id="Layer_1" data-name="Layer 1" viewBox="0 0 365 351"><path d="M52.747,147.637H282.559a40.555,40.555,0,0,1,40.555,40.555h0a40.555,40.555,0,0,1-40.555,40.555H52.747A10.877,10.877,0,0,1,41.87,217.869h0a10.877,10.877,0,0,1,10.877-10.877h231.4a18.8,18.8,0,0,0,18.8-18.8h0a18.8,18.8,0,0,0-18.8-18.8H52.747A10.877,10.877,0,0,1,41.87,158.515h0A10.877,10.877,0,0,1,52.747,147.637Z" fill="#f9c01e"/><path d="M282.56,230.747H52.747a12.878,12.878,0,0,1,0-25.755h231.4a16.8,16.8,0,0,0,0-33.6H52.747a12.878,12.878,0,0,1,0-25.755H282.56a42.555,42.555,0,0,1,0,85.11ZM52.747,208.992a8.878,8.878,0,0,0,0,17.755H282.56a38.555,38.555,0,0,0,0-77.11H52.747a8.878,8.878,0,0,0,0,17.755h231.4a20.8,20.8,0,0,1,0,41.6Z" fill="#4d4d4f"/><path d="M66.885,208.992a2,2,0,0,1-1.791-2.886c5.955-12.054,5.955-23.774,0-35.828a2,2,0,0,1,3.586-1.772c6.453,13.063,6.453,26.309,0,39.371A2,2,0,0,1,66.885,208.992Z" fill="#4d4d4f"/><path d="M312.253,228.747H82.441A40.555,40.555,0,0,0,41.886,269.3h0a40.555,40.555,0,0,0,40.555,40.555H312.253A10.877,10.877,0,0,0,323.13,298.98h0A10.877,10.877,0,0,0,312.253,288.1H80.854a18.8,18.8,0,0,1-18.8-18.8h0a18.8,18.8,0,0,1,18.8-18.8h231.4a10.877,10.877,0,0,0,10.877-10.877h0A10.877,10.877,0,0,0,312.253,228.747Z" fill="#1fc482"/><path d="M312.253,311.857H82.44a42.555,42.555,0,0,1,0-85.11H312.253a12.878,12.878,0,0,1,0,25.755H80.854a16.8,16.8,0,0,0,0,33.6h231.4a12.878,12.878,0,0,1,0,25.755ZM82.44,230.747a38.555,38.555,0,0,0,0,77.11H312.253a8.878,8.878,0,0,0,0-17.755H80.854a20.8,20.8,0,0,1,0-41.6h231.4a8.878,8.878,0,0,0,0-17.755Z" fill="#4d4d4f"/><path d="M298.115,290.1a2,2,0,0,1-1.8-1.115c-6.453-13.063-6.453-26.309,0-39.371a2,2,0,1,1,3.586,1.771c-5.955,12.054-5.955,23.774,0,35.828a2,2,0,0,1-1.791,2.887Z" fill="#4d4d4f"/><path d="M300.345,78.863,178.884,109.881a22.925,22.925,0,0,1-11.342,0L46.081,78.863a3.091,3.091,0,0,1,0-5.99L167.542,41.855a22.925,22.925,0,0,1,11.342,0L300.345,72.873A3.091,3.091,0,0,1,300.345,78.863Z" fill="#66a0ff"/><path d="M173.213,112.591a24.989,24.989,0,0,1-6.166-.772L45.586,80.8a5.091,5.091,0,0,1,0-9.866L126.06,50.384a2,2,0,0,1,.99,3.876L46.576,74.811a1.091,1.091,0,0,0,0,2.114l121.461,31.018a20.973,20.973,0,0,0,10.352,0L299.851,76.925a1.091,1.091,0,0,0,0-2.114L178.389,43.793a20.973,20.973,0,0,0-10.352,0L142.6,50.29a2,2,0,0,1-.991-3.876l25.438-6.5a25.018,25.018,0,0,1,12.332,0L300.841,70.935a5.091,5.091,0,0,1,0,9.866L179.379,111.819A25,25,0,0,1,173.213,112.591Z" fill="#4d4d4f"/><path d="M247.258,147.637H99.168V86.112a3.628,3.628,0,0,1,2.724-3.516,285.687,285.687,0,0,1,142.642,0,3.628,3.628,0,0,1,2.724,3.516Z" fill="#66a0ff"/><path d="M249.258,149.637H97.168v-26.4a2,2,0,1,1,4,0v22.4h144.09V86.112a1.619,1.619,0,0,0-1.217-1.577,285,285,0,0,0-141.657,0,1.619,1.619,0,0,0-1.217,1.577v24.481a2,2,0,1,1-4,0V86.112a5.616,5.616,0,0,1,4.232-5.454,288.953,288.953,0,0,1,143.626,0,5.616,5.616,0,0,1,4.233,5.454Z" fill="#4d4d4f"/><path d="M302.672,111a2,2,0,0,1-2-2V75.177a2,2,0,0,1,4,0V109A2,2,0,0,1,302.672,111Z" fill="#4d4d4f"/><circle cx="302.672" cy="117.874" r="8.817" fill="#fff"/><path d="M302.672,128.691a10.817,10.817,0,1,1,10.816-10.817A10.83,10.83,0,0,1,302.672,128.691Zm0-17.634a6.817,6.817,0,1,0,6.816,6.817A6.825,6.825,0,0,0,302.672,111.057Z" fill="#4d4d4f"/><circle cx="315.538" cy="100.934" r="5.158" fill="#f9c01e"/><circle cx="50.797" cy="130.284" r="7.043" fill="#f9c01e"/><path d="M210.347,190.192H73.627a2,2,0,0,1,0-4h136.72a2,2,0,0,1,0,4Z" fill="#4d4d4f"/><path d="M238.732,190.192H223a2,2,0,0,1,0-4h15.728a2,2,0,0,1,0,4Z" fill="#4d4d4f"/><path d="M302.945,190.192H250.9a2,2,0,0,1,0-4h52.044a2,2,0,0,1,0,4Z" fill="#4d4d4f"/><path d="M292.952,271.3H186.466a2,2,0,0,1,0-4H292.952a2,2,0,0,1,0,4Z" fill="#4d4d4f"/><path d="M175.407,271.3h-10.7a2,2,0,0,1,0-4h10.7a2,2,0,1,1,0,4Z" fill="#4d4d4f"/><path d="M153.3,271.3H62.282a2,2,0,1,1,0-4H153.3a2,2,0,0,1,0,4Z" fill="#4d4d4f"/></svg>