<svg xmlns="http://www.w3.org/2000/svg" xmlns:xlink="http://www.w3.org/1999/xlink" id="Layer_1" data-name="Layer 1" viewBox="0 0 365 351"><defs><linearGradient id="linear-gradient" x1="253.298" y1="226.327" x2="391.47" y2="61.762" gradientUnits="userSpaceOnUse"><stop offset="0.01" stop-color="#d6ebf3"/><stop offset="0.31" stop-color="#dbedf4"/><stop offset="0.64" stop-color="#e8f4f8"/><stop offset="0.99" stop-color="#feffff"/><stop offset="1" stop-color="#fff"/></linearGradient></defs><path d="M258.246,67.592h53.238c3.087,0,5.589,2.5,5.589,71.338V301.173a5.6,5.6,0,0,1-5.6,5.6H258.246" fill="url(#linear-gradient)"/><path d="M311.484,308.773H258.246a2,2,0,0,1,0-4h53.238a3.592,3.592,0,0,0,3.588-3.588V253.7a2,2,0,0,1,4,0v47.488A7.6,7.6,0,0,1,311.484,308.773Z" fill="#4d4d4f"/><path d="M317.072,239.169a2,2,0,0,1-2-2V73.181a3.592,3.592,0,0,0-3.588-3.589H258.246a2,2,0,0,1,0-4h53.238a7.6,7.6,0,0,1,7.588,7.589V237.169A2,2,0,0,1,317.072,239.169Z" fill="#4d4d4f"/><path d="M287.422,97.293h-33.58a2,2,0,1,1,0-4h33.58a2,2,0,0,1,0,4Z" fill="#4d4d4f"/><path d="M287.469,132.653H253.417a2,2,0,0,1,0-4h34.052a2,2,0,0,1,0,4Z" fill="#4d4d4f"/><path d="M287.517,168.014H252.992a2,2,0,1,1,0-4h34.525a2,2,0,0,1,0,4Z" fill="#4d4d4f"/><path d="M287.564,203.374h-35a2,2,0,0,1,0-4h35a2,2,0,0,1,0,4Z" fill="#4d4d4f"/><path d="M287.611,238.734H252.143a2,2,0,0,1,0-4h35.468a2,2,0,0,1,0,4Z" fill="#4d4d4f"/><path d="M287.659,274.1H251.718a2,2,0,1,1,0-4h35.941a2,2,0,0,1,0,4Z" fill="#4d4d4f"/><path d="M86.058,301.564l165.215,24.659a6.076,6.076,0,0,0,6.973-6.009V54.152a6.076,6.076,0,0,0-6.973-6.009L86.058,72.8a6.076,6.076,0,0,0-5.179,6.009V295.555A6.076,6.076,0,0,0,86.058,301.564Z" fill="#1fc482"/><path d="M252.173,328.29a8.131,8.131,0,0,1-1.194-.088L85.763,303.543a8.126,8.126,0,0,1-6.884-7.988V78.811a8.126,8.126,0,0,1,6.884-7.988l92.811-13.852a2,2,0,1,1,.59,3.957L86.353,74.78a4.1,4.1,0,0,0-3.474,4.031V295.555a4.1,4.1,0,0,0,3.474,4.031l165.215,24.659a4.075,4.075,0,0,0,4.678-4.031V54.151a4.075,4.075,0,0,0-4.678-4.03l-55.734,8.318a2,2,0,0,1-.59-3.957l55.735-8.318a8.078,8.078,0,0,1,9.267,7.987V320.214a8.076,8.076,0,0,1-8.073,8.076Z" fill="#4d4d4f"/><path d="M133.131,157.6l-12.075-18.179a1.812,1.812,0,0,1,1.51-2.814H146.46a1.812,1.812,0,0,1,1.509.809l17.93,27a1.812,1.812,0,0,0,3.019,0l17.93-27a1.811,1.811,0,0,1,1.509-.809h23.9a1.812,1.812,0,0,1,1.51,2.814L182.2,186.946a1.812,1.812,0,0,0,0,2l31.559,47.53a1.813,1.813,0,0,1-1.51,2.815h-23.9a1.81,1.81,0,0,1-1.509-.81l-17.93-27a1.812,1.812,0,0,0-3.019,0l-17.93,27a1.811,1.811,0,0,1-1.509.81H122.566a1.813,1.813,0,0,1-1.51-2.815l31.57-47.529a1.81,1.81,0,0,0,0-2l-14.079-21.2" fill="#fff"/><path d="M212.252,241.3h-23.9a3.8,3.8,0,0,1-3.175-1.7l-17.774-26.766-17.773,26.766a3.8,3.8,0,0,1-3.175,1.7h-23.9a3.812,3.812,0,0,1-3.174-5.922l31.5-47.425-14.012-21.093a2,2,0,1,1,3.332-2.212l14.08,21.2a3.805,3.805,0,0,1,0,4.218L122.916,237.3h23.442l17.874-26.917a3.809,3.809,0,0,1,3.176-1.7h0a3.806,3.806,0,0,1,3.174,1.7L188.458,237.3H211.9l-31.364-47.238a3.807,3.807,0,0,1,0-4.218L211.9,138.6H188.458l-17.874,26.916a3.8,3.8,0,0,1-3.174,1.7h0a3.8,3.8,0,0,1-3.176-1.7L146.358,138.6H122.917l11.88,17.886a2,2,0,1,1-3.332,2.213l-12.074-18.179a3.811,3.811,0,0,1,3.174-5.92h23.9a3.8,3.8,0,0,1,3.177,1.7l17.771,26.762,17.774-26.764a3.8,3.8,0,0,1,3.175-1.7h23.9a3.812,3.812,0,0,1,3.176,5.92l-31.49,47.425,31.49,47.427a3.813,3.813,0,0,1-3.176,5.921Z" fill="#4d4d4f"/><circle cx="278.361" cy="48.075" r="5.265" fill="#1fc482"/><circle cx="91.408" cy="321.026" r="5.265" fill="#1fc482"/><path d="M297.473,44.81a11.051,11.051,0,1,1,11.05-11.05A11.063,11.063,0,0,1,297.473,44.81Zm0-18.1a7.051,7.051,0,1,0,7.05,7.051A7.059,7.059,0,0,0,297.473,26.709Z" fill="#4d4d4f"/><path d="M56.978,291.286a11.051,11.051,0,1,1,11.05-11.051A11.063,11.063,0,0,1,56.978,291.286Zm0-18.1a7.051,7.051,0,1,0,7.05,7.05A7.058,7.058,0,0,0,56.978,273.185Z" fill="#4d4d4f"/></svg>