<svg xmlns="http://www.w3.org/2000/svg" id="Layer_1" data-name="Layer 1" viewBox="0 0 365 351"><rect x="22.278" y="59.331" width="320.113" height="226.23" rx="15.991" fill="#66a0ff"/><path d="M342.722,181.549a2,2,0,0,1-2-2V76.053a15.8,15.8,0,0,0-15.785-15.785H229.615a2,2,0,0,1,0-4h95.322a19.808,19.808,0,0,1,19.785,19.785v103.5A2,2,0,0,1,342.722,181.549Z" fill="#4d4d4f"/><path d="M342.722,246.212a2,2,0,0,1-2-2V197.828a2,2,0,1,1,4,0v46.384A2,2,0,0,1,342.722,246.212Z" fill="#4d4d4f"/><path d="M324.937,288.141H41.331a19.808,19.808,0,0,1-19.785-19.786V76.053A19.807,19.807,0,0,1,41.331,56.268H147.592a2,2,0,0,1,0,4H41.331A15.8,15.8,0,0,0,25.546,76.053v192.3a15.8,15.8,0,0,0,15.785,15.786H324.937a15.8,15.8,0,0,0,15.785-15.786V244.212a2,2,0,0,1,4,0v24.143A19.808,19.808,0,0,1,324.937,288.141Z" fill="#4d4d4f"/><path d="M205.641,318.7a2,2,0,0,1-2-2V288.141H161.654V316.7a2,2,0,0,1-4,0V284.141h49.987V316.7A2,2,0,0,1,205.641,318.7Z" fill="#4d4d4f"/><path d="M219,318.7H146.549a2,2,0,0,1,0-4H219a2,2,0,0,1,0,4Z" fill="#4d4d4f"/><path d="M193.733,267.635h-21.5a2,2,0,0,1,0-4h21.5a2,2,0,0,1,0,4Z" fill="#4d4d4f"/><path d="M342.722,246.212H37.754a2,2,0,0,1,0-4H342.722a2,2,0,0,1,0,4Z" fill="#4d4d4f"/><circle cx="225.866" cy="301.42" r="5.752" fill="#f04b46"/><path d="M246.473,322.454a12.1,12.1,0,1,1,12.1-12.1A12.114,12.114,0,0,1,246.473,322.454Zm0-20.2a8.1,8.1,0,1,0,8.1,8.1A8.109,8.109,0,0,0,246.473,302.255Z" fill="#4d4d4f"/><path d="M222.181,243.324V228.1a6.124,6.124,0,0,1,3.361-5.484,96.253,96.253,0,0,0,53.14-91.165c-2.493-49.121-42.449-88.872-91.582-91.132a96.271,96.271,0,0,0-47.319,182.4,5.722,5.722,0,0,1,3.147,5.134v15.306" fill="#f9c01e"/><path d="M143.092,246.212a2,2,0,0,1-2-2V227.186a3.744,3.744,0,0,0-2.038-3.343A98.362,98.362,0,0,1,92.3,97.277a2,2,0,0,1,3.679,1.571,94.361,94.361,0,0,0,44.854,121.413,7.771,7.771,0,0,1,4.258,6.925v17.026A2,2,0,0,1,143.092,246.212Z" fill="#4d4d4f"/><path d="M222.345,246.212a2,2,0,0,1-2-2V227.429a8.074,8.074,0,0,1,4.467-7.273A94.269,94.269,0,1,0,102.664,86.019,2,2,0,1,1,99.27,83.9,98.268,98.268,0,1,1,226.6,223.734a4.1,4.1,0,0,0-2.256,3.695v16.783A2,2,0,0,1,222.345,246.212Z" fill="#4d4d4f"/><path d="M276.572,41.591H86.382a2,2,0,0,1,0-4h190.19a2,2,0,0,1,0,4Z" fill="#4d4d4f"/><circle cx="278.974" cy="136.292" r="7.762" fill="#f04b46"/><circle cx="86.382" cy="39.494" r="7.762" fill="#f04b46"/><circle cx="86.462" cy="136.671" r="7.762" fill="#f04b46"/><rect x="173.557" y="30.546" width="17.994" height="17.994" rx="2.239" fill="#f04b46"/><path d="M278.974,146.054a9.762,9.762,0,1,1,9.761-9.762A9.773,9.773,0,0,1,278.974,146.054Zm0-15.524a5.762,5.762,0,1,0,5.761,5.762A5.769,5.769,0,0,0,278.974,130.53Z" fill="#4d4d4f"/><path d="M86.382,50.129a9.762,9.762,0,1,1,9.762-9.762A9.773,9.773,0,0,1,86.382,50.129Zm0-15.524a5.762,5.762,0,1,0,5.762,5.762A5.769,5.769,0,0,0,86.382,34.6Z" fill="#4d4d4f"/><circle cx="276.572" cy="40.464" r="7.762" fill="#f04b46"/><path d="M276.572,50.226a9.762,9.762,0,1,1,9.762-9.762A9.772,9.772,0,0,1,276.572,50.226Zm0-15.524a5.762,5.762,0,1,0,5.762,5.762A5.769,5.769,0,0,0,276.572,34.7Z" fill="#4d4d4f"/><path d="M86.462,146.434a9.763,9.763,0,1,1,9.763-9.763A9.774,9.774,0,0,1,86.462,146.434Zm0-15.525a5.763,5.763,0,1,0,5.763,5.762A5.769,5.769,0,0,0,86.462,130.909Z" fill="#4d4d4f"/><path d="M189.476,50.54H175.96a4.244,4.244,0,0,1-4.239-4.239V32.785a4.244,4.244,0,0,1,4.239-4.239h13.516a4.244,4.244,0,0,1,4.239,4.239V46.3A4.244,4.244,0,0,1,189.476,50.54ZM175.96,32.546a.24.24,0,0,0-.239.239V46.3a.24.24,0,0,0,.239.239h13.516a.24.24,0,0,0,.239-.239V32.785a.24.24,0,0,0-.239-.239Z" fill="#4d4d4f"/><path d="M207.829,172.644H157.607a49.8,49.8,0,0,0-14.888-34.72l-3.408-3.35a5.009,5.009,0,0,1-.487-6.592l39.895-52.851a5.011,5.011,0,0,1,8,0l39.895,52.851a5.009,5.009,0,0,1-.487,6.592l-3.408,3.35A49.8,49.8,0,0,0,207.829,172.644Z" fill="#1fc482"/><path d="M209.8,174.645H155.639l-.032-1.968a47.521,47.521,0,0,0-14.29-33.326L137.909,136a7.03,7.03,0,0,1-.681-9.225l39.895-52.85a7.01,7.01,0,0,1,11.189,0l39.9,52.85a7.033,7.033,0,0,1-.681,9.224l-3.41,3.351a47.515,47.515,0,0,0-14.289,33.326Zm-50.258-4H205.9A51.473,51.473,0,0,1,221.315,136.5l3.41-3.35a3.019,3.019,0,0,0,.291-3.96l-39.9-52.851a3.011,3.011,0,0,0-4.805,0l-39.9,52.851a3.018,3.018,0,0,0,.292,3.96l3.409,3.35A51.478,51.478,0,0,1,159.539,170.645Z" fill="#4d4d4f"/><circle cx="182.718" cy="136.244" r="9.977" fill="#fff"/><path d="M182.718,148.221A11.978,11.978,0,1,1,194.7,136.243,11.991,11.991,0,0,1,182.718,148.221Zm0-19.955a7.978,7.978,0,1,0,7.977,7.977A7.986,7.986,0,0,0,182.718,128.266Z" fill="#4d4d4f"/><path d="M182.718,90.173a2,2,0,0,1-2-2V73.14a2,2,0,0,1,4,0V88.173A2,2,0,0,1,182.718,90.173Z" fill="#4d4d4f"/><polyline points="207.59 189.446 207.59 244.212 158.674 244.212 158.674 189.446" fill="#1fc482"/><path d="M209.55,246.212H156.634V189.446a2,2,0,0,1,4,0v52.766H205.55V189.446a2,2,0,1,1,4,0Z" fill="#4d4d4f"/><rect x="146.471" y="172.644" width="71.728" height="16.802" rx="3.888" fill="#fff"/><path d="M170.262,189.446H152.136a5.665,5.665,0,0,1-5.665-5.665v-5.472a5.665,5.665,0,0,1,5.665-5.665h60.4a5.666,5.666,0,0,1,5.666,5.665v5.472a5.666,5.666,0,0,1-5.666,5.665h-30.2" fill="#fff"/><path d="M212.533,191.446h-30.2a2,2,0,0,1,0-4h30.2a3.669,3.669,0,0,0,3.665-3.666v-5.47a3.669,3.669,0,0,0-3.665-3.665h-60.4a3.669,3.669,0,0,0-3.665,3.665v5.47a3.669,3.669,0,0,0,3.665,3.666h18.126a2,2,0,0,1,0,4H152.136a7.675,7.675,0,0,1-7.665-7.666v-5.47a7.674,7.674,0,0,1,7.665-7.665h60.4a7.673,7.673,0,0,1,7.665,7.665v5.47A7.674,7.674,0,0,1,212.533,191.446Z" fill="#4d4d4f"/><path d="M182.718,127.691a2,2,0,0,1-2-2V97.352a2,2,0,0,1,4,0v28.339A2,2,0,0,1,182.718,127.691Z" fill="#4d4d4f"/></svg>