<svg xmlns="http://www.w3.org/2000/svg" id="Layer_1" data-name="Layer 1" viewBox="0 0 365 351"><path d="M27.218,50.265H337.782a16.387,16.387,0,0,1,16.387,16.387V271.759a21.149,21.149,0,0,1-21.149,21.149H31.981a21.149,21.149,0,0,1-21.149-21.149V66.651A16.387,16.387,0,0,1,27.218,50.265Z" fill="#66a0ff"/><path d="M335.1,295.011H30.909A21.1,21.1,0,0,1,9.837,273.939V67.678A21.1,21.1,0,0,1,30.909,46.606H335.1a21.1,21.1,0,0,1,21.071,21.072V226.786a2,2,0,0,1-4,0V67.678A17.091,17.091,0,0,0,335.1,50.606H30.909A17.091,17.091,0,0,0,13.837,67.678V273.939a17.091,17.091,0,0,0,17.072,17.072H335.1a17.091,17.091,0,0,0,17.071-17.072v-25.9a2,2,0,0,1,4,0v25.9A21.1,21.1,0,0,1,335.1,295.011Z" fill="#4d4d4f"/><path d="M207.143,327.787a2,2,0,0,1-2-2V295.011H159.819v30.776a2,2,0,0,1-4,0V291.011h53.324v34.776A2,2,0,0,1,207.143,327.787Z" fill="#4d4d4f"/><path d="M221.474,327.787h-77.71a2,2,0,0,1,0-4h77.71a2,2,0,0,1,0,4Z" fill="#4d4d4f"/><path d="M194.371,273.018H171.306a2,2,0,1,1,0-4h23.065a2,2,0,1,1,0,4Z" fill="#fff"/><rect x="57.54" y="66.001" width="254.309" height="181.436" fill="#f9c01e"/><path d="M74.439,21.186H294.949a16.9,16.9,0,0,1,16.9,16.9V66a0,0,0,0,1,0,0H57.54a0,0,0,0,1,0,0V38.086A16.9,16.9,0,0,1,74.439,21.186Z" fill="#f04b46"/><path d="M311.849,235.886a2,2,0,0,1-2-2V39.564a16.4,16.4,0,0,0-16.378-16.378H75.917A16.4,16.4,0,0,0,59.54,39.564V233.886a2,2,0,0,1-4,0V39.564A20.4,20.4,0,0,1,75.917,19.186H293.471a20.4,20.4,0,0,1,20.378,20.378V233.886A2,2,0,0,1,311.849,235.886Z" fill="#4d4d4f"/><path d="M354.168,250.041H27.076a2,2,0,0,1,0-4H354.168a2,2,0,0,1,0,4Z" fill="#4d4d4f"/><path d="M311.365,68H70.263a2,2,0,0,1,0-4h241.1a2,2,0,0,1,0,4Z" fill="#4d4d4f"/><circle cx="82.77" cy="43.594" r="8.684" fill="#fff"/><path d="M82.77,54.277A10.684,10.684,0,1,1,93.454,43.594,10.7,10.7,0,0,1,82.77,54.277Zm0-17.367a6.684,6.684,0,1,0,6.684,6.684A6.691,6.691,0,0,0,82.77,36.91Z" fill="#4d4d4f"/><circle cx="110.558" cy="43.594" r="8.684" fill="#fff"/><path d="M110.558,54.277a10.684,10.684,0,1,1,10.683-10.683A10.7,10.7,0,0,1,110.558,54.277Zm0-17.367a6.684,6.684,0,1,0,6.683,6.684A6.691,6.691,0,0,0,110.558,36.91Z" fill="#4d4d4f"/><circle cx="137.573" cy="43.594" r="8.684" fill="#fff"/><path d="M137.573,54.277a10.684,10.684,0,1,1,10.684-10.683A10.695,10.695,0,0,1,137.573,54.277Zm0-17.367a6.684,6.684,0,1,0,6.684,6.684A6.691,6.691,0,0,0,137.573,36.91Z" fill="#4d4d4f"/><circle cx="228.835" cy="309.399" r="6.169" fill="#66a0ff"/><path d="M250.937,331.814a12.833,12.833,0,1,1,12.833-12.833A12.848,12.848,0,0,1,250.937,331.814Zm0-21.665a8.833,8.833,0,1,0,8.833,8.832A8.842,8.842,0,0,0,250.937,310.149Z" fill="#4d4d4f"/><path d="M252.206,218.128h-.162l-.779,0a5.821,5.821,0,0,1-5.787-5.875h0a5.821,5.821,0,0,1,5.854-5.766l.821,0a5.166,5.166,0,0,0,5.214-5.166v-5.989a24.848,24.848,0,0,1,8.842-18.985.066.066,0,0,0,0-.1,24.833,24.833,0,0,1-8.861-19.021v-5.6a5.237,5.237,0,0,0-5.237-5.236h-.883a5.82,5.82,0,0,1-5.82-5.821h0a5.82,5.82,0,0,1,5.82-5.82h.883a16.877,16.877,0,0,1,16.877,16.877v5.6a13.258,13.258,0,0,0,8.718,12.441,6.946,6.946,0,0,1,4.531,6.523v.146a6.95,6.95,0,0,1-4.51,6.581,13.254,13.254,0,0,0-8.72,12.418v5.522a17.39,17.39,0,0,1-3.618,10.893A16.752,16.752,0,0,1,252.206,218.128Z" fill="#fff"/><path d="M117.182,178.689h.162l.849,0a5.82,5.82,0,0,0,5.787-5.875h0a5.821,5.821,0,0,0-5.853-5.766l-.892,0a5.166,5.166,0,0,1-5.214-5.165v-5.99a24.844,24.844,0,0,0-8.842-18.984.066.066,0,0,1,0-.1,24.833,24.833,0,0,0,8.861-19.021v-5.6a5.237,5.237,0,0,1,5.237-5.237h.883a5.82,5.82,0,0,0,5.82-5.82h0a5.82,5.82,0,0,0-5.82-5.82h-.883A16.877,16.877,0,0,0,100.4,112.188v5.6a13.257,13.257,0,0,1-8.718,12.44,6.946,6.946,0,0,0-4.531,6.524v.145a6.951,6.951,0,0,0,4.51,6.582,13.254,13.254,0,0,1,8.72,12.417v5.523A17.394,17.394,0,0,0,104,172.308,16.753,16.753,0,0,0,117.182,178.689Z" fill="#fff"/><path d="M252.206,220.128l-.952,0a7.821,7.821,0,0,1,.045-15.641h.045l.82,0a3.1,3.1,0,0,0,2.268-.919,3.147,3.147,0,0,0,.934-2.247v-5.989a26.809,26.809,0,0,1,7.941-19.034,26.817,26.817,0,0,1-7.959-19.075v-5.6a3.24,3.24,0,0,0-3.237-3.236h-.883a7.821,7.821,0,1,1,0-15.641h.883a18.9,18.9,0,0,1,18.877,18.877v5.6a11.278,11.278,0,0,0,7.4,10.561,8.968,8.968,0,0,1,5.845,8.4v.138a8.986,8.986,0,0,1-5.822,8.472,11.285,11.285,0,0,0-7.408,10.54v5.522A19.45,19.45,0,0,1,266.952,213,18.815,18.815,0,0,1,252.206,220.128Zm-.907-11.646a3.826,3.826,0,0,0-3.82,3.785,3.821,3.821,0,0,0,3.8,3.856l.779,0,.15,2v-2a14.833,14.833,0,0,0,11.622-5.63,15.44,15.44,0,0,0,3.179-9.644v-5.522a15.3,15.3,0,0,1,10.031-14.3,4.969,4.969,0,0,0,3.2-4.7V176.2a4.958,4.958,0,0,0-3.215-4.657,15.293,15.293,0,0,1-10.033-14.32v-5.6a14.894,14.894,0,0,0-14.877-14.877h-.883a3.821,3.821,0,1,0,0,7.641h.883a7.244,7.244,0,0,1,7.237,7.236v5.6a22.843,22.843,0,0,0,8.15,17.492l.715.6.02.987a2.055,2.055,0,0,1-.753,1.586,22.838,22.838,0,0,0-8.114,17.441v5.989a7.164,7.164,0,0,1-7.246,7.165l-.8,0Zm13.616-30.713.009.008Z" fill="#4d4d4f"/><path d="M117.183,180.689a18.807,18.807,0,0,1-14.746-7.132,19.434,19.434,0,0,1-4.056-12.141v-5.523a11.286,11.286,0,0,0-7.408-10.539,8.983,8.983,0,0,1-5.822-8.464v-.148a8.97,8.97,0,0,1,5.847-8.4,11.279,11.279,0,0,0,7.4-10.561v-5.6a18.9,18.9,0,0,1,18.877-18.877h.883a7.82,7.82,0,1,1,0,15.64h-.883a3.24,3.24,0,0,0-3.236,3.237v5.6a26.815,26.815,0,0,1-7.96,19.075,26.809,26.809,0,0,1,7.94,19.033v5.99a3.146,3.146,0,0,0,.937,2.249,3.277,3.277,0,0,0,2.245.917l.912-.006h.045a7.821,7.821,0,0,1,.045,15.641Zm.094-83.378A14.893,14.893,0,0,0,102.4,112.188v5.6A15.289,15.289,0,0,1,92.366,132.1a4.958,4.958,0,0,0-3.215,4.65v.147a4.97,4.97,0,0,0,3.2,4.7,15.3,15.3,0,0,1,10.031,14.295v5.523a15.43,15.43,0,0,0,3.18,9.643,14.829,14.829,0,0,0,11.622,5.63v2l.071-2,.928,0a3.821,3.821,0,0,0-.044-7.641l-.89,0a7.235,7.235,0,0,1-5.1-2.073,7.12,7.12,0,0,1-2.124-5.092v-5.99a22.849,22.849,0,0,0-8.134-17.458l-.7-.6-.029-.973a2.064,2.064,0,0,1,.729-1.584,22.85,22.85,0,0,0,8.158-17.5v-5.6a7.245,7.245,0,0,1,7.236-7.237h.883a3.82,3.82,0,1,0,0-7.64Zm-12.816,38.063.02.017Z" fill="#4d4d4f"/><path d="M204.3,139.983h-60.97a2,2,0,1,1,0-4H204.3a2,2,0,0,1,0,4Z" fill="#4d4d4f"/><path d="M225.783,177.455H164.914a2,2,0,0,1,0-4h60.869a2,2,0,0,1,0,4Z" fill="#4d4d4f"/><path d="M225.783,102.512H143.331a2,2,0,0,1,0-4h82.452a2,2,0,0,1,0,4Z" fill="#4d4d4f"/><path d="M225.783,214.926H143.331a2,2,0,1,1,0-4h82.452a2,2,0,0,1,0,4Z" fill="#4d4d4f"/><path d="M225.783,139.983H214.935a2,2,0,0,1,0-4h10.848a2,2,0,0,1,0,4Z" fill="#4d4d4f"/><path d="M153.716,177.455H143.331a2,2,0,0,1,0-4h10.385a2,2,0,0,1,0,4Z" fill="#4d4d4f"/></svg>