<svg xmlns="http://www.w3.org/2000/svg" id="Layer_1" data-name="Layer 1" viewBox="0 0 365 351"><circle cx="192.497" cy="175.5" r="140.462" fill="#66a0ff"/><path d="M192.49,317.949a142.848,142.848,0,0,1-34.556-4.237,140.389,140.389,0,0,1-40.01-16.827A142.314,142.314,0,0,1,50.042,175.5a142.462,142.462,0,0,1,233.7-109.4A143.49,143.49,0,0,1,323.782,120.1a143.056,143.056,0,0,1,5.788,94.335,2,2,0,0,1-3.847-1.092,138.508,138.508,0,1,0-205.7,80.134A136.38,136.38,0,0,0,158.9,309.83a139.21,139.21,0,0,0,75.063-2.195,138.855,138.855,0,0,0,86.132-78.286,2,2,0,1,1,3.683,1.558A142.289,142.289,0,0,1,192.49,317.949Z" fill="#4d4d4f"/><path d="M244.2,207.772,260.418,258.4a2.346,2.346,0,0,0,4.455.04L284.465,200.8c.6-1.631,1.134-3.222,1.632-4.794a.487.487,0,0,0,.039-.139c16.53-52.432-14.619-79.463-14.619-79.463l-2.288-2.566a28.753,28.753,0,0,1,13.227-46.207C300.869,81.118,313.2,99.54,321.94,120.88c-1.313,8.215-3.839,17.782-7.758,29.856l-16.27,47.9-28.345,83.422a7.619,7.619,0,0,0-.04,4.754,21.005,21.005,0,0,1,1.015,5.47,139.345,139.345,0,0,1-35.982,17.265l-2.805.432-35.8-111a2.066,2.066,0,0,0-3.918-.04l-29.3,86.227a7.619,7.619,0,0,0-.04,4.754l7.092,22.194a1.3,1.3,0,0,1-1.5,1.673l-9.868-2.007a138.533,138.533,0,0,1-39.444-16.589L63.081,120.82A139.251,139.251,0,0,1,77.343,95.082h43.6a6.219,6.219,0,0,1,6.3,5.551,6.013,6.013,0,0,1-5.99,6.482H108.929a3.5,3.5,0,0,0-3.341,4.575l48.016,149.8a2.346,2.346,0,0,0,4.456.04l18.131-53.361,10.869-31.991a7.787,7.787,0,0,0,.04-4.853l-19.811-61.781a3.486,3.486,0,0,0-3.342-2.427h-11.08a6.225,6.225,0,0,1-6.311-5.631,6.009,6.009,0,0,1,6.013-6.4h75.208a6.017,6.017,0,1,1,0,12.033H216.738a3.493,3.493,0,0,0-3.322,4.575l25.318,79.029" fill="#fff"/><path d="M155.844,265.119h-.038a4.3,4.3,0,0,1-4.105-3.014L103.684,112.3a5.5,5.5,0,0,1,5.245-7.186h12.333a4.013,4.013,0,0,0,4-4.335,4.248,4.248,0,0,0-4.311-3.7H78.387a137.643,137.643,0,0,0-13.174,23.84l35.708,111.9a2,2,0,0,1-3.811,1.217L60.95,120.723l.289-.683A141.73,141.73,0,0,1,75.706,93.932l.6-.851h44.643a8.207,8.207,0,0,1,8.3,7.407,8.009,8.009,0,0,1-7.985,8.627H108.929a1.506,1.506,0,0,0-1.23.621,1.477,1.477,0,0,0-.209,1.336l48.018,149.806a.318.318,0,0,0,.331.241h0a.313.313,0,0,0,.325-.24l29-85.346a5.8,5.8,0,0,0,.026-3.606l-19.808-61.775a1.491,1.491,0,0,0-1.438-1.037h-11.08a8.2,8.2,0,0,1-8.307-7.506,8.011,8.011,0,0,1,8.009-8.528h75.207a8.017,8.017,0,1,1,0,16.034H216.737a1.492,1.492,0,0,0-1.419,1.957l11.117,34.145a2,2,0,0,1-3.8,1.238L211.515,112.31a5.493,5.493,0,0,1,5.222-7.2h11.039a4.017,4.017,0,1,0,0-8.034H152.569a4.011,4.011,0,0,0-4.017,4.275,4.246,4.246,0,0,0,4.315,3.759h11.08a5.47,5.47,0,0,1,5.249,3.825l19.809,61.773a9.835,9.835,0,0,1-.052,6.11l-29,85.348A4.289,4.289,0,0,1,155.844,265.119Z" fill="#4d4d4f"/><path d="M168.56,315.808a3.34,3.34,0,0,1-.672-.069l-9.868-2.008a140.459,140.459,0,0,1-40.1-16.846l-.625-.387L101.459,247.6a2,2,0,0,1,3.8-1.233l15.385,47.494A136.38,136.38,0,0,0,158.9,309.83l8.621,1.752-6.731-21.061a9.687,9.687,0,0,1,.049-6l29.3-86.231a3.95,3.95,0,0,1,3.867-2.746,4.015,4.015,0,0,1,3.846,2.809l35.282,109.388.97-.149a137.3,137.3,0,0,0,34.348-16.323,18.81,18.81,0,0,0-.825-3.832,9.684,9.684,0,0,1,.045-6.02l44.616-131.322c3.879-11.952,6.3-21.191,7.586-28.976-9.253-22.39-21.621-39.176-37.776-51.262a26.756,26.756,0,0,0-11.356,42.677l2.188,2.453c1,.9,8.385,7.8,13.931,20.7,5.335,12.413,9.873,32.967,1.275,60.49v.049l-.146.425c-.524,1.659-1.067,3.253-1.647,4.839l-19.577,57.6a4.291,4.291,0,0,1-4.11,2.948h-.039a4.292,4.292,0,0,1-4.1-3.015L226.724,158.839a2,2,0,1,1,3.812-1.209L262.324,257.8a.315.315,0,0,0,.328.235h0a.313.313,0,0,0,.325-.24l19.591-57.639c.556-1.519,1.064-3.008,1.565-4.585v-.011l.092-.294c15.951-50.595-13.722-77.09-14.023-77.352l-.183-.18-2.287-2.565a30.753,30.753,0,0,1,14.13-49.449l.96-.3.812.595c17.3,12.669,30.433,30.367,40.152,54.1l.213.52-.089.553c-1.3,8.111-3.783,17.694-7.829,30.159L271.461,282.7a5.643,5.643,0,0,0-.029,3.5,23.122,23.122,0,0,1,1.107,5.973l.062,1.136-.945.633a141.281,141.281,0,0,1-36.5,17.512l-.293.069-4.489.691L194.048,199.585a.1.1,0,0,0-.115-.035L164.627,285.8a5.643,5.643,0,0,0-.028,3.5l7.092,22.2a3.306,3.306,0,0,1-3.131,4.31ZM284.235,195.272l0,.009Z" fill="#4d4d4f"/><circle cx="64.022" cy="68.297" r="5.485" fill="#66a0ff"/><path d="M41.9,95.49A11.854,11.854,0,1,1,53.749,83.637,11.867,11.867,0,0,1,41.9,95.49Zm0-19.708a7.854,7.854,0,1,0,7.854,7.855A7.864,7.864,0,0,0,41.9,75.782Z" fill="#4d4d4f"/><circle cx="323.559" cy="289.252" r="6.149" fill="#66a0ff"/></svg>