<svg xmlns="http://www.w3.org/2000/svg" xmlns:xlink="http://www.w3.org/1999/xlink" id="Layer_1" data-name="Layer 1" viewBox="0 0 365 367.291"><defs><linearGradient id="linear-gradient" x1="180.559" y1="192.496" x2="164.979" y2="391.919" gradientUnits="userSpaceOnUse"><stop offset="0.01" stop-color="#d6ebf3"/><stop offset="0.31" stop-color="#dbedf4"/><stop offset="0.64" stop-color="#e8f4f8"/><stop offset="0.99" stop-color="#feffff"/><stop offset="1" stop-color="#fff"/></linearGradient></defs><g id="BG"><path d="M324.906,275.333c0-10.409-22.99-18.847-51.35-18.847-26.659,0-48.568,7.457-51.1,17-21.12-8.634-51.76-14.066-85.861-14.066-63.714,0-115.363,18.958-115.363,42.343,0,18.833,33.5,34.791,79.826,40.291,20.883,10.867,55.348,17.966,94.333,17.966,63.714,0,115.363-18.957,115.363-42.342,0-9.1-7.828-17.535-21.147-24.439C310.1,290.762,324.906,283.685,324.906,275.333Z" fill="url(#linear-gradient)"/><path d="M101.06,344.052a2.392,2.392,0,0,1-.239-.013c-48.8-5.795-81.591-22.786-81.591-42.279,0-11.1,9.992-21.25,28.894-29.356,17.863-7.66,42.494-12.778,69.357-14.41a2,2,0,1,1,.243,3.992C63.854,265.26,23.23,282.36,23.23,301.76c0,17.1,32.1,32.849,78.062,38.306a2,2,0,0,1-.232,3.986Z" fill="#4d4d4f"/><path d="M195.391,362.018a2,2,0,0,1,0-4c30.585,0,59.31-4.36,80.884-12.279,20.64-7.575,32.478-17.8,32.478-28.063,0-10.134-10.912-17.918-20.067-22.664l-5.756-2.983,6.437-.778c19.434-2.346,33.539-9.041,33.539-15.918,0-4.074-5-8.247-13.729-11.45-9.484-3.48-22.134-5.4-35.62-5.4-13.392,0-25.98,1.894-35.444,5.335a2,2,0,0,1-1.367-3.76c9.892-3.595,22.965-5.575,36.811-5.575,29.916,0,53.349,9.157,53.349,20.847,0,8.528-12.064,15.764-31.221,19.041,11.193,6.913,17.068,14.9,17.068,23.3C312.753,342.54,261.2,362.018,195.391,362.018Z" fill="#4d4d4f"/><path d="M175.811,361.411c-.042,0-.085,0-.127,0-8.888-.559-17.591-1.5-25.867-2.8a2,2,0,1,1,.62-3.951c8.154,1.278,16.733,2.2,25.5,2.755a2,2,0,0,1-.123,4Z" fill="#4d4d4f"/></g><g id="DETAILE"><ellipse cx="309.429" cy="228.711" rx="9.51" ry="9.668" transform="translate(-52.605 98.379) rotate(-16.671)" fill="#f9c01e"/><path d="M318.125,235.117a2,2,0,0,1-.572-3.917,7.719,7.719,0,0,0-2.985-15.076,7.776,7.776,0,0,0-6.126,4.223,2,2,0,1,1-3.574-1.8,11.716,11.716,0,1,1,13.831,16.48A2,2,0,0,1,318.125,235.117Z" fill="#4d4d4f"/><path d="M315.345,235.525a11.717,11.717,0,0,1-10.477-16.973l3.574,1.8a7.717,7.717,0,0,0,9.111,10.853l1.146,3.832A11.683,11.683,0,0,1,315.345,235.525Z" fill="#4d4d4f"/><circle cx="126.504" cy="351.959" r="4.673" fill="#f9c01e"/></g><path d="M286.836,153.57a107.134,107.134,0,0,1-53.605,98.07,20.829,20.829,0,0,0-10.4,18.057v.293a20.906,20.906,0,0,1-20.9,20.9H158.094a20.906,20.906,0,0,1-20.906-20.9h0a20.852,20.852,0,0,0-10.5-18.117A107.209,107.209,0,0,1,184.846,51.64C239.718,54.182,284.264,98.7,286.836,153.57Z" fill="#f9c01e"/><path d="M201.929,292.9H158.094a22.932,22.932,0,0,1-22.906-22.9,18.89,18.89,0,0,0-9.492-16.38,109.5,109.5,0,0,1-55.133-94.882,109.2,109.2,0,1,1,163.666,94.645,18.873,18.873,0,0,0-9.4,16.325v.292A22.931,22.931,0,0,1,201.929,292.9ZM179.7,53.521A105.206,105.206,0,0,0,74.563,158.728a105.488,105.488,0,0,0,53.116,91.407,22.9,22.9,0,0,1,11.509,19.855,18.927,18.927,0,0,0,18.906,18.9h43.835a18.926,18.926,0,0,0,18.905-18.9V269.7a22.882,22.882,0,0,1,11.4-19.79A105.263,105.263,0,0,0,184.754,53.639Q182.221,53.521,179.7,53.521Z" fill="#4d4d4f"/><path d="M187.961,317.173h-16.4A16.592,16.592,0,0,1,154.986,300.6V288.9h49.547V300.6A16.591,16.591,0,0,1,187.961,317.173ZM158.986,292.9V300.6a12.587,12.587,0,0,0,12.574,12.572h16.4A12.585,12.585,0,0,0,200.533,300.6V292.9Z" fill="#4d4d4f"/><path d="M155.616,258.486a2,2,0,0,1-2-2V227.822a2,2,0,0,1,4,0v28.664A2,2,0,0,1,155.616,258.486Z" fill="#4d4d4f"/><path d="M183.126,271.693a2,2,0,0,1-2-2V232.7a2,2,0,0,1,4,0v36.992A2,2,0,0,1,183.126,271.693Z" fill="#4d4d4f"/><path d="M201.162,250.447a2,2,0,0,1-2-2V226.224a2,2,0,0,1,4,0v22.223A2,2,0,0,1,201.162,250.447Z" fill="#4d4d4f"/><path d="M253.049,192.784c-49.024,8.942-98.384,8.766-148.068-.045a8.675,8.675,0,0,1-6.952-10.475l3.883-16.9a8.654,8.654,0,0,1,4.353-5.694l28.7-15.353a14.867,14.867,0,0,0,7.854-13.108V83.935a95.053,95.053,0,0,1,19.8-58.414A118.936,118.936,0,0,1,177.17,9.886a4.057,4.057,0,0,1,5.453.058,115.253,115.253,0,0,1,15.753,18.348,94.916,94.916,0,0,1,16.781,54.246v48.67a14.867,14.867,0,0,0,7.854,13.108l28.7,15.353a8.656,8.656,0,0,1,4.352,5.694l3.895,16.951A8.677,8.677,0,0,1,253.049,192.784Z" fill="#66a0ff"/><path d="M179.719,201.387a429.7,429.7,0,0,1-75.087-6.678,10.676,10.676,0,0,1-8.552-12.893l3.883-16.9a10.652,10.652,0,0,1,5.358-7.009l28.7-15.354a12.843,12.843,0,0,0,6.8-11.345V83.935a97.472,97.472,0,0,1,20.223-59.643A121.643,121.643,0,0,1,175.836,8.4a6.076,6.076,0,0,1,8.155.09,117.871,117.871,0,0,1,16.027,18.664,96.425,96.425,0,0,1,17.139,55.389v48.669a12.845,12.845,0,0,0,6.8,11.345l28.7,15.354a10.657,10.657,0,0,1,5.359,7.008l3.894,16.953a10.675,10.675,0,0,1-8.5,12.884h0A410.308,410.308,0,0,1,179.719,201.387Zm.147-190.528a2.041,2.041,0,0,0-1.362.516A117.686,117.686,0,0,0,164.2,26.749a93.458,93.458,0,0,0-19.379,57.186v47.272a16.839,16.839,0,0,1-8.91,14.873l-28.7,15.353a6.657,6.657,0,0,0-3.347,4.378l-3.882,16.9a6.677,6.677,0,0,0,5.352,8.059,414.961,414.961,0,0,0,147.358.045,6.675,6.675,0,0,0,5.321-8.054l-3.895-16.952a6.653,6.653,0,0,0-3.346-4.377l-28.7-15.353a16.839,16.839,0,0,1-8.91-14.873V82.538a92.425,92.425,0,0,0-16.423-53.1A113.757,113.757,0,0,0,181.255,11.4,2.021,2.021,0,0,0,179.866,10.859Zm73.183,181.925h0Z" fill="#4d4d4f"/><path d="M202.616,216.577h-43.96a12.907,12.907,0,0,1-12.537-15.964l10.017-41.048a12.876,12.876,0,0,1,12.538-9.845H192.6a12.874,12.874,0,0,1,12.537,9.845l10.017,41.047a12.906,12.906,0,0,1-12.537,15.965ZM168.674,153.72a8.885,8.885,0,0,0-8.652,6.794l-10.016,41.047a8.905,8.905,0,0,0,8.65,11.016h43.96a8.907,8.907,0,0,0,8.651-11.017l-10.018-41.047a8.882,8.882,0,0,0-8.65-6.793Z" fill="#4d4d4f"/><path d="M210.6,198.834l-9.352-38.321a8.882,8.882,0,0,0-8.65-6.793H168.674a8.885,8.885,0,0,0-8.652,6.794L150.705,198.7l-3.887-.948,9.318-38.184a12.876,12.876,0,0,1,12.538-9.845H192.6a12.874,12.874,0,0,1,12.537,9.845l9.351,38.32Z" fill="#fff"/><path d="M343.77,160.713H310.817a2,2,0,0,1,0-4H343.77a2,2,0,0,1,0,4Z" fill="#4d4d4f"/><path d="M294.252,94.733a2,2,0,0,1-1.022-3.721l28.185-16.7a2,2,0,0,1,2.039,3.441l-28.184,16.7A2,2,0,0,1,294.252,94.733Z" fill="#4d4d4f"/><path d="M246.484,50.6a2,2,0,0,1-1.74-2.982l16.088-28.541a2,2,0,1,1,3.484,1.964l-16.087,28.54A2,2,0,0,1,246.484,50.6Z" fill="#4d4d4f"/><path d="M119.955,51.347a2,2,0,0,1-1.712-.963L101.25,22.373a2,2,0,0,1,3.42-2.075l16.993,28.011a2,2,0,0,1-1.708,3.038Z" fill="#4d4d4f"/><path d="M73.9,98.767a1.99,1.99,0,0,1-.956-.246l-28.754-15.7A2,2,0,1,1,46.1,79.31l28.754,15.7a2,2,0,0,1-.96,3.756Z" fill="#4d4d4f"/><path d="M24.668,162.667a2,2,0,0,1-.031-4l32.757-.527a1.98,1.98,0,0,1,2.032,1.967,2,2,0,0,1-1.968,2.032l-32.757.527Z" fill="#4d4d4f"/></svg>