<svg xmlns="http://www.w3.org/2000/svg" id="Layer_1" data-name="Layer 1" viewBox="0 0 365 351"><rect x="9.436" y="26.624" width="345.495" height="264.952" rx="20.03" fill="#f9c01e"/><path d="M56.417,51.527H311.678a14.09,14.09,0,0,1,14.09,14.09V252.063a14.611,14.611,0,0,1-14.611,14.611H54.513A15.914,15.914,0,0,1,38.6,250.76V69.345A17.818,17.818,0,0,1,56.417,51.527Z" fill="#1fc482"/><path d="M334.394,294.372H32.25A23.2,23.2,0,0,1,9.08,271.2V46.815A23.2,23.2,0,0,1,32.25,23.646H334.394a23.2,23.2,0,0,1,23.169,23.169V225.73a2,2,0,1,1-4,0V46.815a19.191,19.191,0,0,0-19.169-19.169H32.25A19.192,19.192,0,0,0,13.08,46.815V271.2a19.192,19.192,0,0,0,19.17,19.17H334.394a19.191,19.191,0,0,0,19.169-19.17V242.666a2,2,0,0,1,4,0V271.2A23.2,23.2,0,0,1,334.394,294.372Z" fill="#4d4d4f"/><path d="M207.614,327.354a2,2,0,0,1-2-2V294.372H159.98v30.982a2,2,0,0,1-4,0V290.372h53.634v34.982A2,2,0,0,1,207.614,327.354Z" fill="#4d4d4f"/><path d="M222.035,327.354h-78.2a2,2,0,0,1,0-4h78.2a2,2,0,1,1,0,4Z" fill="#4d4d4f"/><path d="M311.583,268.582H54.153a16.889,16.889,0,0,1-16.87-16.87V106.617a2,2,0,0,1,4,0V251.712a12.885,12.885,0,0,0,12.87,12.87h257.43a12.885,12.885,0,0,0,12.87-12.87V66.305a12.884,12.884,0,0,0-12.87-12.869H54.153a12.884,12.884,0,0,0-12.87,12.869V88.74H313.594a2,2,0,0,1,0,4H37.283V66.305a16.888,16.888,0,0,1,16.87-16.869h257.43a16.888,16.888,0,0,1,16.87,16.869V251.712A16.889,16.889,0,0,1,311.583,268.582Z" fill="#4d4d4f"/><path d="M107.123,129.044v20.79a16.545,16.545,0,0,0,16.545,16.545h0a16.546,16.546,0,0,0,16.545-16.545v-20.79A16.545,16.545,0,0,0,123.668,112.5h0A16.544,16.544,0,0,0,107.123,129.044Zm16.545,26.735h0a5.635,5.635,0,0,1-5.635-5.635v-21.42a5.635,5.635,0,0,1,5.635-5.635h0a5.635,5.635,0,0,1,5.635,5.635v21.42A5.635,5.635,0,0,1,123.668,155.779Z" fill="#fff"/><path d="M123.668,157.779a7.644,7.644,0,0,1-7.635-7.635v-21.42a7.635,7.635,0,0,1,15.27,0v21.42A7.644,7.644,0,0,1,123.668,157.779Zm0-32.69a3.639,3.639,0,0,0-3.635,3.635v21.42a3.635,3.635,0,1,0,7.27,0v-21.42A3.639,3.639,0,0,0,123.668,125.089Z" fill="#4d4d4f"/><path d="M123.668,168.379a18.566,18.566,0,0,1-18.545-18.546V129.044a18.545,18.545,0,1,1,37.09,0v20.789A18.566,18.566,0,0,1,123.668,168.379Zm0-53.88a14.561,14.561,0,0,0-14.545,14.545v20.789a14.545,14.545,0,1,0,29.09,0V129.044A14.561,14.561,0,0,0,123.668,114.5Z" fill="#4d4d4f"/><path d="M168.344,208.326v20.79a16.544,16.544,0,0,0,16.544,16.545h0a16.545,16.545,0,0,0,16.545-16.545v-20.79a16.546,16.546,0,0,0-16.545-16.545h0A16.545,16.545,0,0,0,168.344,208.326Zm16.544,26.735h0a5.635,5.635,0,0,1-5.635-5.635v-21.42a5.635,5.635,0,0,1,5.635-5.635h0a5.635,5.635,0,0,1,5.635,5.635v21.42A5.634,5.634,0,0,1,184.888,235.061Z" fill="#fff"/><path d="M184.889,237.061a7.644,7.644,0,0,1-7.636-7.635v-21.42a7.635,7.635,0,0,1,15.27,0v21.42A7.643,7.643,0,0,1,184.889,237.061Zm0-32.689a3.639,3.639,0,0,0-3.636,3.634v21.42a3.635,3.635,0,1,0,7.27,0v-21.42A3.638,3.638,0,0,0,184.889,204.372Z" fill="#4d4d4f"/><path d="M184.889,247.662a18.567,18.567,0,0,1-18.545-18.546V208.327a18.545,18.545,0,1,1,37.09,0v20.789A18.567,18.567,0,0,1,184.889,247.662Zm0-53.881a14.562,14.562,0,0,0-14.545,14.546v20.789a14.545,14.545,0,1,0,29.09,0V208.327A14.562,14.562,0,0,0,184.889,193.781Z" fill="#4d4d4f"/><path d="M225.564,129.039v20.79a16.546,16.546,0,0,0,16.545,16.545h0a16.545,16.545,0,0,0,16.545-16.545v-20.79a16.544,16.544,0,0,0-16.545-16.545h0A16.545,16.545,0,0,0,225.564,129.039Zm16.545,26.735h0a5.635,5.635,0,0,1-5.635-5.635v-21.42a5.635,5.635,0,0,1,5.635-5.635h0a5.635,5.635,0,0,1,5.635,5.635v21.42A5.635,5.635,0,0,1,242.109,155.774Z" fill="#fff"/><path d="M242.109,157.774a7.644,7.644,0,0,1-7.635-7.635v-21.42a7.635,7.635,0,1,1,15.27,0v21.42A7.644,7.644,0,0,1,242.109,157.774Zm0-32.69a3.639,3.639,0,0,0-3.635,3.635v21.42a3.635,3.635,0,1,0,7.27,0v-21.42A3.638,3.638,0,0,0,242.109,125.084Z" fill="#4d4d4f"/><path d="M242.109,168.374a18.566,18.566,0,0,1-18.545-18.545v-20.79a18.545,18.545,0,1,1,37.09,0v20.79A18.566,18.566,0,0,1,242.109,168.374Zm0-53.88a14.561,14.561,0,0,0-14.545,14.545v20.79a14.545,14.545,0,1,0,29.09,0v-20.79A14.561,14.561,0,0,0,242.109,114.494Z" fill="#4d4d4f"/><path d="M242.053,240.2V203.63a1.245,1.245,0,0,0-1.246-1.245h-4.253a5.29,5.29,0,0,1-5.29-5.29h0a5.29,5.29,0,0,1,5.29-5.291H250.93a2.025,2.025,0,0,1,2.025,2.025V240.2a5.45,5.45,0,0,1-5.451,5.451h0A5.45,5.45,0,0,1,242.053,240.2Z" fill="#fff"/><path d="M247.5,247.648a7.459,7.459,0,0,1-7.451-7.451V204.385h-3.5a7.291,7.291,0,0,1,0-14.581H250.93a4.03,4.03,0,0,1,4.025,4.025V240.2A7.459,7.459,0,0,1,247.5,247.648ZM236.554,193.8a3.291,3.291,0,0,0,0,6.581h4.254a3.248,3.248,0,0,1,3.245,3.245V240.2a3.451,3.451,0,0,0,6.9,0V193.829Z" fill="#4d4d4f"/><path d="M179.2,162.9V126.332a1.245,1.245,0,0,0-1.245-1.245H173.7a5.29,5.29,0,0,1-5.29-5.291h0a5.29,5.29,0,0,1,5.29-5.29h14.377a2.024,2.024,0,0,1,2.024,2.025V162.9a5.45,5.45,0,0,1-5.451,5.451h0A5.45,5.45,0,0,1,179.2,162.9Z" fill="#fff"/><path d="M184.648,170.35A7.46,7.46,0,0,1,177.2,162.9V127.086h-3.5a7.29,7.29,0,0,1,0-14.58h14.377a4.03,4.03,0,0,1,4.025,4.025V162.9A7.46,7.46,0,0,1,184.648,170.35ZM173.7,116.506a3.29,3.29,0,0,0,0,6.58h4.254a3.249,3.249,0,0,1,3.245,3.246V162.9a3.452,3.452,0,0,0,6.9,0V116.531Z" fill="#4d4d4f"/><path d="M123.611,240.2V203.63a1.244,1.244,0,0,0-1.245-1.245h-4.254a5.291,5.291,0,0,1-5.29-5.29h0a5.291,5.291,0,0,1,5.29-5.291h14.377a2.025,2.025,0,0,1,2.025,2.025V240.2a5.451,5.451,0,0,1-5.452,5.451h0A5.451,5.451,0,0,1,123.611,240.2Z" fill="#fff"/><path d="M129.062,247.648a7.459,7.459,0,0,1-7.451-7.451V204.385h-3.5a7.291,7.291,0,0,1,0-14.581h14.377a4.03,4.03,0,0,1,4.025,4.025V240.2A7.46,7.46,0,0,1,129.062,247.648ZM118.112,193.8a3.291,3.291,0,0,0,0,6.581h4.254a3.248,3.248,0,0,1,3.245,3.245V240.2a3.452,3.452,0,0,0,6.9,0V193.829Z" fill="#4d4d4f"/><path d="M194.331,281.193h-21.9a2,2,0,0,1,0-4h21.9a2,2,0,1,1,0,4Z" fill="#4d4d4f"/><path d="M114.123,322.375a11.952,11.952,0,1,1,11.951-11.951A11.965,11.965,0,0,1,114.123,322.375Zm0-19.9a7.952,7.952,0,1,0,7.951,7.952A7.961,7.961,0,0,0,114.123,302.472Z" fill="#4d4d4f"/><circle cx="91.068" cy="320.375" r="4.979" fill="#1fc482"/><circle cx="62.903" cy="72.068" r="8.136" fill="#fff"/><path d="M62.9,82.2A10.136,10.136,0,1,1,73.039,72.068,10.147,10.147,0,0,1,62.9,82.2Zm0-16.272a6.136,6.136,0,1,0,6.136,6.136A6.143,6.143,0,0,0,62.9,65.932Z" fill="#4d4d4f"/><circle cx="93.127" cy="72.068" r="8.136" fill="#fff"/><path d="M93.127,82.2a10.136,10.136,0,1,1,10.136-10.136A10.147,10.147,0,0,1,93.127,82.2Zm0-16.272a6.136,6.136,0,1,0,6.136,6.136A6.143,6.143,0,0,0,93.127,65.932Z" fill="#4d4d4f"/><circle cx="122.507" cy="72.068" r="8.136" fill="#fff"/><path d="M122.507,82.2a10.136,10.136,0,1,1,10.137-10.136A10.147,10.147,0,0,1,122.507,82.2Zm0-16.272a6.136,6.136,0,1,0,6.137,6.136A6.143,6.143,0,0,0,122.507,65.932Z" fill="#4d4d4f"/></svg>