<svg xmlns="http://www.w3.org/2000/svg" id="Layer_1" data-name="Layer 1" viewBox="0 0 365 351"><path d="M205.53,71.113v34.743l1.528,146.819v29.007a46.3,46.3,0,0,0,92.6,0c0-.328,0-.655-.024-.983l.012.013c.388.012.788.024,1.188.024a35.966,35.966,0,0,0,35.131-43.4,48.59,48.59,0,0,0,6.209-71.693,35.92,35.92,0,0,0-9.628-55.686l-1.771-2.183,1.843,1.831a40.117,40.117,0,0,0,.813-8.064c0-20.312-16.638-37.253-36.259-39.861a46.307,46.307,0,0,0-91.642,9.435Z" fill="#66a0ff"/><path d="M145.765,23.132A46.529,46.529,0,0,0,103.71,59.888C84.088,62.5,67.451,79.437,67.451,99.749a40.117,40.117,0,0,0,.812,8.064l1.843-1.831-1.77,2.183a35.921,35.921,0,0,0-9.629,55.686,48.592,48.592,0,0,0,6.209,71.693,35.971,35.971,0,0,0,35.131,43.4c.4,0,.8-.012,1.189-.025l.012-.012c-.024.328-.024.655-.024.983a46.3,46.3,0,0,0,92.6,0V250.884l1.528-146.818V69.323A46.311,46.311,0,0,0,145.765,23.132Z" fill="#66a0ff"/><rect x="137.742" y="113.95" width="124.889" height="124.889" rx="9.443" fill="#f9c01e"/><path d="M253.188,240.84h-106A11.456,11.456,0,0,1,135.742,229.4v-106a11.456,11.456,0,0,1,11.444-11.444h106a11.456,11.456,0,0,1,11.444,11.444v106A11.456,11.456,0,0,1,253.188,240.84Zm-106-124.89a7.452,7.452,0,0,0-7.444,7.444v106a7.452,7.452,0,0,0,7.444,7.444h106a7.452,7.452,0,0,0,7.444-7.444v-106a7.452,7.452,0,0,0-7.444-7.444Z" fill="#4d4d4f"/><path d="M224.963,210.3H175.411a9.142,9.142,0,0,1-9.132-9.132V151.619a9.142,9.142,0,0,1,9.132-9.132h30.278a2,2,0,0,1,0,4H175.411a5.138,5.138,0,0,0-5.132,5.132v49.552a5.138,5.138,0,0,0,5.132,5.132h49.552a5.138,5.138,0,0,0,5.132-5.132V151.619a5.138,5.138,0,0,0-5.132-5.132H216.3a2,2,0,0,1,0-4h8.661a9.142,9.142,0,0,1,9.132,9.132v49.552A9.142,9.142,0,0,1,224.963,210.3Z" fill="#4d4d4f"/><path d="M195.184,115.95a2,2,0,0,1-2-2V70.512A44.458,44.458,0,0,0,179.1,38.121a44.28,44.28,0,0,0-45.351-9.247,2,2,0,1,1-1.375-3.756A48.286,48.286,0,0,1,181.834,35.2a48.477,48.477,0,0,1,15.35,35.316V113.95A2,2,0,0,1,195.184,115.95Z" fill="#4d4d4f"/><path d="M120.552,109.137a1.993,1.993,0,0,1-1.223-.419,48.218,48.218,0,0,1-5.152-71.732,2,2,0,0,1,2.876,2.78,44.218,44.218,0,0,0,4.725,65.79,2,2,0,0,1-1.226,3.581Z" fill="#4d4d4f"/><path d="M147.359,329.38a48.308,48.308,0,0,1-40.05-75.308,2,2,0,0,1,3.314,2.24,44.3,44.3,0,1,0,81.037,24.767V238.84a2,2,0,0,1,4,0v42.239A48.356,48.356,0,0,1,147.359,329.38Z" fill="#4d4d4f"/><path d="M68.093,111.006a2,2,0,0,1-1.957-1.6,42.083,42.083,0,0,1,36.211-50.218,2,2,0,1,1,.469,3.973A38.082,38.082,0,0,0,70.055,108.6a2,2,0,0,1-1.962,2.4Z" fill="#4d4d4f"/><path d="M58.546,167.037a2,2,0,0,1-1.485-.66,37.922,37.922,0,0,1,10.155-58.784,2,2,0,0,1,1.9,3.52A33.921,33.921,0,0,0,60.03,163.7a2,2,0,0,1-1.484,3.341Z" fill="#4d4d4f"/><path d="M99.884,282.13a37.533,37.533,0,0,1-16.873-3.953,2,2,0,1,1,1.782-3.581,33.57,33.57,0,0,0,15.091,3.534c.376,0,.751,0,1.124-.018a2,2,0,1,1,.134,4Q100.515,282.131,99.884,282.13Z" fill="#4d4d4f"/><path d="M71.952,268.791a2,2,0,0,1-1.556-.743,37.993,37.993,0,0,1-7.6-31.728,2,2,0,1,1,3.913.83,34,34,0,0,0,6.8,28.383,2,2,0,0,1-1.553,3.258Z" fill="#4d4d4f"/><path d="M64.75,238.735a1.985,1.985,0,0,1-1.211-.41A50.6,50.6,0,0,1,94.19,147.471a2,2,0,0,1,0,4,46.6,46.6,0,0,0-28.226,83.674,2,2,0,0,1-1.214,3.59Z" fill="#4d4d4f"/><path d="M205.432,115.95a2,2,0,0,1-2-2V70.512A48.476,48.476,0,0,1,218.781,35.2a48.3,48.3,0,1,1,62.506,73.522,2,2,0,0,1-2.45-3.162,44.3,44.3,0,1,0-71.4-35.044V113.95A2,2,0,0,1,205.432,115.95Z" fill="#4d4d4f"/><path d="M253.256,329.38a48.355,48.355,0,0,1-48.3-48.3V238.84a2,2,0,0,1,4,0v42.239a44.306,44.306,0,0,0,68.911,36.841,2,2,0,0,1,2.226,3.325A48.079,48.079,0,0,1,253.256,329.38Z" fill="#4d4d4f"/><path d="M290.435,310.677a2,2,0,0,1-1.6-3.193,44.321,44.321,0,0,0,1.16-51.172,2,2,0,0,1,3.315-2.24,48.324,48.324,0,0,1-1.265,55.8A2,2,0,0,1,290.435,310.677Z" fill="#4d4d4f"/><path d="M332.522,111.006a2,2,0,0,1-1.961-2.4,38.388,38.388,0,0,0,.772-7.668A37.855,37.855,0,0,0,328.855,87.4a2,2,0,0,1,3.739-1.424,41.859,41.859,0,0,1,2.739,14.958,42.327,42.327,0,0,1-.854,8.47A2,2,0,0,1,332.522,111.006Z" fill="#4d4d4f"/><path d="M321.567,74.585A1.99,1.99,0,0,1,320.155,74,38.13,38.13,0,0,0,297.8,63.161a2,2,0,1,1,.469-3.973,42.157,42.157,0,0,1,24.711,11.981,2,2,0,0,1-1.412,3.416Z" fill="#4d4d4f"/><path d="M342.069,167.037a2,2,0,0,1-1.484-3.341,33.922,33.922,0,0,0-9.086-52.583,2,2,0,0,1,1.9-3.52,37.922,37.922,0,0,1,10.155,58.784A2,2,0,0,1,342.069,167.037Z" fill="#4d4d4f"/><path d="M300.731,282.13c-.421,0-.839-.006-1.257-.02a2,2,0,0,1-1.932-2.066,2.027,2.027,0,0,1,2.065-1.932c.373.013.748.018,1.124.018a33.946,33.946,0,0,0,33.177-40.981,2,2,0,0,1,3.913-.829,37.945,37.945,0,0,1-37.09,45.81Z" fill="#4d4d4f"/><path d="M335.865,238.735a2,2,0,0,1-1.214-3.59,46.6,46.6,0,0,0-28.226-83.674,2,2,0,0,1,0-4,50.6,50.6,0,0,1,30.652,90.854A1.99,1.99,0,0,1,335.865,238.735Z" fill="#4d4d4f"/><path d="M230.168,131.362a2,2,0,0,1-2-2V105.6a17.1,17.1,0,0,1,5.041-12.171L251.8,74.839a2,2,0,1,1,2.828,2.828L236.038,96.26a13.122,13.122,0,0,0-3.87,9.342v23.76A2,2,0,0,1,230.168,131.362Z" fill="#4d4d4f"/><path d="M251.8,278.387a2,2,0,0,1-1.414-.586l-17.18-17.179a17.1,17.1,0,0,1-5.041-12.171v-23.76a2,2,0,0,1,4,0v23.76a13.122,13.122,0,0,0,3.87,9.342l17.179,17.18a2,2,0,0,1-1.414,3.414Z" fill="#4d4d4f"/><path d="M268.962,156.332H247.22a2,2,0,0,1,0-4h21.742a13.119,13.119,0,0,0,9.342-3.87l18.474-18.473a2,2,0,0,1,2.828,2.828L281.133,151.29A17.1,17.1,0,0,1,268.962,156.332Z" fill="#4d4d4f"/><path d="M298.192,216.821a1.99,1.99,0,0,1-1.414-.586l-18.473-18.472a13.123,13.123,0,0,0-9.343-3.87H247.22a2,2,0,0,1,0-4h21.742a17.1,17.1,0,0,1,12.171,5.042l18.473,18.472a2,2,0,0,1-1.414,3.414Z" fill="#4d4d4f"/><path d="M146.832,278.462a2,2,0,0,1-1.414-3.414l18.592-18.592a13.129,13.129,0,0,0,3.869-9.343v-23.76a2,2,0,0,1,4,0v23.76a17.1,17.1,0,0,1-5.04,12.171l-18.593,18.592A1.99,1.99,0,0,1,146.832,278.462Z" fill="#4d4d4f"/><path d="M169.879,130.024a2,2,0,0,1-2-2v-23.76a13.125,13.125,0,0,0-3.869-9.342l-17.179-17.18a2,2,0,0,1,2.828-2.828l17.179,17.18a17.1,17.1,0,0,1,5.041,12.17v23.76A2,2,0,0,1,169.879,130.024Z" fill="#4d4d4f"/><path d="M101.856,216.851a2,2,0,0,1-1.414-3.414l18.473-18.473a17.1,17.1,0,0,1,12.17-5.041h21.742a2,2,0,0,1,0,4H131.085a13.125,13.125,0,0,0-9.342,3.869L103.27,216.265A1.99,1.99,0,0,1,101.856,216.851Z" fill="#4d4d4f"/><path d="M152.827,156.361H131.085a17.1,17.1,0,0,1-12.17-5.041l-18.473-18.473a2,2,0,1,1,2.828-2.828l18.473,18.473a13.129,13.129,0,0,0,9.342,3.869h21.742a2,2,0,0,1,0,4Z" fill="#4d4d4f"/><circle cx="256.009" cy="73.563" r="13.059" fill="#fff"/><path d="M256.009,88.622a15.059,15.059,0,1,1,15.058-15.059A15.075,15.075,0,0,1,256.009,88.622Zm0-26.117a11.059,11.059,0,1,0,11.058,11.058A11.071,11.071,0,0,0,256.009,62.505Z" fill="#4d4d4f"/><circle cx="148.453" cy="73.563" r="13.059" fill="#fff"/><path d="M148.454,88.622a15.059,15.059,0,1,1,15.058-15.059A15.075,15.075,0,0,1,148.454,88.622Zm0-26.117a11.059,11.059,0,1,0,11.058,11.058A11.071,11.071,0,0,0,148.454,62.505Z" fill="#4d4d4f"/><circle cx="256.009" cy="279.227" r="13.059" fill="#fff"/><path d="M256.009,294.286a15.059,15.059,0,1,1,15.058-15.059A15.076,15.076,0,0,1,256.009,294.286Zm0-26.118a11.059,11.059,0,1,0,11.058,11.059A11.071,11.071,0,0,0,256.009,268.168Z" fill="#4d4d4f"/><circle cx="143.083" cy="279.227" r="13.059" fill="#fff"/><path d="M143.083,294.286a15.059,15.059,0,1,1,15.059-15.059A15.077,15.077,0,0,1,143.083,294.286Zm0-26.118a11.059,11.059,0,1,0,11.059,11.059A11.071,11.071,0,0,0,143.083,268.168Z" fill="#4d4d4f"/><circle cx="300.977" cy="128.024" r="10.471" fill="#fff"/><path d="M300.977,140.5a12.471,12.471,0,1,1,12.471-12.471A12.486,12.486,0,0,1,300.977,140.5Zm0-20.942a8.471,8.471,0,1,0,8.471,8.471A8.48,8.48,0,0,0,300.977,119.553Z" fill="#4d4d4f"/><circle cx="100.385" cy="216.892" r="10.471" fill="#fff"/><path d="M100.385,229.363a12.471,12.471,0,1,1,12.47-12.47A12.484,12.484,0,0,1,100.385,229.363Zm0-20.941a8.471,8.471,0,1,0,8.47,8.471A8.48,8.48,0,0,0,100.385,208.422Z" fill="#4d4d4f"/><circle cx="101.856" cy="130.734" r="10.471" fill="#fff"/><path d="M101.856,143.205a12.471,12.471,0,1,1,12.47-12.471A12.485,12.485,0,0,1,101.856,143.205Zm0-20.941a8.471,8.471,0,1,0,8.47,8.47A8.48,8.48,0,0,0,101.856,122.264Z" fill="#4d4d4f"/><circle cx="300.977" cy="217.658" r="10.471" fill="#fff"/><path d="M300.977,230.128a12.47,12.47,0,1,1,12.471-12.47A12.485,12.485,0,0,1,300.977,230.128Zm0-20.94a8.47,8.47,0,1,0,8.471,8.47A8.48,8.48,0,0,0,300.977,209.188Z" fill="#4d4d4f"/><path d="M230.168,131.362a2,2,0,0,1-2-2V115.2a2,2,0,0,1,4,0v14.161A2,2,0,0,1,230.168,131.362Z" fill="#4d4d4f"/><path d="M169.879,131.362a2,2,0,0,1-2-2V115.2a2,2,0,0,1,4,0v14.161A2,2,0,0,1,169.879,131.362Z" fill="#4d4d4f"/><path d="M169.879,239.589a2,2,0,0,1-2-2V223.428a2,2,0,0,1,4,0v14.161A2,2,0,0,1,169.879,239.589Z" fill="#4d4d4f"/><path d="M230.168,239.514a2,2,0,0,1-2-2V223.353a2,2,0,0,1,4,0v14.161A2,2,0,0,1,230.168,239.514Z" fill="#4d4d4f"/><path d="M261.381,156.361H247.22a2,2,0,0,1,0-4h14.161a2,2,0,0,1,0,4Z" fill="#4d4d4f"/><path d="M261.381,193.893H247.22a2,2,0,0,1,0-4h14.161a2,2,0,0,1,0,4Z" fill="#4d4d4f"/><path d="M152.827,156.332H138.666a2,2,0,0,1,0-4h14.161a2,2,0,0,1,0,4Z" fill="#4d4d4f"/><path d="M152.827,193.923H138.666a2,2,0,0,1,0-4h14.161a2,2,0,0,1,0,4Z" fill="#4d4d4f"/><circle cx="322.85" cy="50.012" r="3.972" fill="#f9c01e"/><circle cx="333.369" cy="39.326" r="7.994" fill="#f9c01e"/><circle cx="29.226" cy="242.99" r="7.547" fill="#f9c01e"/><path d="M18.745,248.792a10.867,10.867,0,1,1,10.511-13.609h0a10.874,10.874,0,0,1-10.511,13.609Zm0-17.734a6.866,6.866,0,1,0,6.645,5.134h0A6.878,6.878,0,0,0,18.741,231.058Z" fill="#4d4d4f"/></svg>