<svg xmlns="http://www.w3.org/2000/svg" id="Layer_1" data-name="Layer 1" viewBox="0 0 365 351"><rect x="74.52" y="44.25" width="118.767" height="118.767" rx="13.107" fill="#5495ff"/><rect x="219.531" y="44.25" width="118.767" height="118.767" rx="13.107" fill="#f9c01e"/><rect x="74.52" y="187.983" width="118.767" height="118.767" rx="13.107" fill="#f9c01e"/><rect x="219.531" y="187.983" width="118.767" height="118.767" rx="13.107" fill="#5495ff"/><path d="M181.124,165.017H86.683A14.18,14.18,0,0,1,72.52,150.854v-47.22a2,2,0,0,1,4,0v47.22a10.175,10.175,0,0,0,10.163,10.163h94.441a10.175,10.175,0,0,0,10.163-10.163V56.413A10.175,10.175,0,0,0,181.124,46.25H86.683A10.175,10.175,0,0,0,76.52,56.413v29.65a2,2,0,0,1-4,0V56.413A14.18,14.18,0,0,1,86.683,42.25h94.441a14.18,14.18,0,0,1,14.163,14.163v94.441A14.18,14.18,0,0,1,181.124,165.017Z" fill="#4d4d4f"/><path d="M325.191,165.017H232.638a15.124,15.124,0,0,1-15.107-15.107V57.357A15.124,15.124,0,0,1,232.638,42.25h92.553A15.124,15.124,0,0,1,340.3,57.357V149.91A15.124,15.124,0,0,1,325.191,165.017ZM232.638,46.25a11.119,11.119,0,0,0-11.107,11.107V149.91a11.12,11.12,0,0,0,11.107,11.107h92.553A11.12,11.12,0,0,0,336.3,149.91V57.357A11.119,11.119,0,0,0,325.191,46.25Z" fill="#4d4d4f"/><path d="M180.18,308.75H87.627A15.124,15.124,0,0,1,72.52,293.643V201.09a15.124,15.124,0,0,1,15.107-15.107H180.18a15.124,15.124,0,0,1,15.107,15.107v92.553A15.124,15.124,0,0,1,180.18,308.75ZM87.627,189.983A11.119,11.119,0,0,0,76.52,201.09v92.553A11.119,11.119,0,0,0,87.627,304.75H180.18a11.119,11.119,0,0,0,11.107-11.107V201.09a11.12,11.12,0,0,0-11.107-11.107Z" fill="#4d4d4f"/><path d="M326.135,308.75H304.607a2,2,0,1,1,0-4h21.528A10.175,10.175,0,0,0,336.3,294.587V200.146a10.175,10.175,0,0,0-10.163-10.163H231.694a10.175,10.175,0,0,0-10.163,10.163v94.441a10.175,10.175,0,0,0,10.163,10.163h58.15a2,2,0,1,1,0,4h-58.15a14.18,14.18,0,0,1-14.163-14.163V200.146a14.18,14.18,0,0,1,14.163-14.163h94.441A14.18,14.18,0,0,1,340.3,200.146v94.441A14.18,14.18,0,0,1,326.135,308.75Z" fill="#4d4d4f"/><rect x="127.199" y="215.513" width="13.408" height="63.708" rx="6.343" transform="translate(381.27 113.463) rotate(90)" fill="#fff"/><rect x="272.211" y="71.78" width="13.408" height="63.708" rx="6.343" transform="translate(154.972 -166.869) rotate(45)" fill="#fff"/><path d="M165.761,103.634h0a6.7,6.7,0,0,1-6.7,6.7H140.6v18.457a6.7,6.7,0,0,1-6.7,6.7h0a6.7,6.7,0,0,1-6.7-6.7V110.334H108.746a6.7,6.7,0,0,1-6.7-6.7h0a6.7,6.7,0,0,1,6.7-6.7H127.2V78.476a6.7,6.7,0,0,1,6.7-6.7h0a6.7,6.7,0,0,1,6.7,6.7V96.934h18.458A6.7,6.7,0,0,1,165.761,103.634Z" fill="#fff"/><path d="M133.9,137.491a8.71,8.71,0,0,1-8.7-8.7V112.334H108.746a8.7,8.7,0,1,1,0-17.4H125.2V78.476a8.7,8.7,0,1,1,17.4,0V94.934h16.457a8.7,8.7,0,0,1,0,17.4H142.6v16.457A8.71,8.71,0,0,1,133.9,137.491ZM108.746,98.934a4.7,4.7,0,1,0,0,9.4H129.2v20.457a4.7,4.7,0,0,0,9.4,0V108.334h20.457a4.7,4.7,0,0,0,0-9.4H138.6V78.476a4.7,4.7,0,1,0-9.4,0V98.934Z" fill="#4d4d4f"/><path d="M301.019,269.969h0a6.7,6.7,0,0,1-9.475,0l-13.051-13.052-13.052,13.052a6.7,6.7,0,0,1-9.475,0h0a6.7,6.7,0,0,1,0-9.475l13.051-13.052-13.051-13.051a6.7,6.7,0,0,1,0-9.476h0a6.7,6.7,0,0,1,9.475,0l13.052,13.052,13.051-13.052a6.7,6.7,0,0,1,9.475,0h0a6.7,6.7,0,0,1,0,9.476l-13.051,13.051,13.051,13.052A6.7,6.7,0,0,1,301.019,269.969Z" fill="#fff"/><path d="M260.7,273.932a8.7,8.7,0,0,1-6.151-14.852l11.636-11.638-11.636-11.637a8.7,8.7,0,1,1,12.3-12.3l11.638,11.638L290.13,223.5a8.7,8.7,0,1,1,12.3,12.3L290.8,247.442l11.638,11.637a8.711,8.711,0,0,1,0,12.3h0a8.711,8.711,0,0,1-12.3,0l-11.637-11.638-11.638,11.638A8.645,8.645,0,0,1,260.7,273.932Zm0-48.977a4.7,4.7,0,0,0-3.324,8.022l14.466,14.465L257.38,261.908a4.7,4.7,0,1,0,6.646,6.647l14.467-14.466,14.465,14.466a4.707,4.707,0,0,0,6.647,0h0a4.708,4.708,0,0,0,0-6.648l-14.466-14.465,14.466-14.465a4.7,4.7,0,1,0-6.647-6.648L278.493,240.8l-14.466-14.466A4.686,4.686,0,0,0,260.7,224.955Z" fill="#4d4d4f"/><path d="M159.053,256.07h-50.3a8.7,8.7,0,1,1,0-17.407h7.75a2,2,0,0,1,0,4h-7.75a4.7,4.7,0,1,0,0,9.407h50.3a4.7,4.7,0,1,0,0-9.407H129.16a2,2,0,1,1,0-4h29.893a8.7,8.7,0,1,1,0,17.407Z" fill="#4d4d4f"/><path d="M261.131,130.117a8.7,8.7,0,0,1-6.154-14.854L275.2,95.042a2,2,0,0,1,2.828,2.828l-20.22,20.221a4.7,4.7,0,0,0,6.653,6.653l35.566-35.567a4.7,4.7,0,0,0-6.652-6.654l-7.225,7.225a2,2,0,0,1-2.828-2.828l7.225-7.225a8.7,8.7,0,0,1,12.309,12.31l-35.567,35.567A8.677,8.677,0,0,1,261.131,130.117Z" fill="#4d4d4f"/><path d="M133.9,137.491a8.71,8.71,0,0,1-8.7-8.7V112.334H108.746a8.7,8.7,0,1,1,0-17.4H125.2V78.476a8.7,8.7,0,1,1,17.4,0V94.934h16.457a8.7,8.7,0,0,1,0,17.4H142.6v16.457A8.71,8.71,0,0,1,133.9,137.491ZM108.746,98.934a4.7,4.7,0,1,0,0,9.4H129.2v20.457a4.7,4.7,0,0,0,9.4,0V108.334h20.457a4.7,4.7,0,0,0,0-9.4H138.6V78.476a4.7,4.7,0,1,0-9.4,0V98.934Z" fill="#4d4d4f"/><path d="M260.7,273.932a8.7,8.7,0,0,1-6.151-14.852l11.636-11.638-11.636-11.637a8.7,8.7,0,1,1,12.3-12.3l11.638,11.638L290.13,223.5a8.7,8.7,0,1,1,12.3,12.3L290.8,247.442l11.638,11.637a8.711,8.711,0,0,1,0,12.3h0a8.711,8.711,0,0,1-12.3,0l-11.637-11.638-11.638,11.638A8.645,8.645,0,0,1,260.7,273.932Zm0-48.977a4.7,4.7,0,0,0-3.324,8.022l14.466,14.465L257.38,261.908a4.7,4.7,0,1,0,6.646,6.647l14.467-14.466,14.465,14.466a4.707,4.707,0,0,0,6.647,0h0a4.708,4.708,0,0,0,0-6.648l-14.466-14.465,14.466-14.465a4.7,4.7,0,1,0-6.647-6.648L278.493,240.8l-14.466-14.466A4.686,4.686,0,0,0,260.7,224.955Z" fill="#4d4d4f"/><path d="M55.4,188.41a12.975,12.975,0,1,1,9.174-22.148h0A12.975,12.975,0,0,1,55.4,188.41Zm0-21.949a8.976,8.976,0,1,0,6.346,2.629h0A8.917,8.917,0,0,0,55.4,166.461Z" fill="#4d4d4f"/><circle cx="33.067" cy="166.201" r="6.365" fill="#1fc482"/></svg>