<svg xmlns="http://www.w3.org/2000/svg" id="Layer_1" data-name="Layer 1" viewBox="0 0 365 351"><path d="M62.678,153.6c0-73.942,61.234-136.186,135.572-134.437C268.256,20.814,325.351,77.908,327,147.914a131.974,131.974,0,0,1-125.02,134.972,7.268,7.268,0,0,0-6.924,7.23L195,315a12.563,12.563,0,0,1-12.58,12.539l-78.766-.095A32.384,32.384,0,0,1,71.53,298.74l-4.123-36.1a14.262,14.262,0,0,0-10.887-12.26L45.5,247.778a9.787,9.787,0,0,1-6.8-13.236l19.409-47.35A61.172,61.172,0,0,0,62.678,164Z" fill="#66a0ff"/><path d="M202.458,50.92a97.132,97.132,0,1,0,89.461,104.227A97.142,97.142,0,0,0,202.458,50.92Zm66.12,102.537a73.813,73.813,0,1,1-67.988-79.21A73.819,73.819,0,0,1,268.578,153.457Z" fill="#f9c01e"/><path d="M136.4,145.387c-.05,0-.1,0-.154-.006a2,2,0,0,1-1.842-2.146A60.481,60.481,0,0,1,154.336,102.7a2,2,0,0,1,2.676,2.973,56.492,56.492,0,0,0-18.622,37.87A2,2,0,0,1,136.4,145.387Z" fill="#4d4d4f"/><path d="M195.021,208.607q-2.314,0-4.662-.177a2,2,0,0,1,.3-3.989,56.813,56.813,0,0,0,60.9-52.274,2,2,0,0,1,3.989.3A60.835,60.835,0,0,1,195.021,208.607Z" fill="#4d4d4f"/><path d="M195.031,223.467c-1.923,0-3.852-.072-5.8-.221a75.583,75.583,0,1,1,5.8.221Zm-.167-147.231a71.674,71.674,0,1,0,5.557.212Q197.634,76.237,194.864,76.236Z" fill="#4d4d4f"/><path d="M195.049,246.986c-2.522,0-5.052-.095-7.607-.29a98.768,98.768,0,0,1-52.377-19.852,2,2,0,1,1,2.42-3.184,95.265,95.265,0,1,0-12.53-11.413,2,2,0,1,1-2.945,2.707,99.128,99.128,0,1,1,73.039,32.032Z" fill="#4d4d4f"/><path d="M272.9,225.536h30.027a2.864,2.864,0,0,1,2.864,2.864v42.292a17.878,17.878,0,0,1-17.878,17.878h0a17.878,17.878,0,0,1-17.878-17.878V228.4a2.864,2.864,0,0,1,2.864-2.864Z" transform="translate(-97.98 249.519) rotate(-40.64)" fill="#f04b46"/><path d="M296.829,287.282c-.513,0-1.026-.02-1.543-.059a19.748,19.748,0,0,1-13.572-6.874l-25.14-29.288a8.559,8.559,0,0,1,.92-12.068l17.18-14.746a8.555,8.555,0,0,1,12.067.92l14.214,16.559a2,2,0,0,1-3.035,2.606l-14.214-16.56a4.558,4.558,0,0,0-6.427-.49L260.1,242.028a4.557,4.557,0,0,0-.491,6.427l25.14,29.289a15.878,15.878,0,1,0,24.1-20.683l-4.725-5.5a2,2,0,1,1,3.035-2.606l4.725,5.5a19.88,19.88,0,0,1-15.052,32.827Z" fill="#4d4d4f"/><path d="M267.868,234.725a2,2,0,0,1-1.526-.707l-9.545-11.26a2,2,0,0,1,3.051-2.587l9.545,11.26a2,2,0,0,1-1.525,3.294Z" fill="#4d4d4f"/><path d="M263.71,258.3a2,2,0,0,1-1.3-3.518L289.538,231.5a2,2,0,0,1,2.606,3.035l-27.132,23.288A1.992,1.992,0,0,1,263.71,258.3Z" fill="#4d4d4f"/><path d="M302.966,229.1a2,2,0,0,1-1.632-3.153A130.152,130.152,0,0,0,198.2,21.166c-34.678-.825-67.732,12.382-93.1,37.164A134.093,134.093,0,0,0,64.679,153.6V164a62.862,62.862,0,0,1-4.72,23.956,2,2,0,0,1-3.7-1.518A58.882,58.882,0,0,0,60.679,164V153.6a138.119,138.119,0,0,1,41.626-98.134c26.148-25.54,60.256-39.127,95.993-38.3A133.983,133.983,0,0,1,304.6,228.25,2,2,0,0,1,302.966,229.1Z" fill="#4d4d4f"/><path d="M182.439,329.542h-.017l-78.767-.095a34.376,34.376,0,0,1-34.112-30.48l-4.123-36.1a12.3,12.3,0,0,0-9.359-10.541l-11.017-2.605a11.786,11.786,0,0,1-8.194-15.942l13.636-33.268a2,2,0,0,1,3.7,1.517L40.551,235.3a7.787,7.787,0,0,0,5.413,10.532l11.016,2.606A16.305,16.305,0,0,1,69.4,262.417l4.123,36.1a30.376,30.376,0,0,0,30.142,26.934l78.766.095h.013A10.578,10.578,0,0,0,193,315l.051-24.888a9.274,9.274,0,0,1,8.822-9.223,128.573,128.573,0,0,0,53.7-14.74,2,2,0,1,1,1.865,3.539,132.565,132.565,0,0,1-55.361,15.2,5.276,5.276,0,0,0-5.028,5.236L197,315.007A14.584,14.584,0,0,1,182.439,329.542Z" fill="#4d4d4f"/><path d="M234.216,326.671a14.18,14.18,0,1,1,14.18-14.18A14.2,14.2,0,0,1,234.216,326.671Zm0-24.36a10.18,10.18,0,1,0,10.18,10.18A10.191,10.191,0,0,0,234.216,302.311Z" fill="#4d4d4f"/><circle cx="258.322" cy="324.671" r="7.199" fill="#f04b46"/></svg>