<svg xmlns="http://www.w3.org/2000/svg" id="Layer_1" data-name="Layer 1" viewBox="0 0 365 351"><path d="M153.452,232.087l-12.172,7.332a29.17,29.17,0,0,1-29.543.327L97.5,231.593A141.846,141.846,0,0,1,26.137,108.5V44.048a5.028,5.028,0,0,1,3.841-4.884q99.953-23.973,188.44-.081a5.018,5.018,0,0,1,3.691,4.847v66.651A141.846,141.846,0,0,1,153.452,232.087Z" fill="#66a0ff"/><path d="M126.229,245.6a31.143,31.143,0,0,1-15.486-4.117l-14.237-8.152A144.176,144.176,0,0,1,24.138,108.5a2,2,0,1,1,4,0,140.171,140.171,0,0,0,70.356,121.36l14.237,8.153a27.189,27.189,0,0,0,27.516-.305l12.173-7.332a139.847,139.847,0,0,0,67.69-119.793V43.931a3.016,3.016,0,0,0-2.213-2.917C159.508,25.249,96.44,25.281,30.445,41.109a3.045,3.045,0,0,0-2.307,2.939v45.4a2,2,0,0,1-4,0v-45.4a7,7,0,0,1,5.375-6.829C96.167,21.233,159.9,21.211,218.94,37.152a7.023,7.023,0,0,1,5.17,6.779v66.65A143.848,143.848,0,0,1,154.484,233.8l-12.172,7.332A31.162,31.162,0,0,1,126.229,245.6Z" fill="#4d4d4f"/><path d="M124.124,197.316h0a30.772,30.772,0,0,1-30.773-30.773H154.9A30.773,30.773,0,0,1,124.124,197.316Z" fill="#fff"/><path d="M124.124,199.316a32.81,32.81,0,0,1-32.773-32.773v-2H156.9v2A32.81,32.81,0,0,1,124.124,199.316Zm-28.7-30.773a28.774,28.774,0,0,0,57.409,0Z" fill="#4d4d4f"/><path d="M64.388,106.958a2,2,0,0,1-1.8-2.868,24.56,24.56,0,0,1,44.287,0,2,2,0,0,1-3.6,1.736,20.562,20.562,0,0,0-37.081,0A2,2,0,0,1,64.388,106.958Z" fill="#4d4d4f"/><path d="M183.86,106.958a2,2,0,0,1-1.8-1.133,20.561,20.561,0,0,0-37.08,0,2,2,0,0,1-3.6-1.736,24.56,24.56,0,0,1,44.287,0,2,2,0,0,1-1.8,2.869Z" fill="#4d4d4f"/><path d="M338.863,215.992A107.855,107.855,0,0,1,225.88,323.723c-55.255-2.56-100.086-47.428-102.6-102.685A107.86,107.86,0,0,1,231.012,108.126c.311,0,.622,0,.933,0,14.141.12,24.177,13.581,20.817,27.317a48.44,48.44,0,0,0,58.551,58.576c13.828-3.376,27.387,6.531,27.543,20.765Q338.862,215.39,338.863,215.992Z" fill="#f9c01e"/><path d="M231.068,325.844q-2.633,0-5.28-.122a109.036,109.036,0,0,1-56.038-18.654,2,2,0,1,1,2.24-3.312,105.778,105.778,0,0,0,164.872-87.764c0-.394,0-.791-.006-1.185a19.373,19.373,0,0,0-7.536-15.17,20.483,20.483,0,0,0-17.533-3.67,50.434,50.434,0,0,1-60.968-61,20.186,20.186,0,0,0-3.662-17.3,19.407,19.407,0,0,0-15.228-7.545l-.917,0a105.74,105.74,0,0,0-74.7,180.694,2,2,0,1,1-2.827,2.83,109.777,109.777,0,0,1,77.53-187.524l.949,0a23.384,23.384,0,0,1,18.352,9.088,24.166,24.166,0,0,1,4.391,20.7,46.438,46.438,0,0,0,56.134,56.158,24.483,24.483,0,0,1,20.935,4.4,23.348,23.348,0,0,1,9.083,18.288q.006.615.006,1.226A109.854,109.854,0,0,1,231.068,325.844Z" fill="#4d4d4f"/><circle cx="292.692" cy="237.76" r="31.265" fill="#fff"/><path d="M292.692,271.024a33.265,33.265,0,1,1,33.265-33.264A33.3,33.3,0,0,1,292.692,271.024Zm0-62.529a29.265,29.265,0,1,0,29.265,29.265A29.3,29.3,0,0,0,292.692,208.5Z" fill="#4d4d4f"/><circle cx="233.404" cy="280.874" r="19.202" fill="#fff"/><path d="M233.4,302.076a21.2,21.2,0,1,1,21.2-21.2A21.226,21.226,0,0,1,233.4,302.076Zm0-38.4a17.2,17.2,0,1,0,17.2,17.2A17.222,17.222,0,0,0,233.4,263.672Z" fill="#4d4d4f"/><circle cx="176.182" cy="256.962" r="19.202" fill="#fff"/><path d="M176.182,278.163a21.2,21.2,0,1,1,21.2-21.2A21.226,21.226,0,0,1,176.182,278.163Zm0-38.4a17.2,17.2,0,1,0,17.2,17.2A17.222,17.222,0,0,0,176.182,239.76Z" fill="#4d4d4f"/><circle cx="165.735" cy="196.396" r="19.202" fill="#fff"/><path d="M165.734,217.6a21.2,21.2,0,1,1,21.2-21.2A21.226,21.226,0,0,1,165.734,217.6Zm0-38.4a17.2,17.2,0,1,0,17.2,17.2A17.222,17.222,0,0,0,165.734,179.194Z" fill="#4d4d4f"/><path d="M295.648,90.762l13.621,15.652a39.956,39.956,0,0,1,1.344,50.829l-6,7.678H280.9l-6-7.678a39.956,39.956,0,0,1,1.344-50.829l13.621-15.652a3.827,3.827,0,0,1,2.89-1.317h0A3.83,3.83,0,0,1,295.648,90.762Z" fill="#f04b46"/><path d="M274.629,261.275l6.272-96.751h23.628l6.226,96.751C299.927,268.489,287.206,269.577,274.629,261.275Z" fill="#f04b46"/><path d="M305.591,166.921H279.926l-6.6-8.446a42.025,42.025,0,0,1,1.412-53.374l13.621-15.652a5.83,5.83,0,0,1,8.8,0L310.777,105.1a41.908,41.908,0,0,1,9.678,20.3,2,2,0,1,1-3.939.688,37.934,37.934,0,0,0-8.756-18.365L294.14,92.075a1.892,1.892,0,0,0-2.763,0l-13.621,15.653a38.018,38.018,0,0,0-1.277,48.285l5.4,6.909H303.64l5.4-6.909a37.944,37.944,0,0,0,7.706-18.286,2,2,0,0,1,3.965.534,41.968,41.968,0,0,1-8.519,20.215Z" fill="#4d4d4f"/><path d="M283.519,139.993a2,2,0,0,1-2-2V133.3a20.389,20.389,0,0,1,4.558-12.826l16.9-20.767a2,2,0,1,1,3.1,2.524L289.181,123a16.366,16.366,0,0,0-3.662,10.3v4.695A2,2,0,0,1,283.519,139.993Z" fill="#4d4d4f"/><path d="M274.574,264.55c-.044,0-.087,0-.131,0a2,2,0,0,1-1.867-2.125l6.45-99.5H306.4l6.4,99.5a2,2,0,0,1-3.993.258l-6.162-95.758H282.776l-6.208,95.758A2,2,0,0,1,274.574,264.55Z" fill="#4d4d4f"/><path d="M90.018,288.133a17.321,17.321,0,0,1-16.346-23h0a17.321,17.321,0,1,1,16.346,23ZM77.451,266.441A13.32,13.32,0,1,0,94.4,258.229a13.337,13.337,0,0,0-16.953,8.212Z" fill="#4d4d4f"/><circle cx="114.894" cy="299.207" r="9.094" fill="#66a0ff"/><circle cx="261.427" cy="65.634" r="9.096" fill="#66a0ff"/></svg>