<svg xmlns="http://www.w3.org/2000/svg" id="Layer_1" data-name="Layer 1" viewBox="0 0 365 351"><rect x="60.683" y="199.063" width="50.715" height="75.231" fill="#f9c01e"/><rect x="108.889" y="73.373" width="50.715" height="81.872" transform="translate(120.148 -61.446) rotate(45)" fill="#f9c01e"/><polygon points="191.141 103.293 227.002 67.432 288.737 149.288 268.998 169.027 191.141 103.293" fill="#f9c01e"/><path d="M113.4,277.955H58.683V247.47a2,2,0,0,1,4,0v26.485H109.4V201.063H62.683v33.481a2,2,0,1,1-4,0V197.063H113.4Z" fill="#4d4d4f"/><path d="M123.23,164.014l-38.689-38.69L145.262,64.6l38.689,38.689ZM90.2,125.324l33.032,33.032,55.064-55.063L145.262,70.261Z" fill="#4d4d4f"/><path d="M269.112,171.741l-80.925-68.324,39.027-39.025,64.168,85.08Zm-75.018-68.573,74.79,63.145L286.093,149.1l-59.3-78.631Z" fill="#4d4d4f"/><circle cx="86.07" cy="166.569" r="41.245" fill="#66a0ff"/><circle cx="86.07" cy="166.569" r="20.316" fill="#fff"/><circle cx="185.27" cy="62.107" r="41.245" fill="#66a0ff"/><circle cx="185.27" cy="62.107" r="20.316" fill="#fff"/><path d="M273.847,141.227h0a18.931,18.931,0,0,1,18.931,18.931v20.411a0,0,0,0,1,0,0H254.916a0,0,0,0,1,0,0V160.158A18.931,18.931,0,0,1,273.847,141.227Z" fill="#f04b46"/><path d="M236.089,254.851v-58.77A15.512,15.512,0,0,1,251.6,180.569h44.492a15.512,15.512,0,0,1,15.512,15.512v58.77a2.093,2.093,0,0,1-3.545,1.507L295,243.766a12.67,12.67,0,0,1-3.877-9.123V207.356a5.381,5.381,0,0,0-5.381-5.38H261.957a5.381,5.381,0,0,0-5.381,5.38v27.287a12.671,12.671,0,0,1-3.878,9.123l-13.063,12.592A2.093,2.093,0,0,1,236.089,254.851Z" fill="#66a0ff"/><rect x="32.318" y="276.638" width="299.7" height="53.5" rx="26.75" fill="#f04b46"/><path d="M86.07,209.814a43.245,43.245,0,1,1,43.245-43.245A43.294,43.294,0,0,1,86.07,209.814Zm0-82.49a39.245,39.245,0,1,0,39.245,39.245A39.29,39.29,0,0,0,86.07,127.324Z" fill="#4d4d4f"/><path d="M86.07,188.885a22.329,22.329,0,0,1-20.924-30.09,2,2,0,0,1,3.75,1.394,18.317,18.317,0,1,0,7.625-9.252,2,2,0,0,1-2.089-3.412,22.317,22.317,0,1,1,11.638,41.36Z" fill="#4d4d4f"/><path d="M185.271,105.352a43.245,43.245,0,1,1,43.245-43.245A43.295,43.295,0,0,1,185.271,105.352Zm0-82.49a39.245,39.245,0,1,0,39.245,39.245A39.29,39.29,0,0,0,185.271,22.862Z" fill="#4d4d4f"/><path d="M185.271,84.423a22.309,22.309,0,1,1,19.5-11.461,2,2,0,1,1-3.492-1.949,18.3,18.3,0,1,0-7.23,7.174,2,2,0,1,1,1.92,3.508A22.344,22.344,0,0,1,185.271,84.423Z" fill="#4d4d4f"/><path d="M294.778,182.569H252.916v-22.41a20.931,20.931,0,1,1,41.862,0Zm-37.862-4h33.862v-18.41a16.931,16.931,0,1,0-33.862,0Z" fill="#4d4d4f"/><path d="M238.184,258.945a4.1,4.1,0,0,1-4.095-4.094v-58.77A17.532,17.532,0,0,1,251.6,178.569h44.491a17.532,17.532,0,0,1,17.512,17.512v58.77a4.093,4.093,0,0,1-6.933,2.946l-13.064-12.591a14.749,14.749,0,0,1-4.49-10.563V207.356a3.383,3.383,0,0,0-3.38-3.38H261.957a3.384,3.384,0,0,0-3.381,3.38v27.287a14.749,14.749,0,0,1-4.49,10.563L241.022,257.8A4.083,4.083,0,0,1,238.184,258.945ZM251.6,182.569a13.527,13.527,0,0,0-13.513,13.512v58.77c0,.042,0,.061.057.085s.071.009.1-.019l13.064-12.591a10.727,10.727,0,0,0,3.265-7.683V207.356a7.39,7.39,0,0,1,7.381-7.38h23.781a7.388,7.388,0,0,1,7.38,7.38v27.287a10.728,10.728,0,0,0,3.266,7.683l13.063,12.591c.03.028.041.043.1.019s.056-.043.056-.085v-58.77a13.527,13.527,0,0,0-13.512-13.512Z" fill="#4d4d4f"/><path d="M305.932,331.132H150.967a2,2,0,0,1,0-4H305.932a24.75,24.75,0,0,0,0-49.5H59.731a24.75,24.75,0,0,0,0,49.5h74.515a2,2,0,1,1,0,4H59.731a28.75,28.75,0,0,1,0-57.5h246.2a28.75,28.75,0,0,1,0,57.5Z" fill="#4d4d4f"/><circle cx="60.683" cy="302.382" r="11.772" fill="#fff"/><path d="M60.683,316.154a13.772,13.772,0,1,1,13.773-13.772A13.787,13.787,0,0,1,60.683,316.154Zm0-23.544a9.772,9.772,0,1,0,9.773,9.772A9.783,9.783,0,0,0,60.683,292.61Z" fill="#4d4d4f"/><circle cx="306.108" cy="302.382" r="11.772" fill="#fff"/><path d="M306.108,316.154a13.772,13.772,0,1,1,13.772-13.772A13.788,13.788,0,0,1,306.108,316.154Zm0-23.544a9.772,9.772,0,1,0,9.772,9.772A9.783,9.783,0,0,0,306.108,292.61Z" fill="#4d4d4f"/><circle cx="47.596" cy="207.815" r="4.668" fill="#f04b46"/><circle cx="309.941" cy="164.359" r="4.668" fill="#f04b46"/><path d="M39.957,235.054a9.639,9.639,0,1,1,9.639-9.639A9.65,9.65,0,0,1,39.957,235.054Zm0-15.278a5.639,5.639,0,1,0,5.639,5.639A5.646,5.646,0,0,0,39.957,219.776Z" fill="#4d4d4f"/></svg>